M48
; DRILL file {KiCad (5.1.6)-1} date 02/15/21 20:34:03
; FORMAT={-:-/ absolute / metric / decimal}
; #@! TF.CreationDate,2021-02-15T20:34:03+02:00
; #@! TF.GenerationSoftware,Kicad,Pcbnew,(5.1.6)-1
; #@! TF.FileFunction,Plated,1,2,PTH
FMAT,2
METRIC
T1C0.300
T2C0.400
T3C0.500
T4C0.900
T5C1.300
T6C1.400
T7C1.900
T8C2.700
%
G90
G05
T1
X45.08Y-138.32
X46.33Y-139.77
X53.358Y-160.51
X56.2Y-159.35
X56.2Y-159.9
X56.2Y-160.55
X56.2Y-161.35
X56.98Y-112.59
X58.14Y-112.62
X61.32Y-108.7
X62.26Y-108.71
X62.39Y-102.93
X63.19Y-108.72
X63.33Y-102.91
X64.13Y-102.85
X66.05Y-135.75
X67.15Y-135.8
X68.1Y-136.15
X71.35Y-135.8
X71.55Y-130.1
X72.75Y-130.1
X72.85Y-135.75
X72.95Y-140.05
X77.65Y-131.55
X79.1Y-131.55
X84.727Y-162.796
X85.35Y-158.9
X87.4Y-161.55
X87.4Y-162.2
X87.4Y-162.8
X87.4Y-163.4
X87.4Y-164.15
X89.72Y-100.17
X90.06Y-99.03
X91.3Y-98.71
X92.55Y-99.02
X92.95Y-100.2
X102.14Y-111.5
X103.41Y-110.5
X82.927Y-162.196
X82.927Y-163.396
X84.127Y-162.196
X84.127Y-163.396
X85.427Y-162.196
X85.427Y-163.396
X86.527Y-162.196
X86.527Y-163.396
X71.539Y-131.209
X71.539Y-132.409
X71.539Y-133.709
X71.539Y-134.809
X72.739Y-131.209
X72.739Y-132.409
X72.739Y-133.709
X72.739Y-134.809
X62.026Y-104.2
X62.026Y-105.4
X62.026Y-106.7
X62.026Y-107.8
X63.226Y-104.2
X63.226Y-105.4
X63.226Y-106.7
X63.226Y-107.8
X51.558Y-159.91
X51.558Y-161.11
X52.758Y-159.91
X52.758Y-161.11
X54.058Y-159.91
X54.058Y-161.11
X55.158Y-159.91
X55.158Y-161.11
T2
X37.52Y-185.18
X58.92Y-113.52
X60.35Y-114.1
X65.82Y-114.15
X67.24Y-114.06
X67.35Y-104.32
X67.45Y-192.85
X68.85Y-191.55
X69.11Y-104.32
X89.2Y-193.15
X90.75Y-191.65
T3
X97.035Y-190.5
X97.628Y-189.068
X97.628Y-191.932
X99.06Y-188.475
X99.06Y-192.525
X100.492Y-189.068
X100.492Y-191.932
X101.085Y-190.5
X41.155Y-91.44
X41.748Y-90.008
X41.748Y-92.872
X43.18Y-89.415
X43.18Y-93.465
X44.612Y-90.008
X44.612Y-92.872
X45.205Y-91.44
X41.155Y-190.5
X41.748Y-189.068
X41.748Y-191.932
X43.18Y-188.475
X43.18Y-192.525
X44.612Y-189.068
X44.612Y-191.932
X45.205Y-190.5
X97.035Y-91.44
X97.628Y-90.008
X97.628Y-92.872
X99.06Y-89.415
X99.06Y-93.465
X100.492Y-90.008
X100.492Y-92.872
X101.085Y-91.44
T4
X35.0Y-94.0
X35.0Y-101.0
X35.0Y-104.0
X35.0Y-110.0
X35.0Y-114.0
X35.0Y-157.0
X35.0Y-165.0
X35.0Y-172.0
X36.0Y-85.0
X36.0Y-88.0
X36.0Y-108.0
X36.0Y-117.0
X36.0Y-149.0
X36.0Y-154.0
X36.0Y-161.0
X36.0Y-169.0
X36.0Y-178.0
X36.0Y-181.0
X36.0Y-191.0
X37.0Y-92.0
X37.0Y-97.0
X37.0Y-125.0
X37.0Y-144.0
X37.0Y-159.0
X37.0Y-174.0
X37.0Y-188.0
X38.0Y-102.0
X38.0Y-106.0
X38.0Y-110.0
X38.0Y-114.0
X38.0Y-132.0
X38.0Y-138.0
X38.0Y-162.0
X38.0Y-165.0
X38.0Y-194.0
X39.0Y-95.0
X39.0Y-100.0
X39.0Y-120.0
X39.0Y-168.0
X39.0Y-172.0
X39.0Y-181.0
X40.0Y-88.0
X40.0Y-104.0
X40.0Y-110.0
X40.0Y-117.0
X40.0Y-124.0
X40.0Y-127.0
X40.0Y-155.0
X40.0Y-176.0
X40.0Y-184.0
X41.0Y-97.0
X41.0Y-141.0
X41.0Y-178.0
X42.0Y-86.0
X42.0Y-155.0
X42.0Y-181.0
X42.4Y-132.67
X43.0Y-196.0
X44.0Y-96.0
X44.0Y-118.0
X44.0Y-186.0
X45.0Y-146.0
X45.0Y-153.0
X46.0Y-88.0
X46.0Y-181.0
X46.0Y-184.0
X47.0Y-142.0
X47.0Y-149.0
X48.0Y-90.0
X48.0Y-94.0
X48.0Y-153.0
X48.0Y-184.0
X48.0Y-187.0
X48.0Y-194.0
X48.514Y-107.632
X49.0Y-170.0
X49.0Y-173.0
X49.0Y-175.0
X49.0Y-178.0
X49.0Y-181.0
X49.0Y-191.0
X50.0Y-144.0
X51.0Y-87.0
X51.0Y-90.0
X51.0Y-113.0
X51.0Y-170.0
X51.0Y-173.0
X51.0Y-175.0
X51.0Y-178.0
X51.0Y-187.0
X52.0Y-142.0
X52.0Y-145.0
X52.0Y-181.0
X52.0Y-184.0
X53.0Y-194.0
X54.0Y-86.0
X54.0Y-134.0
X54.0Y-139.0
X54.0Y-142.0
X54.0Y-156.4
X55.0Y-94.0
X55.0Y-144.0
X56.0Y-141.0
X57.0Y-195.0
X57.65Y-162.05
X58.0Y-141.0
X61.15Y-163.15
X61.2Y-161.0
X62.738Y-188.212
X62.75Y-181.0
X62.75Y-184.4
X63.0Y-86.0
X63.0Y-117.0
X64.0Y-125.0
X64.0Y-128.0
X64.0Y-157.0
X64.3Y-182.7
X65.0Y-116.0
X66.0Y-87.0
X66.0Y-130.0
X68.0Y-117.0
X68.0Y-125.0
X68.0Y-161.0
X68.0Y-196.0
X69.0Y-120.0
X69.0Y-148.0
X69.0Y-154.0
X70.0Y-97.0
X70.0Y-159.0
X70.0Y-166.0
X71.0Y-185.0
X71.0Y-194.0
X71.85Y-188.15
X72.0Y-86.0
X72.0Y-173.0
X72.0Y-179.0
X73.0Y-91.0
X73.0Y-193.0
X73.742Y-150.731
X73.9Y-190.0
X74.0Y-195.0
X76.0Y-87.0
X76.0Y-195.0
X77.0Y-150.0
X78.0Y-96.0
X80.0Y-148.0
X80.0Y-153.0
X80.1Y-138.4
X80.95Y-136.75
X81.0Y-195.0
X82.0Y-87.0
X83.0Y-174.0
X83.0Y-196.0
X83.06Y-114.5
X84.0Y-117.0
X84.0Y-120.0
X84.0Y-122.0
X84.87Y-112.82
X85.0Y-91.0
X86.0Y-124.0
X86.0Y-196.0
X87.0Y-89.0
X87.0Y-111.0
X88.0Y-109.0
X88.0Y-122.0
X89.0Y-87.0
X89.0Y-94.0
X89.0Y-196.0
X90.0Y-122.0
X90.0Y-173.0
X90.6Y-163.2
X90.6Y-164.55
X90.65Y-162.05
X91.0Y-154.0
X92.0Y-85.0
X92.0Y-92.0
X92.0Y-108.0
X92.0Y-159.0
X92.0Y-183.0
X93.0Y-96.0
X93.0Y-112.0
X93.0Y-123.0
X93.0Y-156.0
X93.0Y-188.0
X93.0Y-196.0
X94.0Y-89.0
X94.0Y-100.0
X94.0Y-182.0
X94.0Y-192.0
X95.0Y-97.0
X95.0Y-143.0
X96.0Y-112.0
X96.0Y-159.0
X96.0Y-173.0
X96.0Y-185.0
X97.0Y-164.0
X97.0Y-166.0
X97.0Y-182.0
X98.0Y-86.0
X98.0Y-115.0
X98.0Y-138.0
X98.0Y-162.0
X98.0Y-179.0
X98.0Y-196.0
X99.0Y-142.0
X99.0Y-147.0
X99.0Y-157.0
X99.0Y-172.0
X99.0Y-182.0
X99.0Y-185.0
X100.0Y-160.0
X100.0Y-163.0
X100.0Y-166.0
X100.0Y-195.0
X101.0Y-95.0
X101.0Y-118.0
X101.0Y-125.0
X101.0Y-128.0
X101.0Y-132.0
X101.0Y-137.0
X101.0Y-174.0
X101.0Y-176.0
X102.0Y-107.0
X102.0Y-114.0
X102.0Y-121.0
X102.0Y-145.0
X102.0Y-180.0
X103.0Y-128.0
X103.0Y-140.0
X103.0Y-150.0
X103.0Y-154.0
X103.0Y-158.0
X103.0Y-162.0
X103.0Y-169.0
X103.0Y-185.0
X104.0Y-87.0
X104.0Y-91.0
X104.0Y-97.0
X104.0Y-100.0
X104.0Y-124.0
X104.0Y-145.0
X104.0Y-165.0
X104.0Y-171.0
X104.0Y-174.0
X104.0Y-182.0
X104.0Y-188.0
X104.0Y-195.0
X105.0Y-105.0
X105.0Y-118.0
X105.0Y-133.0
X105.0Y-177.0
X105.0Y-191.0
T5
X78.74Y-191.516
X83.82Y-191.516
X45.79Y-127.59
X45.79Y-132.67
X99.06Y-99.06
X99.06Y-104.14
X57.658Y-191.516
X62.738Y-191.516
T6
X78.65Y-169.05
T7
X39.066Y-149.334
X42.31Y-146.81
X42.31Y-151.99
X46.75Y-162.25
X46.75Y-167.5
X48.51Y-104.17
X48.52Y-111.06
X51.56Y-104.41
X54.99Y-89.55
X56.4Y-135.35
X58.42Y-86.15
X58.42Y-92.83
X59.3Y-132.0
X59.3Y-138.55
X61.44Y-89.57
X64.0Y-152.0
X64.0Y-163.05
X64.0Y-170.7
X64.11Y-94.01
X67.0Y-167.7
X67.73Y-90.36
X71.16Y-93.97
X73.44Y-111.98
X73.45Y-118.2
X73.46Y-105.25
X73.5Y-123.55
X73.75Y-153.5
X76.4Y-118.2
X76.45Y-123.55
X76.66Y-110.91
X77.18Y-105.53
X78.25Y-163.75
X79.6Y-118.3
X84.8Y-132.65
X84.8Y-138.3
X91.5Y-169.2
X94.5Y-165.45
X95.55Y-147.3
X95.55Y-153.75
X98.35Y-169.2
X99.3Y-150.75
T8
X99.06Y-190.5
X43.18Y-91.44
X43.18Y-190.5
X99.06Y-91.44
T0
M30
