%TF.GenerationSoftware,KiCad,Pcbnew,(5.1.6)-1*%
%TF.CreationDate,2021-04-02T17:33:40+02:00*%
%TF.ProjectId,48-24,34382d32-342e-46b6-9963-61645f706362,rev?*%
%TF.SameCoordinates,Original*%
%TF.FileFunction,Copper,L1,Top*%
%TF.FilePolarity,Positive*%
%FSLAX46Y46*%
G04 Gerber Fmt 4.6, Leading zero omitted, Abs format (unit mm)*
G04 Created by KiCad (PCBNEW (5.1.6)-1) date 2021-04-02 17:33:40*
%MOMM*%
%LPD*%
G01*
G04 APERTURE LIST*
%TA.AperFunction,ComponentPad*%
%ADD10C,3.800000*%
%TD*%
%TA.AperFunction,ViaPad*%
%ADD11C,0.600000*%
%TD*%
%TA.AperFunction,SMDPad,CuDef*%
%ADD12R,1.550000X0.600000*%
%TD*%
%TA.AperFunction,Conductor*%
%ADD13R,2.950000X4.500000*%
%TD*%
%TA.AperFunction,SMDPad,CuDef*%
%ADD14R,2.600000X3.100000*%
%TD*%
%TA.AperFunction,SMDPad,CuDef*%
%ADD15R,5.400000X2.900000*%
%TD*%
%TA.AperFunction,SMDPad,CuDef*%
%ADD16R,3.300000X2.500000*%
%TD*%
%TA.AperFunction,SMDPad,CuDef*%
%ADD17R,2.500000X3.300000*%
%TD*%
%TA.AperFunction,ViaPad*%
%ADD18C,0.800000*%
%TD*%
%TA.AperFunction,Conductor*%
%ADD19C,0.500000*%
%TD*%
%TA.AperFunction,Conductor*%
%ADD20C,0.750000*%
%TD*%
%TA.AperFunction,Conductor*%
%ADD21C,0.254000*%
%TD*%
G04 APERTURE END LIST*
D10*
%TO.P,H2,1*%
%TO.N,GND*%
X46850000Y-160150000D03*
%TD*%
%TO.P,H1,1*%
%TO.N,+48V*%
X46850000Y-141750000D03*
%TD*%
%TO.P,J16,1*%
%TO.N,+24V*%
%TA.AperFunction,SMDPad,CuDef*%
G36*
G01*
X87100000Y-137900000D02*
X87100000Y-135900000D01*
G75*
G02*
X87600000Y-135400000I500000J0D01*
G01*
X88600000Y-135400000D01*
G75*
G02*
X89100000Y-135900000I0J-500000D01*
G01*
X89100000Y-137900000D01*
G75*
G02*
X88600000Y-138400000I-500000J0D01*
G01*
X87600000Y-138400000D01*
G75*
G02*
X87100000Y-137900000I0J500000D01*
G01*
G37*
%TD.AperFunction*%
%TD*%
%TO.P,J15,1*%
%TO.N,+24V*%
%TA.AperFunction,SMDPad,CuDef*%
G36*
G01*
X93100000Y-138000000D02*
X93100000Y-136000000D01*
G75*
G02*
X93600000Y-135500000I500000J0D01*
G01*
X94600000Y-135500000D01*
G75*
G02*
X95100000Y-136000000I0J-500000D01*
G01*
X95100000Y-138000000D01*
G75*
G02*
X94600000Y-138500000I-500000J0D01*
G01*
X93600000Y-138500000D01*
G75*
G02*
X93100000Y-138000000I0J500000D01*
G01*
G37*
%TD.AperFunction*%
%TD*%
%TO.P,J14,1*%
%TO.N,+24V*%
%TA.AperFunction,SMDPad,CuDef*%
G36*
G01*
X81200000Y-137890000D02*
X81200000Y-135890000D01*
G75*
G02*
X81700000Y-135390000I500000J0D01*
G01*
X82700000Y-135390000D01*
G75*
G02*
X83200000Y-135890000I0J-500000D01*
G01*
X83200000Y-137890000D01*
G75*
G02*
X82700000Y-138390000I-500000J0D01*
G01*
X81700000Y-138390000D01*
G75*
G02*
X81200000Y-137890000I0J500000D01*
G01*
G37*
%TD.AperFunction*%
%TD*%
%TO.P,J13,1*%
%TO.N,+24V*%
%TA.AperFunction,SMDPad,CuDef*%
G36*
G01*
X75650000Y-137900000D02*
X75650000Y-135900000D01*
G75*
G02*
X76150000Y-135400000I500000J0D01*
G01*
X77150000Y-135400000D01*
G75*
G02*
X77650000Y-135900000I0J-500000D01*
G01*
X77650000Y-137900000D01*
G75*
G02*
X77150000Y-138400000I-500000J0D01*
G01*
X76150000Y-138400000D01*
G75*
G02*
X75650000Y-137900000I0J500000D01*
G01*
G37*
%TD.AperFunction*%
%TD*%
%TO.P,J12,1*%
%TO.N,+12V*%
%TA.AperFunction,SMDPad,CuDef*%
G36*
G01*
X69150000Y-179750000D02*
X69150000Y-177750000D01*
G75*
G02*
X69650000Y-177250000I500000J0D01*
G01*
X70650000Y-177250000D01*
G75*
G02*
X71150000Y-177750000I0J-500000D01*
G01*
X71150000Y-179750000D01*
G75*
G02*
X70650000Y-180250000I-500000J0D01*
G01*
X69650000Y-180250000D01*
G75*
G02*
X69150000Y-179750000I0J500000D01*
G01*
G37*
%TD.AperFunction*%
%TD*%
%TO.P,J11,1*%
%TO.N,+12V*%
%TA.AperFunction,SMDPad,CuDef*%
G36*
G01*
X53950000Y-179750000D02*
X53950000Y-177750000D01*
G75*
G02*
X54450000Y-177250000I500000J0D01*
G01*
X55450000Y-177250000D01*
G75*
G02*
X55950000Y-177750000I0J-500000D01*
G01*
X55950000Y-179750000D01*
G75*
G02*
X55450000Y-180250000I-500000J0D01*
G01*
X54450000Y-180250000D01*
G75*
G02*
X53950000Y-179750000I0J500000D01*
G01*
G37*
%TD.AperFunction*%
%TD*%
%TO.P,J10,1*%
%TO.N,+12V*%
%TA.AperFunction,SMDPad,CuDef*%
G36*
G01*
X58950000Y-179750000D02*
X58950000Y-177750000D01*
G75*
G02*
X59450000Y-177250000I500000J0D01*
G01*
X60450000Y-177250000D01*
G75*
G02*
X60950000Y-177750000I0J-500000D01*
G01*
X60950000Y-179750000D01*
G75*
G02*
X60450000Y-180250000I-500000J0D01*
G01*
X59450000Y-180250000D01*
G75*
G02*
X58950000Y-179750000I0J500000D01*
G01*
G37*
%TD.AperFunction*%
%TD*%
%TO.P,J9,1*%
%TO.N,+12V*%
%TA.AperFunction,SMDPad,CuDef*%
G36*
G01*
X63950000Y-179750000D02*
X63950000Y-177750000D01*
G75*
G02*
X64450000Y-177250000I500000J0D01*
G01*
X65450000Y-177250000D01*
G75*
G02*
X65950000Y-177750000I0J-500000D01*
G01*
X65950000Y-179750000D01*
G75*
G02*
X65450000Y-180250000I-500000J0D01*
G01*
X64450000Y-180250000D01*
G75*
G02*
X63950000Y-179750000I0J500000D01*
G01*
G37*
%TD.AperFunction*%
%TD*%
%TO.P,C17,2*%
%TO.N,GND*%
%TA.AperFunction,SMDPad,CuDef*%
G36*
G01*
X93100000Y-165650000D02*
X91100000Y-165650000D01*
G75*
G02*
X90850000Y-165400000I0J250000D01*
G01*
X90850000Y-161900000D01*
G75*
G02*
X91100000Y-161650000I250000J0D01*
G01*
X93100000Y-161650000D01*
G75*
G02*
X93350000Y-161900000I0J-250000D01*
G01*
X93350000Y-165400000D01*
G75*
G02*
X93100000Y-165650000I-250000J0D01*
G01*
G37*
%TD.AperFunction*%
%TO.P,C17,1*%
%TO.N,+24V*%
%TA.AperFunction,SMDPad,CuDef*%
G36*
G01*
X93100000Y-173650000D02*
X91100000Y-173650000D01*
G75*
G02*
X90850000Y-173400000I0J250000D01*
G01*
X90850000Y-169900000D01*
G75*
G02*
X91100000Y-169650000I250000J0D01*
G01*
X93100000Y-169650000D01*
G75*
G02*
X93350000Y-169900000I0J-250000D01*
G01*
X93350000Y-173400000D01*
G75*
G02*
X93100000Y-173650000I-250000J0D01*
G01*
G37*
%TD.AperFunction*%
%TD*%
%TO.P,C5,2*%
%TO.N,GND*%
%TA.AperFunction,SMDPad,CuDef*%
G36*
G01*
X48300000Y-153148000D02*
X50300000Y-153148000D01*
G75*
G02*
X50550000Y-153398000I0J-250000D01*
G01*
X50550000Y-156898000D01*
G75*
G02*
X50300000Y-157148000I-250000J0D01*
G01*
X48300000Y-157148000D01*
G75*
G02*
X48050000Y-156898000I0J250000D01*
G01*
X48050000Y-153398000D01*
G75*
G02*
X48300000Y-153148000I250000J0D01*
G01*
G37*
%TD.AperFunction*%
%TO.P,C5,1*%
%TO.N,+48V*%
%TA.AperFunction,SMDPad,CuDef*%
G36*
G01*
X48300000Y-145148000D02*
X50300000Y-145148000D01*
G75*
G02*
X50550000Y-145398000I0J-250000D01*
G01*
X50550000Y-148898000D01*
G75*
G02*
X50300000Y-149148000I-250000J0D01*
G01*
X48300000Y-149148000D01*
G75*
G02*
X48050000Y-148898000I0J250000D01*
G01*
X48050000Y-145398000D01*
G75*
G02*
X48300000Y-145148000I250000J0D01*
G01*
G37*
%TD.AperFunction*%
%TD*%
D11*
%TO.N,GND*%
%TO.C,U2*%
X62739000Y-154609000D03*
X62739000Y-153509000D03*
X61539000Y-153509000D03*
X61539000Y-154609000D03*
X62739000Y-151009000D03*
X62739000Y-152209000D03*
X61539000Y-152209000D03*
X61539000Y-151009000D03*
D12*
%TD*%
%TO.P,U2,8*%
%TO.N,Net-(C2-Pad1)*%
X64839000Y-150904000D03*
%TO.P,U2,7*%
%TO.N,GND*%
X64839000Y-152174000D03*
%TO.P,U2,6*%
%TO.N,Net-(C12-Pad2)*%
X64839000Y-153444000D03*
%TO.P,U2,5*%
%TO.N,FB_24*%
X64839000Y-154714000D03*
%TO.P,U2,4*%
%TO.N,Net-(R8-Pad1)*%
X59439000Y-154714000D03*
%TO.P,U2,3*%
%TO.N,Net-(R2-Pad2)*%
X59439000Y-153444000D03*
%TO.P,U2,2*%
%TO.N,+48V*%
X59439000Y-152174000D03*
%TO.P,U2,1*%
%TO.N,Net-(C2-Pad2)*%
X59439000Y-150904000D03*
D13*
%TD*%
%TO.N,GND*%
%TO.C,U2*%
X62139000Y-152809000D03*
D14*
%TO.P,U2,9*%
%TO.N,GND*%
X62139000Y-152809000D03*
%TD*%
D15*
%TO.P,L2,1*%
%TO.N,Net-(C2-Pad1)*%
X79900000Y-146550000D03*
%TO.P,L2,2*%
%TO.N,+24V*%
X79900000Y-156450000D03*
%TD*%
%TO.P,C2,1*%
%TO.N,Net-(C2-Pad1)*%
%TA.AperFunction,SMDPad,CuDef*%
G36*
G01*
X61800000Y-148151750D02*
X61800000Y-149064250D01*
G75*
G02*
X61556250Y-149308000I-243750J0D01*
G01*
X61068750Y-149308000D01*
G75*
G02*
X60825000Y-149064250I0J243750D01*
G01*
X60825000Y-148151750D01*
G75*
G02*
X61068750Y-147908000I243750J0D01*
G01*
X61556250Y-147908000D01*
G75*
G02*
X61800000Y-148151750I0J-243750D01*
G01*
G37*
%TD.AperFunction*%
%TO.P,C2,2*%
%TO.N,Net-(C2-Pad2)*%
%TA.AperFunction,SMDPad,CuDef*%
G36*
G01*
X59925000Y-148151750D02*
X59925000Y-149064250D01*
G75*
G02*
X59681250Y-149308000I-243750J0D01*
G01*
X59193750Y-149308000D01*
G75*
G02*
X58950000Y-149064250I0J243750D01*
G01*
X58950000Y-148151750D01*
G75*
G02*
X59193750Y-147908000I243750J0D01*
G01*
X59681250Y-147908000D01*
G75*
G02*
X59925000Y-148151750I0J-243750D01*
G01*
G37*
%TD.AperFunction*%
%TD*%
%TO.P,C6,1*%
%TO.N,+48V*%
%TA.AperFunction,SMDPad,CuDef*%
G36*
G01*
X53472000Y-141988000D02*
X53472000Y-139988000D01*
G75*
G02*
X53722000Y-139738000I250000J0D01*
G01*
X57222000Y-139738000D01*
G75*
G02*
X57472000Y-139988000I0J-250000D01*
G01*
X57472000Y-141988000D01*
G75*
G02*
X57222000Y-142238000I-250000J0D01*
G01*
X53722000Y-142238000D01*
G75*
G02*
X53472000Y-141988000I0J250000D01*
G01*
G37*
%TD.AperFunction*%
%TO.P,C6,2*%
%TO.N,GND*%
%TA.AperFunction,SMDPad,CuDef*%
G36*
G01*
X61472000Y-141988000D02*
X61472000Y-139988000D01*
G75*
G02*
X61722000Y-139738000I250000J0D01*
G01*
X65222000Y-139738000D01*
G75*
G02*
X65472000Y-139988000I0J-250000D01*
G01*
X65472000Y-141988000D01*
G75*
G02*
X65222000Y-142238000I-250000J0D01*
G01*
X61722000Y-142238000D01*
G75*
G02*
X61472000Y-141988000I0J250000D01*
G01*
G37*
%TD.AperFunction*%
%TD*%
%TO.P,C8,2*%
%TO.N,+24V*%
%TA.AperFunction,SMDPad,CuDef*%
G36*
G01*
X88275000Y-143825000D02*
X88275000Y-145075000D01*
G75*
G02*
X88025000Y-145325000I-250000J0D01*
G01*
X87100000Y-145325000D01*
G75*
G02*
X86850000Y-145075000I0J250000D01*
G01*
X86850000Y-143825000D01*
G75*
G02*
X87100000Y-143575000I250000J0D01*
G01*
X88025000Y-143575000D01*
G75*
G02*
X88275000Y-143825000I0J-250000D01*
G01*
G37*
%TD.AperFunction*%
%TO.P,C8,1*%
%TO.N,GND*%
%TA.AperFunction,SMDPad,CuDef*%
G36*
G01*
X91250000Y-143825000D02*
X91250000Y-145075000D01*
G75*
G02*
X91000000Y-145325000I-250000J0D01*
G01*
X90075000Y-145325000D01*
G75*
G02*
X89825000Y-145075000I0J250000D01*
G01*
X89825000Y-143825000D01*
G75*
G02*
X90075000Y-143575000I250000J0D01*
G01*
X91000000Y-143575000D01*
G75*
G02*
X91250000Y-143825000I0J-250000D01*
G01*
G37*
%TD.AperFunction*%
%TD*%
%TO.P,C10,2*%
%TO.N,GND*%
%TA.AperFunction,SMDPad,CuDef*%
G36*
G01*
X93200000Y-150500000D02*
X91200000Y-150500000D01*
G75*
G02*
X90950000Y-150250000I0J250000D01*
G01*
X90950000Y-146750000D01*
G75*
G02*
X91200000Y-146500000I250000J0D01*
G01*
X93200000Y-146500000D01*
G75*
G02*
X93450000Y-146750000I0J-250000D01*
G01*
X93450000Y-150250000D01*
G75*
G02*
X93200000Y-150500000I-250000J0D01*
G01*
G37*
%TD.AperFunction*%
%TO.P,C10,1*%
%TO.N,+24V*%
%TA.AperFunction,SMDPad,CuDef*%
G36*
G01*
X93200000Y-158500000D02*
X91200000Y-158500000D01*
G75*
G02*
X90950000Y-158250000I0J250000D01*
G01*
X90950000Y-154750000D01*
G75*
G02*
X91200000Y-154500000I250000J0D01*
G01*
X93200000Y-154500000D01*
G75*
G02*
X93450000Y-154750000I0J-250000D01*
G01*
X93450000Y-158250000D01*
G75*
G02*
X93200000Y-158500000I-250000J0D01*
G01*
G37*
%TD.AperFunction*%
%TD*%
%TO.P,C12,2*%
%TO.N,Net-(C12-Pad2)*%
%TA.AperFunction,SMDPad,CuDef*%
G36*
G01*
X66919500Y-152862000D02*
X67264500Y-152862000D01*
G75*
G02*
X67412000Y-153009500I0J-147500D01*
G01*
X67412000Y-153304500D01*
G75*
G02*
X67264500Y-153452000I-147500J0D01*
G01*
X66919500Y-153452000D01*
G75*
G02*
X66772000Y-153304500I0J147500D01*
G01*
X66772000Y-153009500D01*
G75*
G02*
X66919500Y-152862000I147500J0D01*
G01*
G37*
%TD.AperFunction*%
%TO.P,C12,1*%
%TO.N,GND*%
%TA.AperFunction,SMDPad,CuDef*%
G36*
G01*
X66919500Y-151892000D02*
X67264500Y-151892000D01*
G75*
G02*
X67412000Y-152039500I0J-147500D01*
G01*
X67412000Y-152334500D01*
G75*
G02*
X67264500Y-152482000I-147500J0D01*
G01*
X66919500Y-152482000D01*
G75*
G02*
X66772000Y-152334500I0J147500D01*
G01*
X66772000Y-152039500D01*
G75*
G02*
X66919500Y-151892000I147500J0D01*
G01*
G37*
%TD.AperFunction*%
%TD*%
%TO.P,C14,1*%
%TO.N,GND*%
%TA.AperFunction,SMDPad,CuDef*%
G36*
G01*
X68935500Y-151909000D02*
X69280500Y-151909000D01*
G75*
G02*
X69428000Y-152056500I0J-147500D01*
G01*
X69428000Y-152351500D01*
G75*
G02*
X69280500Y-152499000I-147500J0D01*
G01*
X68935500Y-152499000D01*
G75*
G02*
X68788000Y-152351500I0J147500D01*
G01*
X68788000Y-152056500D01*
G75*
G02*
X68935500Y-151909000I147500J0D01*
G01*
G37*
%TD.AperFunction*%
%TO.P,C14,2*%
%TO.N,Net-(C14-Pad2)*%
%TA.AperFunction,SMDPad,CuDef*%
G36*
G01*
X68935500Y-152879000D02*
X69280500Y-152879000D01*
G75*
G02*
X69428000Y-153026500I0J-147500D01*
G01*
X69428000Y-153321500D01*
G75*
G02*
X69280500Y-153469000I-147500J0D01*
G01*
X68935500Y-153469000D01*
G75*
G02*
X68788000Y-153321500I0J147500D01*
G01*
X68788000Y-153026500D01*
G75*
G02*
X68935500Y-152879000I147500J0D01*
G01*
G37*
%TD.AperFunction*%
%TD*%
%TO.P,C15,2*%
%TO.N,Net-(C15-Pad2)*%
%TA.AperFunction,SMDPad,CuDef*%
G36*
G01*
X78050000Y-167563750D02*
X78050000Y-168476250D01*
G75*
G02*
X77806250Y-168720000I-243750J0D01*
G01*
X77318750Y-168720000D01*
G75*
G02*
X77075000Y-168476250I0J243750D01*
G01*
X77075000Y-167563750D01*
G75*
G02*
X77318750Y-167320000I243750J0D01*
G01*
X77806250Y-167320000D01*
G75*
G02*
X78050000Y-167563750I0J-243750D01*
G01*
G37*
%TD.AperFunction*%
%TO.P,C15,1*%
%TO.N,Net-(C15-Pad1)*%
%TA.AperFunction,SMDPad,CuDef*%
G36*
G01*
X79925000Y-167563750D02*
X79925000Y-168476250D01*
G75*
G02*
X79681250Y-168720000I-243750J0D01*
G01*
X79193750Y-168720000D01*
G75*
G02*
X78950000Y-168476250I0J243750D01*
G01*
X78950000Y-167563750D01*
G75*
G02*
X79193750Y-167320000I243750J0D01*
G01*
X79681250Y-167320000D01*
G75*
G02*
X79925000Y-167563750I0J-243750D01*
G01*
G37*
%TD.AperFunction*%
%TD*%
%TO.P,C18,2*%
%TO.N,+12V*%
%TA.AperFunction,SMDPad,CuDef*%
G36*
G01*
X75425000Y-178125000D02*
X75425000Y-179375000D01*
G75*
G02*
X75175000Y-179625000I-250000J0D01*
G01*
X74425000Y-179625000D01*
G75*
G02*
X74175000Y-179375000I0J250000D01*
G01*
X74175000Y-178125000D01*
G75*
G02*
X74425000Y-177875000I250000J0D01*
G01*
X75175000Y-177875000D01*
G75*
G02*
X75425000Y-178125000I0J-250000D01*
G01*
G37*
%TD.AperFunction*%
%TO.P,C18,1*%
%TO.N,GND*%
%TA.AperFunction,SMDPad,CuDef*%
G36*
G01*
X78225000Y-178125000D02*
X78225000Y-179375000D01*
G75*
G02*
X77975000Y-179625000I-250000J0D01*
G01*
X77225000Y-179625000D01*
G75*
G02*
X76975000Y-179375000I0J250000D01*
G01*
X76975000Y-178125000D01*
G75*
G02*
X77225000Y-177875000I250000J0D01*
G01*
X77975000Y-177875000D01*
G75*
G02*
X78225000Y-178125000I0J-250000D01*
G01*
G37*
%TD.AperFunction*%
%TD*%
%TO.P,C19,2*%
%TO.N,GND*%
%TA.AperFunction,SMDPad,CuDef*%
G36*
G01*
X57900000Y-166550000D02*
X55900000Y-166550000D01*
G75*
G02*
X55650000Y-166300000I0J250000D01*
G01*
X55650000Y-162800000D01*
G75*
G02*
X55900000Y-162550000I250000J0D01*
G01*
X57900000Y-162550000D01*
G75*
G02*
X58150000Y-162800000I0J-250000D01*
G01*
X58150000Y-166300000D01*
G75*
G02*
X57900000Y-166550000I-250000J0D01*
G01*
G37*
%TD.AperFunction*%
%TO.P,C19,1*%
%TO.N,+12V*%
%TA.AperFunction,SMDPad,CuDef*%
G36*
G01*
X57900000Y-174550000D02*
X55900000Y-174550000D01*
G75*
G02*
X55650000Y-174300000I0J250000D01*
G01*
X55650000Y-170800000D01*
G75*
G02*
X55900000Y-170550000I250000J0D01*
G01*
X57900000Y-170550000D01*
G75*
G02*
X58150000Y-170800000I0J-250000D01*
G01*
X58150000Y-174300000D01*
G75*
G02*
X57900000Y-174550000I-250000J0D01*
G01*
G37*
%TD.AperFunction*%
%TD*%
D16*
%TO.P,D2,1*%
%TO.N,Net-(C2-Pad1)*%
X69632000Y-147944000D03*
%TO.P,D2,2*%
%TO.N,GND*%
X69632000Y-141144000D03*
%TD*%
%TO.P,D3,1*%
%TO.N,Net-(D3-Pad1)*%
%TA.AperFunction,SMDPad,CuDef*%
G36*
G01*
X53955000Y-160193750D02*
X53955000Y-160706250D01*
G75*
G02*
X53736250Y-160925000I-218750J0D01*
G01*
X53298750Y-160925000D01*
G75*
G02*
X53080000Y-160706250I0J218750D01*
G01*
X53080000Y-160193750D01*
G75*
G02*
X53298750Y-159975000I218750J0D01*
G01*
X53736250Y-159975000D01*
G75*
G02*
X53955000Y-160193750I0J-218750D01*
G01*
G37*
%TD.AperFunction*%
%TO.P,D3,2*%
%TO.N,+48V*%
%TA.AperFunction,SMDPad,CuDef*%
G36*
G01*
X52380000Y-160193750D02*
X52380000Y-160706250D01*
G75*
G02*
X52161250Y-160925000I-218750J0D01*
G01*
X51723750Y-160925000D01*
G75*
G02*
X51505000Y-160706250I0J218750D01*
G01*
X51505000Y-160193750D01*
G75*
G02*
X51723750Y-159975000I218750J0D01*
G01*
X52161250Y-159975000D01*
G75*
G02*
X52380000Y-160193750I0J-218750D01*
G01*
G37*
%TD.AperFunction*%
%TD*%
D17*
%TO.P,D4,1*%
%TO.N,Net-(C15-Pad1)*%
X78100000Y-163550000D03*
%TO.P,D4,2*%
%TO.N,GND*%
X84900000Y-163550000D03*
%TD*%
%TO.P,D5,2*%
%TO.N,+24V*%
%TA.AperFunction,SMDPad,CuDef*%
G36*
G01*
X98293750Y-153687500D02*
X99206250Y-153687500D01*
G75*
G02*
X99450000Y-153931250I0J-243750D01*
G01*
X99450000Y-154418750D01*
G75*
G02*
X99206250Y-154662500I-243750J0D01*
G01*
X98293750Y-154662500D01*
G75*
G02*
X98050000Y-154418750I0J243750D01*
G01*
X98050000Y-153931250D01*
G75*
G02*
X98293750Y-153687500I243750J0D01*
G01*
G37*
%TD.AperFunction*%
%TO.P,D5,1*%
%TO.N,Net-(D5-Pad1)*%
%TA.AperFunction,SMDPad,CuDef*%
G36*
G01*
X98293750Y-151812500D02*
X99206250Y-151812500D01*
G75*
G02*
X99450000Y-152056250I0J-243750D01*
G01*
X99450000Y-152543750D01*
G75*
G02*
X99206250Y-152787500I-243750J0D01*
G01*
X98293750Y-152787500D01*
G75*
G02*
X98050000Y-152543750I0J243750D01*
G01*
X98050000Y-152056250D01*
G75*
G02*
X98293750Y-151812500I243750J0D01*
G01*
G37*
%TD.AperFunction*%
%TD*%
%TO.P,D6,1*%
%TO.N,Net-(D6-Pad1)*%
%TA.AperFunction,SMDPad,CuDef*%
G36*
G01*
X49193750Y-170225000D02*
X50106250Y-170225000D01*
G75*
G02*
X50350000Y-170468750I0J-243750D01*
G01*
X50350000Y-170956250D01*
G75*
G02*
X50106250Y-171200000I-243750J0D01*
G01*
X49193750Y-171200000D01*
G75*
G02*
X48950000Y-170956250I0J243750D01*
G01*
X48950000Y-170468750D01*
G75*
G02*
X49193750Y-170225000I243750J0D01*
G01*
G37*
%TD.AperFunction*%
%TO.P,D6,2*%
%TO.N,+12V*%
%TA.AperFunction,SMDPad,CuDef*%
G36*
G01*
X49193750Y-172100000D02*
X50106250Y-172100000D01*
G75*
G02*
X50350000Y-172343750I0J-243750D01*
G01*
X50350000Y-172831250D01*
G75*
G02*
X50106250Y-173075000I-243750J0D01*
G01*
X49193750Y-173075000D01*
G75*
G02*
X48950000Y-172831250I0J243750D01*
G01*
X48950000Y-172343750D01*
G75*
G02*
X49193750Y-172100000I243750J0D01*
G01*
G37*
%TD.AperFunction*%
%TD*%
D15*
%TO.P,L3,1*%
%TO.N,Net-(C15-Pad1)*%
X69600000Y-162450000D03*
%TO.P,L3,2*%
%TO.N,+12V*%
X69600000Y-172350000D03*
%TD*%
%TO.P,R2,2*%
%TO.N,Net-(R2-Pad2)*%
%TA.AperFunction,SMDPad,CuDef*%
G36*
G01*
X53558000Y-159030250D02*
X53558000Y-158117750D01*
G75*
G02*
X53801750Y-157874000I243750J0D01*
G01*
X54289250Y-157874000D01*
G75*
G02*
X54533000Y-158117750I0J-243750D01*
G01*
X54533000Y-159030250D01*
G75*
G02*
X54289250Y-159274000I-243750J0D01*
G01*
X53801750Y-159274000D01*
G75*
G02*
X53558000Y-159030250I0J243750D01*
G01*
G37*
%TD.AperFunction*%
%TO.P,R2,1*%
%TO.N,+48V*%
%TA.AperFunction,SMDPad,CuDef*%
G36*
G01*
X51683000Y-159030250D02*
X51683000Y-158117750D01*
G75*
G02*
X51926750Y-157874000I243750J0D01*
G01*
X52414250Y-157874000D01*
G75*
G02*
X52658000Y-158117750I0J-243750D01*
G01*
X52658000Y-159030250D01*
G75*
G02*
X52414250Y-159274000I-243750J0D01*
G01*
X51926750Y-159274000D01*
G75*
G02*
X51683000Y-159030250I0J243750D01*
G01*
G37*
%TD.AperFunction*%
%TD*%
%TO.P,R4,2*%
%TO.N,FB_24*%
%TA.AperFunction,SMDPad,CuDef*%
G36*
G01*
X65664250Y-157336500D02*
X64751750Y-157336500D01*
G75*
G02*
X64508000Y-157092750I0J243750D01*
G01*
X64508000Y-156605250D01*
G75*
G02*
X64751750Y-156361500I243750J0D01*
G01*
X65664250Y-156361500D01*
G75*
G02*
X65908000Y-156605250I0J-243750D01*
G01*
X65908000Y-157092750D01*
G75*
G02*
X65664250Y-157336500I-243750J0D01*
G01*
G37*
%TD.AperFunction*%
%TO.P,R4,1*%
%TO.N,+24V*%
%TA.AperFunction,SMDPad,CuDef*%
G36*
G01*
X65664250Y-159211500D02*
X64751750Y-159211500D01*
G75*
G02*
X64508000Y-158967750I0J243750D01*
G01*
X64508000Y-158480250D01*
G75*
G02*
X64751750Y-158236500I243750J0D01*
G01*
X65664250Y-158236500D01*
G75*
G02*
X65908000Y-158480250I0J-243750D01*
G01*
X65908000Y-158967750D01*
G75*
G02*
X65664250Y-159211500I-243750J0D01*
G01*
G37*
%TD.AperFunction*%
%TD*%
%TO.P,R6,1*%
%TO.N,Net-(R2-Pad2)*%
%TA.AperFunction,SMDPad,CuDef*%
G36*
G01*
X56514250Y-159286500D02*
X55601750Y-159286500D01*
G75*
G02*
X55358000Y-159042750I0J243750D01*
G01*
X55358000Y-158555250D01*
G75*
G02*
X55601750Y-158311500I243750J0D01*
G01*
X56514250Y-158311500D01*
G75*
G02*
X56758000Y-158555250I0J-243750D01*
G01*
X56758000Y-159042750D01*
G75*
G02*
X56514250Y-159286500I-243750J0D01*
G01*
G37*
%TD.AperFunction*%
%TO.P,R6,2*%
%TO.N,GND*%
%TA.AperFunction,SMDPad,CuDef*%
G36*
G01*
X56514250Y-157411500D02*
X55601750Y-157411500D01*
G75*
G02*
X55358000Y-157167750I0J243750D01*
G01*
X55358000Y-156680250D01*
G75*
G02*
X55601750Y-156436500I243750J0D01*
G01*
X56514250Y-156436500D01*
G75*
G02*
X56758000Y-156680250I0J-243750D01*
G01*
X56758000Y-157167750D01*
G75*
G02*
X56514250Y-157411500I-243750J0D01*
G01*
G37*
%TD.AperFunction*%
%TD*%
%TO.P,R8,1*%
%TO.N,Net-(R8-Pad1)*%
%TA.AperFunction,SMDPad,CuDef*%
G36*
G01*
X59801750Y-156405500D02*
X60714250Y-156405500D01*
G75*
G02*
X60958000Y-156649250I0J-243750D01*
G01*
X60958000Y-157136750D01*
G75*
G02*
X60714250Y-157380500I-243750J0D01*
G01*
X59801750Y-157380500D01*
G75*
G02*
X59558000Y-157136750I0J243750D01*
G01*
X59558000Y-156649250D01*
G75*
G02*
X59801750Y-156405500I243750J0D01*
G01*
G37*
%TD.AperFunction*%
%TO.P,R8,2*%
%TO.N,Net-(R14-Pad1)*%
%TA.AperFunction,SMDPad,CuDef*%
G36*
G01*
X59801750Y-158280500D02*
X60714250Y-158280500D01*
G75*
G02*
X60958000Y-158524250I0J-243750D01*
G01*
X60958000Y-159011750D01*
G75*
G02*
X60714250Y-159255500I-243750J0D01*
G01*
X59801750Y-159255500D01*
G75*
G02*
X59558000Y-159011750I0J243750D01*
G01*
X59558000Y-158524250D01*
G75*
G02*
X59801750Y-158280500I243750J0D01*
G01*
G37*
%TD.AperFunction*%
%TD*%
%TO.P,R10,1*%
%TO.N,Net-(C12-Pad2)*%
%TA.AperFunction,SMDPad,CuDef*%
G36*
G01*
X66595500Y-155430250D02*
X66595500Y-154517750D01*
G75*
G02*
X66839250Y-154274000I243750J0D01*
G01*
X67326750Y-154274000D01*
G75*
G02*
X67570500Y-154517750I0J-243750D01*
G01*
X67570500Y-155430250D01*
G75*
G02*
X67326750Y-155674000I-243750J0D01*
G01*
X66839250Y-155674000D01*
G75*
G02*
X66595500Y-155430250I0J243750D01*
G01*
G37*
%TD.AperFunction*%
%TO.P,R10,2*%
%TO.N,Net-(C14-Pad2)*%
%TA.AperFunction,SMDPad,CuDef*%
G36*
G01*
X68470500Y-155430250D02*
X68470500Y-154517750D01*
G75*
G02*
X68714250Y-154274000I243750J0D01*
G01*
X69201750Y-154274000D01*
G75*
G02*
X69445500Y-154517750I0J-243750D01*
G01*
X69445500Y-155430250D01*
G75*
G02*
X69201750Y-155674000I-243750J0D01*
G01*
X68714250Y-155674000D01*
G75*
G02*
X68470500Y-155430250I0J243750D01*
G01*
G37*
%TD.AperFunction*%
%TD*%
%TO.P,R12,1*%
%TO.N,FB_24*%
%TA.AperFunction,SMDPad,CuDef*%
G36*
G01*
X62343750Y-156361500D02*
X63256250Y-156361500D01*
G75*
G02*
X63500000Y-156605250I0J-243750D01*
G01*
X63500000Y-157092750D01*
G75*
G02*
X63256250Y-157336500I-243750J0D01*
G01*
X62343750Y-157336500D01*
G75*
G02*
X62100000Y-157092750I0J243750D01*
G01*
X62100000Y-156605250D01*
G75*
G02*
X62343750Y-156361500I243750J0D01*
G01*
G37*
%TD.AperFunction*%
%TO.P,R12,2*%
%TO.N,GND*%
%TA.AperFunction,SMDPad,CuDef*%
G36*
G01*
X62343750Y-158236500D02*
X63256250Y-158236500D01*
G75*
G02*
X63500000Y-158480250I0J-243750D01*
G01*
X63500000Y-158967750D01*
G75*
G02*
X63256250Y-159211500I-243750J0D01*
G01*
X62343750Y-159211500D01*
G75*
G02*
X62100000Y-158967750I0J243750D01*
G01*
X62100000Y-158480250D01*
G75*
G02*
X62343750Y-158236500I243750J0D01*
G01*
G37*
%TD.AperFunction*%
%TD*%
%TO.P,R14,2*%
%TO.N,GND*%
%TA.AperFunction,SMDPad,CuDef*%
G36*
G01*
X58564250Y-157436500D02*
X57651750Y-157436500D01*
G75*
G02*
X57408000Y-157192750I0J243750D01*
G01*
X57408000Y-156705250D01*
G75*
G02*
X57651750Y-156461500I243750J0D01*
G01*
X58564250Y-156461500D01*
G75*
G02*
X58808000Y-156705250I0J-243750D01*
G01*
X58808000Y-157192750D01*
G75*
G02*
X58564250Y-157436500I-243750J0D01*
G01*
G37*
%TD.AperFunction*%
%TO.P,R14,1*%
%TO.N,Net-(R14-Pad1)*%
%TA.AperFunction,SMDPad,CuDef*%
G36*
G01*
X58564250Y-159311500D02*
X57651750Y-159311500D01*
G75*
G02*
X57408000Y-159067750I0J243750D01*
G01*
X57408000Y-158580250D01*
G75*
G02*
X57651750Y-158336500I243750J0D01*
G01*
X58564250Y-158336500D01*
G75*
G02*
X58808000Y-158580250I0J-243750D01*
G01*
X58808000Y-159067750D01*
G75*
G02*
X58564250Y-159311500I-243750J0D01*
G01*
G37*
%TD.AperFunction*%
%TD*%
%TO.P,R15,1*%
%TO.N,+24V*%
%TA.AperFunction,SMDPad,CuDef*%
G36*
G01*
X85756250Y-178125000D02*
X84843750Y-178125000D01*
G75*
G02*
X84600000Y-177881250I0J243750D01*
G01*
X84600000Y-177393750D01*
G75*
G02*
X84843750Y-177150000I243750J0D01*
G01*
X85756250Y-177150000D01*
G75*
G02*
X86000000Y-177393750I0J-243750D01*
G01*
X86000000Y-177881250D01*
G75*
G02*
X85756250Y-178125000I-243750J0D01*
G01*
G37*
%TD.AperFunction*%
%TO.P,R15,2*%
%TO.N,Net-(R15-Pad2)*%
%TA.AperFunction,SMDPad,CuDef*%
G36*
G01*
X85756250Y-176250000D02*
X84843750Y-176250000D01*
G75*
G02*
X84600000Y-176006250I0J243750D01*
G01*
X84600000Y-175518750D01*
G75*
G02*
X84843750Y-175275000I243750J0D01*
G01*
X85756250Y-175275000D01*
G75*
G02*
X86000000Y-175518750I0J-243750D01*
G01*
X86000000Y-176006250D01*
G75*
G02*
X85756250Y-176250000I-243750J0D01*
G01*
G37*
%TD.AperFunction*%
%TD*%
%TO.P,R16,1*%
%TO.N,+12V*%
%TA.AperFunction,SMDPad,CuDef*%
G36*
G01*
X74275000Y-176506250D02*
X74275000Y-175593750D01*
G75*
G02*
X74518750Y-175350000I243750J0D01*
G01*
X75006250Y-175350000D01*
G75*
G02*
X75250000Y-175593750I0J-243750D01*
G01*
X75250000Y-176506250D01*
G75*
G02*
X75006250Y-176750000I-243750J0D01*
G01*
X74518750Y-176750000D01*
G75*
G02*
X74275000Y-176506250I0J243750D01*
G01*
G37*
%TD.AperFunction*%
%TO.P,R16,2*%
%TO.N,FB_12*%
%TA.AperFunction,SMDPad,CuDef*%
G36*
G01*
X76150000Y-176506250D02*
X76150000Y-175593750D01*
G75*
G02*
X76393750Y-175350000I243750J0D01*
G01*
X76881250Y-175350000D01*
G75*
G02*
X77125000Y-175593750I0J-243750D01*
G01*
X77125000Y-176506250D01*
G75*
G02*
X76881250Y-176750000I-243750J0D01*
G01*
X76393750Y-176750000D01*
G75*
G02*
X76150000Y-176506250I0J243750D01*
G01*
G37*
%TD.AperFunction*%
%TD*%
%TO.P,R17,2*%
%TO.N,GND*%
%TA.AperFunction,SMDPad,CuDef*%
G36*
G01*
X82793750Y-177150000D02*
X83706250Y-177150000D01*
G75*
G02*
X83950000Y-177393750I0J-243750D01*
G01*
X83950000Y-177881250D01*
G75*
G02*
X83706250Y-178125000I-243750J0D01*
G01*
X82793750Y-178125000D01*
G75*
G02*
X82550000Y-177881250I0J243750D01*
G01*
X82550000Y-177393750D01*
G75*
G02*
X82793750Y-177150000I243750J0D01*
G01*
G37*
%TD.AperFunction*%
%TO.P,R17,1*%
%TO.N,Net-(R15-Pad2)*%
%TA.AperFunction,SMDPad,CuDef*%
G36*
G01*
X82793750Y-175275000D02*
X83706250Y-175275000D01*
G75*
G02*
X83950000Y-175518750I0J-243750D01*
G01*
X83950000Y-176006250D01*
G75*
G02*
X83706250Y-176250000I-243750J0D01*
G01*
X82793750Y-176250000D01*
G75*
G02*
X82550000Y-176006250I0J243750D01*
G01*
X82550000Y-175518750D01*
G75*
G02*
X82793750Y-175275000I243750J0D01*
G01*
G37*
%TD.AperFunction*%
%TD*%
%TO.P,R18,2*%
%TO.N,GND*%
%TA.AperFunction,SMDPad,CuDef*%
G36*
G01*
X79737500Y-176456250D02*
X79737500Y-175543750D01*
G75*
G02*
X79981250Y-175300000I243750J0D01*
G01*
X80468750Y-175300000D01*
G75*
G02*
X80712500Y-175543750I0J-243750D01*
G01*
X80712500Y-176456250D01*
G75*
G02*
X80468750Y-176700000I-243750J0D01*
G01*
X79981250Y-176700000D01*
G75*
G02*
X79737500Y-176456250I0J243750D01*
G01*
G37*
%TD.AperFunction*%
%TO.P,R18,1*%
%TO.N,FB_12*%
%TA.AperFunction,SMDPad,CuDef*%
G36*
G01*
X77862500Y-176456250D02*
X77862500Y-175543750D01*
G75*
G02*
X78106250Y-175300000I243750J0D01*
G01*
X78593750Y-175300000D01*
G75*
G02*
X78837500Y-175543750I0J-243750D01*
G01*
X78837500Y-176456250D01*
G75*
G02*
X78593750Y-176700000I-243750J0D01*
G01*
X78106250Y-176700000D01*
G75*
G02*
X77862500Y-176456250I0J243750D01*
G01*
G37*
%TD.AperFunction*%
%TD*%
%TO.P,R19,1*%
%TO.N,Net-(D3-Pad1)*%
%TA.AperFunction,SMDPad,CuDef*%
G36*
G01*
X54755000Y-161146250D02*
X54755000Y-160233750D01*
G75*
G02*
X54998750Y-159990000I243750J0D01*
G01*
X55486250Y-159990000D01*
G75*
G02*
X55730000Y-160233750I0J-243750D01*
G01*
X55730000Y-161146250D01*
G75*
G02*
X55486250Y-161390000I-243750J0D01*
G01*
X54998750Y-161390000D01*
G75*
G02*
X54755000Y-161146250I0J243750D01*
G01*
G37*
%TD.AperFunction*%
%TO.P,R19,2*%
%TO.N,GND*%
%TA.AperFunction,SMDPad,CuDef*%
G36*
G01*
X56630000Y-161146250D02*
X56630000Y-160233750D01*
G75*
G02*
X56873750Y-159990000I243750J0D01*
G01*
X57361250Y-159990000D01*
G75*
G02*
X57605000Y-160233750I0J-243750D01*
G01*
X57605000Y-161146250D01*
G75*
G02*
X57361250Y-161390000I-243750J0D01*
G01*
X56873750Y-161390000D01*
G75*
G02*
X56630000Y-161146250I0J243750D01*
G01*
G37*
%TD.AperFunction*%
%TD*%
%TO.P,R20,2*%
%TO.N,GND*%
%TA.AperFunction,SMDPad,CuDef*%
G36*
G01*
X99206250Y-149042500D02*
X98293750Y-149042500D01*
G75*
G02*
X98050000Y-148798750I0J243750D01*
G01*
X98050000Y-148311250D01*
G75*
G02*
X98293750Y-148067500I243750J0D01*
G01*
X99206250Y-148067500D01*
G75*
G02*
X99450000Y-148311250I0J-243750D01*
G01*
X99450000Y-148798750D01*
G75*
G02*
X99206250Y-149042500I-243750J0D01*
G01*
G37*
%TD.AperFunction*%
%TO.P,R20,1*%
%TO.N,Net-(D5-Pad1)*%
%TA.AperFunction,SMDPad,CuDef*%
G36*
G01*
X99206250Y-150917500D02*
X98293750Y-150917500D01*
G75*
G02*
X98050000Y-150673750I0J243750D01*
G01*
X98050000Y-150186250D01*
G75*
G02*
X98293750Y-149942500I243750J0D01*
G01*
X99206250Y-149942500D01*
G75*
G02*
X99450000Y-150186250I0J-243750D01*
G01*
X99450000Y-150673750D01*
G75*
G02*
X99206250Y-150917500I-243750J0D01*
G01*
G37*
%TD.AperFunction*%
%TD*%
%TO.P,R21,1*%
%TO.N,Net-(D6-Pad1)*%
%TA.AperFunction,SMDPad,CuDef*%
G36*
G01*
X50106250Y-168475000D02*
X49193750Y-168475000D01*
G75*
G02*
X48950000Y-168231250I0J243750D01*
G01*
X48950000Y-167743750D01*
G75*
G02*
X49193750Y-167500000I243750J0D01*
G01*
X50106250Y-167500000D01*
G75*
G02*
X50350000Y-167743750I0J-243750D01*
G01*
X50350000Y-168231250D01*
G75*
G02*
X50106250Y-168475000I-243750J0D01*
G01*
G37*
%TD.AperFunction*%
%TO.P,R21,2*%
%TO.N,GND*%
%TA.AperFunction,SMDPad,CuDef*%
G36*
G01*
X50106250Y-166600000D02*
X49193750Y-166600000D01*
G75*
G02*
X48950000Y-166356250I0J243750D01*
G01*
X48950000Y-165868750D01*
G75*
G02*
X49193750Y-165625000I243750J0D01*
G01*
X50106250Y-165625000D01*
G75*
G02*
X50350000Y-165868750I0J-243750D01*
G01*
X50350000Y-166356250D01*
G75*
G02*
X50106250Y-166600000I-243750J0D01*
G01*
G37*
%TD.AperFunction*%
%TD*%
D14*
%TO.P,U3,9*%
%TO.N,GND*%
X80504000Y-171927000D03*
D13*
%TD*%
%TO.N,GND*%
%TO.C,U3*%
X80504000Y-171927000D03*
D12*
%TO.P,U3,1*%
%TO.N,Net-(C15-Pad2)*%
X77804000Y-170022000D03*
%TO.P,U3,2*%
%TO.N,Net-(U3-Pad2)*%
X77804000Y-171292000D03*
%TO.P,U3,3*%
%TO.N,Net-(U3-Pad3)*%
X77804000Y-172562000D03*
%TO.P,U3,4*%
%TO.N,FB_12*%
X77804000Y-173832000D03*
%TO.P,U3,5*%
%TO.N,Net-(R15-Pad2)*%
X83204000Y-173832000D03*
%TO.P,U3,6*%
%TO.N,GND*%
X83204000Y-172562000D03*
%TO.P,U3,7*%
%TO.N,+24V*%
X83204000Y-171292000D03*
%TO.P,U3,8*%
%TO.N,Net-(C15-Pad1)*%
X83204000Y-170022000D03*
D11*
%TD*%
%TO.N,GND*%
%TO.C,U3*%
X79904000Y-170127000D03*
%TO.N,GND*%
%TO.C,U3*%
X79904000Y-171327000D03*
X81104000Y-171327000D03*
X81104000Y-170127000D03*
X79904000Y-173727000D03*
X79904000Y-172627000D03*
X81104000Y-172627000D03*
X81104000Y-173727000D03*
%TD*%
D18*
%TO.N,GND*%
X55950000Y-155300000D03*
X57250000Y-155450000D03*
X89500000Y-161500000D03*
X89500000Y-162900000D03*
X89500000Y-164300000D03*
X89450000Y-165700000D03*
X88050000Y-165700000D03*
X88050000Y-164350000D03*
X88050000Y-162900000D03*
X88000000Y-161500000D03*
X62400000Y-160350000D03*
X60200000Y-139200000D03*
X60200000Y-140700000D03*
X60200000Y-142200000D03*
X66800000Y-142200000D03*
X66800000Y-140700000D03*
X66750000Y-139200000D03*
X72200000Y-139150000D03*
X72200000Y-140700000D03*
X72150000Y-142200000D03*
X60200000Y-163300000D03*
X60200000Y-164700000D03*
X60200000Y-166100000D03*
X54150000Y-166100000D03*
X54150000Y-164700000D03*
X54150000Y-163300000D03*
X80200000Y-177650000D03*
X81700000Y-177650000D03*
X79950000Y-178700000D03*
X81400000Y-178700000D03*
X80700000Y-179750000D03*
X79200000Y-179750000D03*
X82050000Y-179750000D03*
X83550000Y-179750000D03*
X92550000Y-144350000D03*
X93950000Y-144350000D03*
X95350000Y-144350000D03*
X95350000Y-145800000D03*
X95350000Y-148650000D03*
X95350000Y-147200000D03*
X95350000Y-151500000D03*
X95350000Y-150050000D03*
X93950000Y-151500000D03*
X92500000Y-151500000D03*
X91100000Y-151500000D03*
X70900000Y-152300000D03*
X70900000Y-153700000D03*
X70900000Y-155100000D03*
X70900000Y-156500000D03*
X45500000Y-153700000D03*
X45500000Y-154850000D03*
X45500000Y-155950000D03*
X45500000Y-157200000D03*
X52850000Y-163300000D03*
X51500000Y-163250000D03*
X50100000Y-163200000D03*
X48700000Y-163250000D03*
X46900000Y-163300000D03*
X46900000Y-165250000D03*
X52900000Y-164700000D03*
%TD*%
D19*
%TO.N,+48V*%
X52170500Y-158574000D02*
X52170500Y-157754500D01*
X52170500Y-157754500D02*
X53200000Y-156725000D01*
X53200000Y-156725000D02*
X53200000Y-153325000D01*
X53200000Y-153325000D02*
X54425000Y-152100000D01*
X51944500Y-158800000D02*
X52170500Y-158574000D01*
X51942500Y-158802000D02*
X52170500Y-158574000D01*
X51942500Y-160450000D02*
X51942500Y-158802000D01*
D20*
%TO.N,GND*%
X62774000Y-152174000D02*
X62774000Y-152174000D01*
X56058000Y-156924000D02*
X56058000Y-155408000D01*
X56058000Y-155408000D02*
X55950000Y-155300000D01*
X58108000Y-156949000D02*
X58108000Y-156308000D01*
X58108000Y-156308000D02*
X57250000Y-155450000D01*
X81139000Y-172562000D02*
X80504000Y-171927000D01*
X83204000Y-172562000D02*
X81139000Y-172562000D01*
X62800000Y-158724000D02*
X62800000Y-159950000D01*
X62800000Y-159950000D02*
X62400000Y-160350000D01*
X95445000Y-148555000D02*
X95350000Y-148650000D01*
X98750000Y-148555000D02*
X95445000Y-148555000D01*
X49662500Y-166100000D02*
X49650000Y-166112500D01*
X54150000Y-166100000D02*
X49662500Y-166100000D01*
X57117500Y-164332500D02*
X56900000Y-164550000D01*
X57117500Y-160690000D02*
X57117500Y-164332500D01*
X62774000Y-152174000D02*
X62739000Y-152209000D01*
X80504000Y-175721000D02*
X80225000Y-176000000D01*
X80504000Y-171927000D02*
X80504000Y-175721000D01*
X61574000Y-152174000D02*
X61539000Y-152209000D01*
X64839000Y-152174000D02*
X61574000Y-152174000D01*
X70774000Y-152174000D02*
X70900000Y-152300000D01*
X64839000Y-152174000D02*
X70774000Y-152174000D01*
%TO.N,+24V*%
X85300000Y-177637500D02*
X87562500Y-177637500D01*
X87562500Y-177637500D02*
X89050000Y-176150000D01*
X89050000Y-176150000D02*
X89050000Y-172300000D01*
D19*
%TO.N,Net-(C12-Pad2)*%
X67083000Y-153166000D02*
X67092000Y-153157000D01*
X67083000Y-154974000D02*
X67083000Y-153166000D01*
X66805000Y-153444000D02*
X67092000Y-153157000D01*
X64839000Y-153444000D02*
X66805000Y-153444000D01*
%TO.N,Net-(C14-Pad2)*%
X68958000Y-153324000D02*
X69108000Y-153174000D01*
X68958000Y-154974000D02*
X68958000Y-153324000D01*
D20*
%TO.N,Net-(C15-Pad2)*%
X77562500Y-169780500D02*
X77804000Y-170022000D01*
X77562500Y-168020000D02*
X77562500Y-169780500D01*
%TO.N,+12V*%
X49687500Y-172550000D02*
X49650000Y-172587500D01*
X56900000Y-172550000D02*
X49687500Y-172550000D01*
D19*
%TO.N,Net-(D3-Pad1)*%
X55002500Y-160450000D02*
X55242500Y-160690000D01*
X53517500Y-160450000D02*
X55002500Y-160450000D01*
D20*
%TO.N,Net-(D5-Pad1)*%
X98750000Y-150430000D02*
X98750000Y-152300000D01*
%TO.N,Net-(D6-Pad1)*%
X49650000Y-167987500D02*
X49650000Y-170712500D01*
D19*
%TO.N,Net-(R2-Pad2)*%
X54270500Y-158799000D02*
X54045500Y-158574000D01*
X56058000Y-158799000D02*
X54270500Y-158799000D01*
X59439000Y-153444000D02*
X55731000Y-153444000D01*
X54045500Y-155129500D02*
X54045500Y-158574000D01*
X55731000Y-153444000D02*
X54045500Y-155129500D01*
%TO.N,FB_24*%
X64839000Y-156480000D02*
X65208000Y-156849000D01*
X64839000Y-154714000D02*
X64839000Y-156480000D01*
X62958000Y-156849000D02*
X65208000Y-156849000D01*
%TO.N,Net-(R8-Pad1)*%
X59439000Y-154714000D02*
X59439000Y-155039000D01*
X60258000Y-155858000D02*
X60258000Y-156893000D01*
X59439000Y-155039000D02*
X60258000Y-155858000D01*
%TO.N,Net-(R14-Pad1)*%
X58164000Y-158768000D02*
X58108000Y-158824000D01*
X60258000Y-158768000D02*
X58164000Y-158768000D01*
D20*
%TO.N,Net-(R15-Pad2)*%
X83250000Y-175762500D02*
X85300000Y-175762500D01*
X83204000Y-175716500D02*
X83250000Y-175762500D01*
X83204000Y-173832000D02*
X83204000Y-175716500D01*
%TO.N,FB_12*%
X78300000Y-176050000D02*
X78350000Y-176000000D01*
X76637500Y-176050000D02*
X78300000Y-176050000D01*
X77804000Y-174883500D02*
X76637500Y-176050000D01*
X77804000Y-173832000D02*
X77804000Y-174883500D01*
%TD*%
D21*
%TO.N,+48V*%
G36*
X57623000Y-134939270D02*
G01*
X57623000Y-139120232D01*
X57596482Y-139112188D01*
X57472000Y-139099928D01*
X55757750Y-139103000D01*
X55599000Y-139261750D01*
X55599000Y-140861000D01*
X55619000Y-140861000D01*
X55619000Y-141115000D01*
X55599000Y-141115000D01*
X55599000Y-142714250D01*
X55757750Y-142873000D01*
X57472000Y-142876072D01*
X57596482Y-142863812D01*
X57623000Y-142855768D01*
X57623000Y-151800000D01*
X57625440Y-151824776D01*
X57632667Y-151848601D01*
X57644403Y-151870557D01*
X57660197Y-151889803D01*
X57679443Y-151905597D01*
X57701399Y-151917333D01*
X57725224Y-151924560D01*
X57750000Y-151927000D01*
X58067750Y-151927000D01*
X58187750Y-152047000D01*
X59312000Y-152047000D01*
X59312000Y-152027000D01*
X59566000Y-152027000D01*
X59566000Y-152047000D01*
X59586000Y-152047000D01*
X59586000Y-152301000D01*
X59566000Y-152301000D01*
X59566000Y-152321000D01*
X59312000Y-152321000D01*
X59312000Y-152301000D01*
X58187750Y-152301000D01*
X58029000Y-152459750D01*
X58025928Y-152474000D01*
X58034299Y-152559000D01*
X55774469Y-152559000D01*
X55731000Y-152554719D01*
X55687531Y-152559000D01*
X55687523Y-152559000D01*
X55572306Y-152570348D01*
X55557509Y-152571805D01*
X55553570Y-152573000D01*
X52527000Y-152573000D01*
X52527000Y-150400000D01*
X52524560Y-150375224D01*
X52517333Y-150351399D01*
X52505597Y-150329443D01*
X52489803Y-150310197D01*
X52470557Y-150294403D01*
X52448601Y-150282667D01*
X52424776Y-150275440D01*
X52400376Y-150273001D01*
X44077000Y-150248376D01*
X44077000Y-149148000D01*
X47411928Y-149148000D01*
X47424188Y-149272482D01*
X47460498Y-149392180D01*
X47519463Y-149502494D01*
X47598815Y-149599185D01*
X47695506Y-149678537D01*
X47805820Y-149737502D01*
X47925518Y-149773812D01*
X48050000Y-149786072D01*
X49014250Y-149783000D01*
X49173000Y-149624250D01*
X49173000Y-147275000D01*
X49427000Y-147275000D01*
X49427000Y-149624250D01*
X49585750Y-149783000D01*
X50550000Y-149786072D01*
X50674482Y-149773812D01*
X50794180Y-149737502D01*
X50904494Y-149678537D01*
X51001185Y-149599185D01*
X51080537Y-149502494D01*
X51139502Y-149392180D01*
X51175812Y-149272482D01*
X51188072Y-149148000D01*
X51185000Y-147433750D01*
X51026250Y-147275000D01*
X49427000Y-147275000D01*
X49173000Y-147275000D01*
X47573750Y-147275000D01*
X47415000Y-147433750D01*
X47411928Y-149148000D01*
X44077000Y-149148000D01*
X44077000Y-145148000D01*
X47411928Y-145148000D01*
X47415000Y-146862250D01*
X47573750Y-147021000D01*
X49173000Y-147021000D01*
X49173000Y-144671750D01*
X49427000Y-144671750D01*
X49427000Y-147021000D01*
X51026250Y-147021000D01*
X51185000Y-146862250D01*
X51188072Y-145148000D01*
X51175812Y-145023518D01*
X51139502Y-144903820D01*
X51080537Y-144793506D01*
X51001185Y-144696815D01*
X50904494Y-144617463D01*
X50794180Y-144558498D01*
X50674482Y-144522188D01*
X50550000Y-144509928D01*
X49585750Y-144513000D01*
X49427000Y-144671750D01*
X49173000Y-144671750D01*
X49014250Y-144513000D01*
X48050000Y-144509928D01*
X47925518Y-144522188D01*
X47805820Y-144558498D01*
X47695506Y-144617463D01*
X47598815Y-144696815D01*
X47519463Y-144793506D01*
X47460498Y-144903820D01*
X47424188Y-145023518D01*
X47411928Y-145148000D01*
X44077000Y-145148000D01*
X44077000Y-143526349D01*
X45253256Y-143526349D01*
X45457362Y-143882867D01*
X45900223Y-144113575D01*
X46379583Y-144253452D01*
X46877021Y-144297123D01*
X47373422Y-144242909D01*
X47849707Y-144092894D01*
X48242638Y-143882867D01*
X48446744Y-143526349D01*
X46850000Y-141929605D01*
X45253256Y-143526349D01*
X44077000Y-143526349D01*
X44077000Y-141777021D01*
X44302877Y-141777021D01*
X44357091Y-142273422D01*
X44507106Y-142749707D01*
X44717133Y-143142638D01*
X45073651Y-143346744D01*
X46670395Y-141750000D01*
X47029605Y-141750000D01*
X48626349Y-143346744D01*
X48982867Y-143142638D01*
X49213575Y-142699777D01*
X49348321Y-142238000D01*
X52833928Y-142238000D01*
X52846188Y-142362482D01*
X52882498Y-142482180D01*
X52941463Y-142592494D01*
X53020815Y-142689185D01*
X53117506Y-142768537D01*
X53227820Y-142827502D01*
X53347518Y-142863812D01*
X53472000Y-142876072D01*
X55186250Y-142873000D01*
X55345000Y-142714250D01*
X55345000Y-141115000D01*
X52995750Y-141115000D01*
X52837000Y-141273750D01*
X52833928Y-142238000D01*
X49348321Y-142238000D01*
X49353452Y-142220417D01*
X49397123Y-141722979D01*
X49342909Y-141226578D01*
X49192894Y-140750293D01*
X48982867Y-140357362D01*
X48626349Y-140153256D01*
X47029605Y-141750000D01*
X46670395Y-141750000D01*
X45073651Y-140153256D01*
X44717133Y-140357362D01*
X44486425Y-140800223D01*
X44346548Y-141279583D01*
X44302877Y-141777021D01*
X44077000Y-141777021D01*
X44077000Y-139973651D01*
X45253256Y-139973651D01*
X46850000Y-141570395D01*
X48446744Y-139973651D01*
X48311835Y-139738000D01*
X52833928Y-139738000D01*
X52837000Y-140702250D01*
X52995750Y-140861000D01*
X55345000Y-140861000D01*
X55345000Y-139261750D01*
X55186250Y-139103000D01*
X53472000Y-139099928D01*
X53347518Y-139112188D01*
X53227820Y-139148498D01*
X53117506Y-139207463D01*
X53020815Y-139286815D01*
X52941463Y-139383506D01*
X52882498Y-139493820D01*
X52846188Y-139613518D01*
X52833928Y-139738000D01*
X48311835Y-139738000D01*
X48242638Y-139617133D01*
X47799777Y-139386425D01*
X47320417Y-139246548D01*
X46822979Y-139202877D01*
X46326578Y-139257091D01*
X45850293Y-139407106D01*
X45457362Y-139617133D01*
X45253256Y-139973651D01*
X44077000Y-139973651D01*
X44077000Y-136058901D01*
X44088625Y-135940341D01*
X44164035Y-135690571D01*
X44286522Y-135460208D01*
X44451422Y-135258020D01*
X44652450Y-135091714D01*
X44881954Y-134967622D01*
X45047143Y-134916488D01*
X57623000Y-134939270D01*
G37*
X57623000Y-134939270D02*
X57623000Y-139120232D01*
X57596482Y-139112188D01*
X57472000Y-139099928D01*
X55757750Y-139103000D01*
X55599000Y-139261750D01*
X55599000Y-140861000D01*
X55619000Y-140861000D01*
X55619000Y-141115000D01*
X55599000Y-141115000D01*
X55599000Y-142714250D01*
X55757750Y-142873000D01*
X57472000Y-142876072D01*
X57596482Y-142863812D01*
X57623000Y-142855768D01*
X57623000Y-151800000D01*
X57625440Y-151824776D01*
X57632667Y-151848601D01*
X57644403Y-151870557D01*
X57660197Y-151889803D01*
X57679443Y-151905597D01*
X57701399Y-151917333D01*
X57725224Y-151924560D01*
X57750000Y-151927000D01*
X58067750Y-151927000D01*
X58187750Y-152047000D01*
X59312000Y-152047000D01*
X59312000Y-152027000D01*
X59566000Y-152027000D01*
X59566000Y-152047000D01*
X59586000Y-152047000D01*
X59586000Y-152301000D01*
X59566000Y-152301000D01*
X59566000Y-152321000D01*
X59312000Y-152321000D01*
X59312000Y-152301000D01*
X58187750Y-152301000D01*
X58029000Y-152459750D01*
X58025928Y-152474000D01*
X58034299Y-152559000D01*
X55774469Y-152559000D01*
X55731000Y-152554719D01*
X55687531Y-152559000D01*
X55687523Y-152559000D01*
X55572306Y-152570348D01*
X55557509Y-152571805D01*
X55553570Y-152573000D01*
X52527000Y-152573000D01*
X52527000Y-150400000D01*
X52524560Y-150375224D01*
X52517333Y-150351399D01*
X52505597Y-150329443D01*
X52489803Y-150310197D01*
X52470557Y-150294403D01*
X52448601Y-150282667D01*
X52424776Y-150275440D01*
X52400376Y-150273001D01*
X44077000Y-150248376D01*
X44077000Y-149148000D01*
X47411928Y-149148000D01*
X47424188Y-149272482D01*
X47460498Y-149392180D01*
X47519463Y-149502494D01*
X47598815Y-149599185D01*
X47695506Y-149678537D01*
X47805820Y-149737502D01*
X47925518Y-149773812D01*
X48050000Y-149786072D01*
X49014250Y-149783000D01*
X49173000Y-149624250D01*
X49173000Y-147275000D01*
X49427000Y-147275000D01*
X49427000Y-149624250D01*
X49585750Y-149783000D01*
X50550000Y-149786072D01*
X50674482Y-149773812D01*
X50794180Y-149737502D01*
X50904494Y-149678537D01*
X51001185Y-149599185D01*
X51080537Y-149502494D01*
X51139502Y-149392180D01*
X51175812Y-149272482D01*
X51188072Y-149148000D01*
X51185000Y-147433750D01*
X51026250Y-147275000D01*
X49427000Y-147275000D01*
X49173000Y-147275000D01*
X47573750Y-147275000D01*
X47415000Y-147433750D01*
X47411928Y-149148000D01*
X44077000Y-149148000D01*
X44077000Y-145148000D01*
X47411928Y-145148000D01*
X47415000Y-146862250D01*
X47573750Y-147021000D01*
X49173000Y-147021000D01*
X49173000Y-144671750D01*
X49427000Y-144671750D01*
X49427000Y-147021000D01*
X51026250Y-147021000D01*
X51185000Y-146862250D01*
X51188072Y-145148000D01*
X51175812Y-145023518D01*
X51139502Y-144903820D01*
X51080537Y-144793506D01*
X51001185Y-144696815D01*
X50904494Y-144617463D01*
X50794180Y-144558498D01*
X50674482Y-144522188D01*
X50550000Y-144509928D01*
X49585750Y-144513000D01*
X49427000Y-144671750D01*
X49173000Y-144671750D01*
X49014250Y-144513000D01*
X48050000Y-144509928D01*
X47925518Y-144522188D01*
X47805820Y-144558498D01*
X47695506Y-144617463D01*
X47598815Y-144696815D01*
X47519463Y-144793506D01*
X47460498Y-144903820D01*
X47424188Y-145023518D01*
X47411928Y-145148000D01*
X44077000Y-145148000D01*
X44077000Y-143526349D01*
X45253256Y-143526349D01*
X45457362Y-143882867D01*
X45900223Y-144113575D01*
X46379583Y-144253452D01*
X46877021Y-144297123D01*
X47373422Y-144242909D01*
X47849707Y-144092894D01*
X48242638Y-143882867D01*
X48446744Y-143526349D01*
X46850000Y-141929605D01*
X45253256Y-143526349D01*
X44077000Y-143526349D01*
X44077000Y-141777021D01*
X44302877Y-141777021D01*
X44357091Y-142273422D01*
X44507106Y-142749707D01*
X44717133Y-143142638D01*
X45073651Y-143346744D01*
X46670395Y-141750000D01*
X47029605Y-141750000D01*
X48626349Y-143346744D01*
X48982867Y-143142638D01*
X49213575Y-142699777D01*
X49348321Y-142238000D01*
X52833928Y-142238000D01*
X52846188Y-142362482D01*
X52882498Y-142482180D01*
X52941463Y-142592494D01*
X53020815Y-142689185D01*
X53117506Y-142768537D01*
X53227820Y-142827502D01*
X53347518Y-142863812D01*
X53472000Y-142876072D01*
X55186250Y-142873000D01*
X55345000Y-142714250D01*
X55345000Y-141115000D01*
X52995750Y-141115000D01*
X52837000Y-141273750D01*
X52833928Y-142238000D01*
X49348321Y-142238000D01*
X49353452Y-142220417D01*
X49397123Y-141722979D01*
X49342909Y-141226578D01*
X49192894Y-140750293D01*
X48982867Y-140357362D01*
X48626349Y-140153256D01*
X47029605Y-141750000D01*
X46670395Y-141750000D01*
X45073651Y-140153256D01*
X44717133Y-140357362D01*
X44486425Y-140800223D01*
X44346548Y-141279583D01*
X44302877Y-141777021D01*
X44077000Y-141777021D01*
X44077000Y-139973651D01*
X45253256Y-139973651D01*
X46850000Y-141570395D01*
X48446744Y-139973651D01*
X48311835Y-139738000D01*
X52833928Y-139738000D01*
X52837000Y-140702250D01*
X52995750Y-140861000D01*
X55345000Y-140861000D01*
X55345000Y-139261750D01*
X55186250Y-139103000D01*
X53472000Y-139099928D01*
X53347518Y-139112188D01*
X53227820Y-139148498D01*
X53117506Y-139207463D01*
X53020815Y-139286815D01*
X52941463Y-139383506D01*
X52882498Y-139493820D01*
X52846188Y-139613518D01*
X52833928Y-139738000D01*
X48311835Y-139738000D01*
X48242638Y-139617133D01*
X47799777Y-139386425D01*
X47320417Y-139246548D01*
X46822979Y-139202877D01*
X46326578Y-139257091D01*
X45850293Y-139407106D01*
X45457362Y-139617133D01*
X45253256Y-139973651D01*
X44077000Y-139973651D01*
X44077000Y-136058901D01*
X44088625Y-135940341D01*
X44164035Y-135690571D01*
X44286522Y-135460208D01*
X44451422Y-135258020D01*
X44652450Y-135091714D01*
X44881954Y-134967622D01*
X45047143Y-134916488D01*
X57623000Y-134939270D01*
%TO.N,Net-(C2-Pad2)*%
G36*
X59564500Y-148481000D02*
G01*
X59584500Y-148481000D01*
X59584500Y-148735000D01*
X59564500Y-148735000D01*
X59564500Y-149784250D01*
X59723250Y-149943000D01*
X59925000Y-149946072D01*
X60049482Y-149933812D01*
X60099799Y-149918548D01*
X60099732Y-149966645D01*
X59724750Y-149969000D01*
X59566000Y-150127750D01*
X59566000Y-150777000D01*
X59586000Y-150777000D01*
X59586000Y-151031000D01*
X59566000Y-151031000D01*
X59566000Y-151051000D01*
X59312000Y-151051000D01*
X59312000Y-151031000D01*
X59292000Y-151031000D01*
X59292000Y-150777000D01*
X59312000Y-150777000D01*
X59312000Y-150127750D01*
X59153250Y-149969000D01*
X58664000Y-149965928D01*
X58539518Y-149978188D01*
X58497000Y-149991086D01*
X58497000Y-149756973D01*
X58498815Y-149759185D01*
X58595506Y-149838537D01*
X58705820Y-149897502D01*
X58825518Y-149933812D01*
X58950000Y-149946072D01*
X59151750Y-149943000D01*
X59310500Y-149784250D01*
X59310500Y-148735000D01*
X59290500Y-148735000D01*
X59290500Y-148481000D01*
X59310500Y-148481000D01*
X59310500Y-148461000D01*
X59564500Y-148461000D01*
X59564500Y-148481000D01*
G37*
X59564500Y-148481000D02*
X59584500Y-148481000D01*
X59584500Y-148735000D01*
X59564500Y-148735000D01*
X59564500Y-149784250D01*
X59723250Y-149943000D01*
X59925000Y-149946072D01*
X60049482Y-149933812D01*
X60099799Y-149918548D01*
X60099732Y-149966645D01*
X59724750Y-149969000D01*
X59566000Y-150127750D01*
X59566000Y-150777000D01*
X59586000Y-150777000D01*
X59586000Y-151031000D01*
X59566000Y-151031000D01*
X59566000Y-151051000D01*
X59312000Y-151051000D01*
X59312000Y-151031000D01*
X59292000Y-151031000D01*
X59292000Y-150777000D01*
X59312000Y-150777000D01*
X59312000Y-150127750D01*
X59153250Y-149969000D01*
X58664000Y-149965928D01*
X58539518Y-149978188D01*
X58497000Y-149991086D01*
X58497000Y-149756973D01*
X58498815Y-149759185D01*
X58595506Y-149838537D01*
X58705820Y-149897502D01*
X58825518Y-149933812D01*
X58950000Y-149946072D01*
X59151750Y-149943000D01*
X59310500Y-149784250D01*
X59310500Y-148735000D01*
X59290500Y-148735000D01*
X59290500Y-148481000D01*
X59310500Y-148481000D01*
X59310500Y-148461000D01*
X59564500Y-148461000D01*
X59564500Y-148481000D01*
%TO.N,Net-(C2-Pad1)*%
G36*
X76669463Y-144745506D02*
G01*
X76610498Y-144855820D01*
X76574188Y-144975518D01*
X76561928Y-145100000D01*
X76565000Y-146264250D01*
X76723750Y-146423000D01*
X79773000Y-146423000D01*
X79773000Y-146403000D01*
X80027000Y-146403000D01*
X80027000Y-146423000D01*
X80047000Y-146423000D01*
X80047000Y-146677000D01*
X80027000Y-146677000D01*
X80027000Y-148476250D01*
X80185750Y-148635000D01*
X82600000Y-148638072D01*
X82724482Y-148625812D01*
X82844180Y-148589502D01*
X82953897Y-148530856D01*
X82949773Y-151016834D01*
X64692000Y-151028939D01*
X64692000Y-150777000D01*
X64712000Y-150777000D01*
X64712000Y-150127750D01*
X64966000Y-150127750D01*
X64966000Y-150777000D01*
X66090250Y-150777000D01*
X66249000Y-150618250D01*
X66252072Y-150604000D01*
X66239812Y-150479518D01*
X66203502Y-150359820D01*
X66144537Y-150249506D01*
X66065185Y-150152815D01*
X65968494Y-150073463D01*
X65858180Y-150014498D01*
X65738482Y-149978188D01*
X65614000Y-149965928D01*
X65124750Y-149969000D01*
X64966000Y-150127750D01*
X64712000Y-150127750D01*
X64553250Y-149969000D01*
X64372198Y-149967863D01*
X64373854Y-149877323D01*
X64371867Y-149852506D01*
X64365077Y-149828553D01*
X64353744Y-149806386D01*
X64338305Y-149786855D01*
X64319352Y-149770711D01*
X64297614Y-149758576D01*
X64273925Y-149750914D01*
X64246875Y-149748000D01*
X62260364Y-149748000D01*
X62330537Y-149662494D01*
X62389502Y-149552180D01*
X62425812Y-149432482D01*
X62438072Y-149308000D01*
X62437227Y-149194000D01*
X67343928Y-149194000D01*
X67356188Y-149318482D01*
X67392498Y-149438180D01*
X67451463Y-149548494D01*
X67530815Y-149645185D01*
X67627506Y-149724537D01*
X67737820Y-149783502D01*
X67857518Y-149819812D01*
X67982000Y-149832072D01*
X69346250Y-149829000D01*
X69505000Y-149670250D01*
X69505000Y-148071000D01*
X69759000Y-148071000D01*
X69759000Y-149670250D01*
X69917750Y-149829000D01*
X71282000Y-149832072D01*
X71406482Y-149819812D01*
X71526180Y-149783502D01*
X71636494Y-149724537D01*
X71733185Y-149645185D01*
X71812537Y-149548494D01*
X71871502Y-149438180D01*
X71907812Y-149318482D01*
X71920072Y-149194000D01*
X71917000Y-148229750D01*
X71758250Y-148071000D01*
X69759000Y-148071000D01*
X69505000Y-148071000D01*
X67505750Y-148071000D01*
X67347000Y-148229750D01*
X67343928Y-149194000D01*
X62437227Y-149194000D01*
X62435000Y-148893750D01*
X62276250Y-148735000D01*
X61439500Y-148735000D01*
X61439500Y-148755000D01*
X61185500Y-148755000D01*
X61185500Y-148735000D01*
X61165500Y-148735000D01*
X61165500Y-148481000D01*
X61185500Y-148481000D01*
X61185500Y-147431750D01*
X61439500Y-147431750D01*
X61439500Y-148481000D01*
X62276250Y-148481000D01*
X62435000Y-148322250D01*
X62437389Y-148000000D01*
X76561928Y-148000000D01*
X76574188Y-148124482D01*
X76610498Y-148244180D01*
X76669463Y-148354494D01*
X76748815Y-148451185D01*
X76845506Y-148530537D01*
X76955820Y-148589502D01*
X77075518Y-148625812D01*
X77200000Y-148638072D01*
X79614250Y-148635000D01*
X79773000Y-148476250D01*
X79773000Y-146677000D01*
X76723750Y-146677000D01*
X76565000Y-146835750D01*
X76561928Y-148000000D01*
X62437389Y-148000000D01*
X62438072Y-147908000D01*
X62425812Y-147783518D01*
X62389502Y-147663820D01*
X62330537Y-147553506D01*
X62251185Y-147456815D01*
X62154494Y-147377463D01*
X62044180Y-147318498D01*
X61924482Y-147282188D01*
X61800000Y-147269928D01*
X61598250Y-147273000D01*
X61439500Y-147431750D01*
X61185500Y-147431750D01*
X61026750Y-147273000D01*
X60927000Y-147271481D01*
X60927000Y-146694000D01*
X67343928Y-146694000D01*
X67347000Y-147658250D01*
X67505750Y-147817000D01*
X69505000Y-147817000D01*
X69505000Y-146217750D01*
X69759000Y-146217750D01*
X69759000Y-147817000D01*
X71758250Y-147817000D01*
X71917000Y-147658250D01*
X71920072Y-146694000D01*
X71907812Y-146569518D01*
X71871502Y-146449820D01*
X71812537Y-146339506D01*
X71733185Y-146242815D01*
X71636494Y-146163463D01*
X71526180Y-146104498D01*
X71406482Y-146068188D01*
X71282000Y-146055928D01*
X69917750Y-146059000D01*
X69759000Y-146217750D01*
X69505000Y-146217750D01*
X69346250Y-146059000D01*
X67982000Y-146055928D01*
X67857518Y-146068188D01*
X67737820Y-146104498D01*
X67627506Y-146163463D01*
X67530815Y-146242815D01*
X67451463Y-146339506D01*
X67392498Y-146449820D01*
X67356188Y-146569518D01*
X67343928Y-146694000D01*
X60927000Y-146694000D01*
X60927000Y-146602000D01*
X66350000Y-146602000D01*
X66374776Y-146599560D01*
X66398601Y-146592333D01*
X66420557Y-146580597D01*
X66439803Y-146564803D01*
X66455597Y-146545557D01*
X66467333Y-146523601D01*
X66474560Y-146499776D01*
X66477000Y-146475000D01*
X66477000Y-144677000D01*
X76725684Y-144677000D01*
X76669463Y-144745506D01*
G37*
X76669463Y-144745506D02*
X76610498Y-144855820D01*
X76574188Y-144975518D01*
X76561928Y-145100000D01*
X76565000Y-146264250D01*
X76723750Y-146423000D01*
X79773000Y-146423000D01*
X79773000Y-146403000D01*
X80027000Y-146403000D01*
X80027000Y-146423000D01*
X80047000Y-146423000D01*
X80047000Y-146677000D01*
X80027000Y-146677000D01*
X80027000Y-148476250D01*
X80185750Y-148635000D01*
X82600000Y-148638072D01*
X82724482Y-148625812D01*
X82844180Y-148589502D01*
X82953897Y-148530856D01*
X82949773Y-151016834D01*
X64692000Y-151028939D01*
X64692000Y-150777000D01*
X64712000Y-150777000D01*
X64712000Y-150127750D01*
X64966000Y-150127750D01*
X64966000Y-150777000D01*
X66090250Y-150777000D01*
X66249000Y-150618250D01*
X66252072Y-150604000D01*
X66239812Y-150479518D01*
X66203502Y-150359820D01*
X66144537Y-150249506D01*
X66065185Y-150152815D01*
X65968494Y-150073463D01*
X65858180Y-150014498D01*
X65738482Y-149978188D01*
X65614000Y-149965928D01*
X65124750Y-149969000D01*
X64966000Y-150127750D01*
X64712000Y-150127750D01*
X64553250Y-149969000D01*
X64372198Y-149967863D01*
X64373854Y-149877323D01*
X64371867Y-149852506D01*
X64365077Y-149828553D01*
X64353744Y-149806386D01*
X64338305Y-149786855D01*
X64319352Y-149770711D01*
X64297614Y-149758576D01*
X64273925Y-149750914D01*
X64246875Y-149748000D01*
X62260364Y-149748000D01*
X62330537Y-149662494D01*
X62389502Y-149552180D01*
X62425812Y-149432482D01*
X62438072Y-149308000D01*
X62437227Y-149194000D01*
X67343928Y-149194000D01*
X67356188Y-149318482D01*
X67392498Y-149438180D01*
X67451463Y-149548494D01*
X67530815Y-149645185D01*
X67627506Y-149724537D01*
X67737820Y-149783502D01*
X67857518Y-149819812D01*
X67982000Y-149832072D01*
X69346250Y-149829000D01*
X69505000Y-149670250D01*
X69505000Y-148071000D01*
X69759000Y-148071000D01*
X69759000Y-149670250D01*
X69917750Y-149829000D01*
X71282000Y-149832072D01*
X71406482Y-149819812D01*
X71526180Y-149783502D01*
X71636494Y-149724537D01*
X71733185Y-149645185D01*
X71812537Y-149548494D01*
X71871502Y-149438180D01*
X71907812Y-149318482D01*
X71920072Y-149194000D01*
X71917000Y-148229750D01*
X71758250Y-148071000D01*
X69759000Y-148071000D01*
X69505000Y-148071000D01*
X67505750Y-148071000D01*
X67347000Y-148229750D01*
X67343928Y-149194000D01*
X62437227Y-149194000D01*
X62435000Y-148893750D01*
X62276250Y-148735000D01*
X61439500Y-148735000D01*
X61439500Y-148755000D01*
X61185500Y-148755000D01*
X61185500Y-148735000D01*
X61165500Y-148735000D01*
X61165500Y-148481000D01*
X61185500Y-148481000D01*
X61185500Y-147431750D01*
X61439500Y-147431750D01*
X61439500Y-148481000D01*
X62276250Y-148481000D01*
X62435000Y-148322250D01*
X62437389Y-148000000D01*
X76561928Y-148000000D01*
X76574188Y-148124482D01*
X76610498Y-148244180D01*
X76669463Y-148354494D01*
X76748815Y-148451185D01*
X76845506Y-148530537D01*
X76955820Y-148589502D01*
X77075518Y-148625812D01*
X77200000Y-148638072D01*
X79614250Y-148635000D01*
X79773000Y-148476250D01*
X79773000Y-146677000D01*
X76723750Y-146677000D01*
X76565000Y-146835750D01*
X76561928Y-148000000D01*
X62437389Y-148000000D01*
X62438072Y-147908000D01*
X62425812Y-147783518D01*
X62389502Y-147663820D01*
X62330537Y-147553506D01*
X62251185Y-147456815D01*
X62154494Y-147377463D01*
X62044180Y-147318498D01*
X61924482Y-147282188D01*
X61800000Y-147269928D01*
X61598250Y-147273000D01*
X61439500Y-147431750D01*
X61185500Y-147431750D01*
X61026750Y-147273000D01*
X60927000Y-147271481D01*
X60927000Y-146694000D01*
X67343928Y-146694000D01*
X67347000Y-147658250D01*
X67505750Y-147817000D01*
X69505000Y-147817000D01*
X69505000Y-146217750D01*
X69759000Y-146217750D01*
X69759000Y-147817000D01*
X71758250Y-147817000D01*
X71917000Y-147658250D01*
X71920072Y-146694000D01*
X71907812Y-146569518D01*
X71871502Y-146449820D01*
X71812537Y-146339506D01*
X71733185Y-146242815D01*
X71636494Y-146163463D01*
X71526180Y-146104498D01*
X71406482Y-146068188D01*
X71282000Y-146055928D01*
X69917750Y-146059000D01*
X69759000Y-146217750D01*
X69505000Y-146217750D01*
X69346250Y-146059000D01*
X67982000Y-146055928D01*
X67857518Y-146068188D01*
X67737820Y-146104498D01*
X67627506Y-146163463D01*
X67530815Y-146242815D01*
X67451463Y-146339506D01*
X67392498Y-146449820D01*
X67356188Y-146569518D01*
X67343928Y-146694000D01*
X60927000Y-146694000D01*
X60927000Y-146602000D01*
X66350000Y-146602000D01*
X66374776Y-146599560D01*
X66398601Y-146592333D01*
X66420557Y-146580597D01*
X66439803Y-146564803D01*
X66455597Y-146545557D01*
X66467333Y-146523601D01*
X66474560Y-146499776D01*
X66477000Y-146475000D01*
X66477000Y-144677000D01*
X76725684Y-144677000D01*
X76669463Y-144745506D01*
%TO.N,+24V*%
G36*
X95972096Y-141723000D02*
G01*
X89050000Y-141723000D01*
X89025224Y-141725440D01*
X89001399Y-141732667D01*
X88979443Y-141744403D01*
X88960197Y-141760197D01*
X88944403Y-141779443D01*
X88932667Y-141801399D01*
X88925440Y-141825224D01*
X88923000Y-141850000D01*
X88923000Y-153400000D01*
X88925440Y-153424776D01*
X88932667Y-153448601D01*
X88944403Y-153470557D01*
X88960197Y-153489803D01*
X88979443Y-153505597D01*
X89001399Y-153517333D01*
X89025224Y-153524560D01*
X89049469Y-153526999D01*
X100873000Y-153576470D01*
X100873000Y-159497177D01*
X100870743Y-159501399D01*
X100863516Y-159525224D01*
X100861076Y-159550209D01*
X100884715Y-173922528D01*
X84927000Y-173863469D01*
X84927000Y-172100000D01*
X84924560Y-172075224D01*
X84917333Y-172051399D01*
X84905597Y-172029443D01*
X84883630Y-172004423D01*
X84483630Y-171654423D01*
X84463377Y-171639944D01*
X84440688Y-171629694D01*
X84416436Y-171624068D01*
X84400000Y-171623000D01*
X83587871Y-171623000D01*
X83401994Y-171566615D01*
X83253608Y-171552000D01*
X82617072Y-171552000D01*
X82617072Y-171027000D01*
X85550000Y-171027000D01*
X85574776Y-171024560D01*
X85598601Y-171017333D01*
X85620557Y-171005597D01*
X85639803Y-170989803D01*
X85655597Y-170970557D01*
X85667333Y-170948601D01*
X85674560Y-170924776D01*
X85677000Y-170900000D01*
X85677000Y-167677000D01*
X95450000Y-167677000D01*
X95474776Y-167674560D01*
X95498601Y-167667333D01*
X95520557Y-167655597D01*
X95539803Y-167639803D01*
X95555597Y-167620557D01*
X95567333Y-167598601D01*
X95574560Y-167574776D01*
X95576999Y-167549637D01*
X95553999Y-159499637D01*
X95551488Y-159474868D01*
X95544193Y-159451064D01*
X95532395Y-159429141D01*
X95516546Y-159409941D01*
X95497255Y-159394202D01*
X95475265Y-159382529D01*
X95451420Y-159375370D01*
X95427000Y-159373000D01*
X64527000Y-159373000D01*
X64527000Y-158127000D01*
X73100000Y-158127000D01*
X73124776Y-158124560D01*
X73148601Y-158117333D01*
X73170557Y-158105597D01*
X73189803Y-158089803D01*
X73205597Y-158070557D01*
X73217333Y-158048601D01*
X73224560Y-158024776D01*
X73227000Y-158000000D01*
X73227000Y-153527000D01*
X83950000Y-153527000D01*
X83974776Y-153524560D01*
X83998601Y-153517333D01*
X84020557Y-153505597D01*
X84039803Y-153489803D01*
X84055597Y-153470557D01*
X84067333Y-153448601D01*
X84074560Y-153424776D01*
X84077000Y-153400000D01*
X84077000Y-141850000D01*
X84074560Y-141825224D01*
X84067333Y-141801399D01*
X84055597Y-141779443D01*
X84039803Y-141760197D01*
X84020557Y-141744403D01*
X83998601Y-141732667D01*
X83974776Y-141725440D01*
X83950000Y-141723000D01*
X75327000Y-141723000D01*
X75327000Y-134927000D01*
X95923897Y-134927000D01*
X95972096Y-141723000D01*
G37*
X95972096Y-141723000D02*
X89050000Y-141723000D01*
X89025224Y-141725440D01*
X89001399Y-141732667D01*
X88979443Y-141744403D01*
X88960197Y-141760197D01*
X88944403Y-141779443D01*
X88932667Y-141801399D01*
X88925440Y-141825224D01*
X88923000Y-141850000D01*
X88923000Y-153400000D01*
X88925440Y-153424776D01*
X88932667Y-153448601D01*
X88944403Y-153470557D01*
X88960197Y-153489803D01*
X88979443Y-153505597D01*
X89001399Y-153517333D01*
X89025224Y-153524560D01*
X89049469Y-153526999D01*
X100873000Y-153576470D01*
X100873000Y-159497177D01*
X100870743Y-159501399D01*
X100863516Y-159525224D01*
X100861076Y-159550209D01*
X100884715Y-173922528D01*
X84927000Y-173863469D01*
X84927000Y-172100000D01*
X84924560Y-172075224D01*
X84917333Y-172051399D01*
X84905597Y-172029443D01*
X84883630Y-172004423D01*
X84483630Y-171654423D01*
X84463377Y-171639944D01*
X84440688Y-171629694D01*
X84416436Y-171624068D01*
X84400000Y-171623000D01*
X83587871Y-171623000D01*
X83401994Y-171566615D01*
X83253608Y-171552000D01*
X82617072Y-171552000D01*
X82617072Y-171027000D01*
X85550000Y-171027000D01*
X85574776Y-171024560D01*
X85598601Y-171017333D01*
X85620557Y-171005597D01*
X85639803Y-170989803D01*
X85655597Y-170970557D01*
X85667333Y-170948601D01*
X85674560Y-170924776D01*
X85677000Y-170900000D01*
X85677000Y-167677000D01*
X95450000Y-167677000D01*
X95474776Y-167674560D01*
X95498601Y-167667333D01*
X95520557Y-167655597D01*
X95539803Y-167639803D01*
X95555597Y-167620557D01*
X95567333Y-167598601D01*
X95574560Y-167574776D01*
X95576999Y-167549637D01*
X95553999Y-159499637D01*
X95551488Y-159474868D01*
X95544193Y-159451064D01*
X95532395Y-159429141D01*
X95516546Y-159409941D01*
X95497255Y-159394202D01*
X95475265Y-159382529D01*
X95451420Y-159375370D01*
X95427000Y-159373000D01*
X64527000Y-159373000D01*
X64527000Y-158127000D01*
X73100000Y-158127000D01*
X73124776Y-158124560D01*
X73148601Y-158117333D01*
X73170557Y-158105597D01*
X73189803Y-158089803D01*
X73205597Y-158070557D01*
X73217333Y-158048601D01*
X73224560Y-158024776D01*
X73227000Y-158000000D01*
X73227000Y-153527000D01*
X83950000Y-153527000D01*
X83974776Y-153524560D01*
X83998601Y-153517333D01*
X84020557Y-153505597D01*
X84039803Y-153489803D01*
X84055597Y-153470557D01*
X84067333Y-153448601D01*
X84074560Y-153424776D01*
X84077000Y-153400000D01*
X84077000Y-141850000D01*
X84074560Y-141825224D01*
X84067333Y-141801399D01*
X84055597Y-141779443D01*
X84039803Y-141760197D01*
X84020557Y-141744403D01*
X83998601Y-141732667D01*
X83974776Y-141725440D01*
X83950000Y-141723000D01*
X75327000Y-141723000D01*
X75327000Y-134927000D01*
X95923897Y-134927000D01*
X95972096Y-141723000D01*
%TO.N,GND*%
G36*
X68311750Y-152077000D02*
G01*
X68981000Y-152077000D01*
X68981000Y-152057000D01*
X69235000Y-152057000D01*
X69235000Y-152077000D01*
X69904250Y-152077000D01*
X70054250Y-151927000D01*
X71873000Y-151927000D01*
X71873000Y-156973000D01*
X70027000Y-156973000D01*
X70027000Y-155732921D01*
X70066628Y-155602285D01*
X70083572Y-155430250D01*
X70083572Y-154517750D01*
X70066628Y-154345715D01*
X70027000Y-154215079D01*
X70027000Y-153553800D01*
X70050977Y-153474757D01*
X70066072Y-153321500D01*
X70066072Y-153026500D01*
X70050977Y-152873243D01*
X70027000Y-152794200D01*
X70027000Y-152711869D01*
X70053812Y-152623482D01*
X70066072Y-152499000D01*
X70063000Y-152489750D01*
X69904250Y-152331000D01*
X69637763Y-152331000D01*
X69581125Y-152300726D01*
X69433757Y-152256023D01*
X69280500Y-152240928D01*
X68935500Y-152240928D01*
X68782243Y-152256023D01*
X68634875Y-152300726D01*
X68578237Y-152331000D01*
X68311750Y-152331000D01*
X68169750Y-152473000D01*
X68047083Y-152473000D01*
X68047000Y-152472750D01*
X67888250Y-152314000D01*
X67621763Y-152314000D01*
X67565125Y-152283726D01*
X67417757Y-152239023D01*
X67264500Y-152223928D01*
X66919500Y-152223928D01*
X66766243Y-152239023D01*
X66618875Y-152283726D01*
X66562237Y-152314000D01*
X66295750Y-152314000D01*
X66199500Y-152410250D01*
X66090250Y-152301000D01*
X64966000Y-152301000D01*
X64966000Y-152321000D01*
X64712000Y-152321000D01*
X64712000Y-152301000D01*
X64692000Y-152301000D01*
X64692000Y-152047000D01*
X64712000Y-152047000D01*
X64712000Y-152027000D01*
X64966000Y-152027000D01*
X64966000Y-152047000D01*
X66090250Y-152047000D01*
X66186500Y-151950750D01*
X66295750Y-152060000D01*
X66965000Y-152060000D01*
X66965000Y-152040000D01*
X67219000Y-152040000D01*
X67219000Y-152060000D01*
X67888250Y-152060000D01*
X68021250Y-151927000D01*
X68161750Y-151927000D01*
X68311750Y-152077000D01*
G37*
X68311750Y-152077000D02*
X68981000Y-152077000D01*
X68981000Y-152057000D01*
X69235000Y-152057000D01*
X69235000Y-152077000D01*
X69904250Y-152077000D01*
X70054250Y-151927000D01*
X71873000Y-151927000D01*
X71873000Y-156973000D01*
X70027000Y-156973000D01*
X70027000Y-155732921D01*
X70066628Y-155602285D01*
X70083572Y-155430250D01*
X70083572Y-154517750D01*
X70066628Y-154345715D01*
X70027000Y-154215079D01*
X70027000Y-153553800D01*
X70050977Y-153474757D01*
X70066072Y-153321500D01*
X70066072Y-153026500D01*
X70050977Y-152873243D01*
X70027000Y-152794200D01*
X70027000Y-152711869D01*
X70053812Y-152623482D01*
X70066072Y-152499000D01*
X70063000Y-152489750D01*
X69904250Y-152331000D01*
X69637763Y-152331000D01*
X69581125Y-152300726D01*
X69433757Y-152256023D01*
X69280500Y-152240928D01*
X68935500Y-152240928D01*
X68782243Y-152256023D01*
X68634875Y-152300726D01*
X68578237Y-152331000D01*
X68311750Y-152331000D01*
X68169750Y-152473000D01*
X68047083Y-152473000D01*
X68047000Y-152472750D01*
X67888250Y-152314000D01*
X67621763Y-152314000D01*
X67565125Y-152283726D01*
X67417757Y-152239023D01*
X67264500Y-152223928D01*
X66919500Y-152223928D01*
X66766243Y-152239023D01*
X66618875Y-152283726D01*
X66562237Y-152314000D01*
X66295750Y-152314000D01*
X66199500Y-152410250D01*
X66090250Y-152301000D01*
X64966000Y-152301000D01*
X64966000Y-152321000D01*
X64712000Y-152321000D01*
X64712000Y-152301000D01*
X64692000Y-152301000D01*
X64692000Y-152047000D01*
X64712000Y-152047000D01*
X64712000Y-152027000D01*
X64966000Y-152027000D01*
X64966000Y-152047000D01*
X66090250Y-152047000D01*
X66186500Y-151950750D01*
X66295750Y-152060000D01*
X66965000Y-152060000D01*
X66965000Y-152040000D01*
X67219000Y-152040000D01*
X67219000Y-152060000D01*
X67888250Y-152060000D01*
X68021250Y-151927000D01*
X68161750Y-151927000D01*
X68311750Y-152077000D01*
%TO.N,Net-(C15-Pad1)*%
G36*
X82173000Y-166800000D02*
G01*
X82175440Y-166824776D01*
X82182667Y-166848601D01*
X82194403Y-166870557D01*
X82210197Y-166889803D01*
X82229443Y-166905597D01*
X82251399Y-166917333D01*
X82275224Y-166924560D01*
X82300000Y-166927000D01*
X84773000Y-166927000D01*
X84773000Y-170223000D01*
X82627000Y-170223000D01*
X82627000Y-168900000D01*
X82624560Y-168875224D01*
X82617333Y-168851399D01*
X82605597Y-168829443D01*
X82589803Y-168810197D01*
X82570557Y-168794403D01*
X82548601Y-168782667D01*
X82524776Y-168775440D01*
X82500000Y-168773000D01*
X78927000Y-168773000D01*
X78927000Y-166200000D01*
X78924560Y-166175224D01*
X78917333Y-166151399D01*
X78905597Y-166129443D01*
X78889803Y-166110197D01*
X78870557Y-166094403D01*
X78848601Y-166082667D01*
X78824776Y-166075440D01*
X78800000Y-166073000D01*
X65627000Y-166073000D01*
X65627000Y-160727000D01*
X82173000Y-160727000D01*
X82173000Y-166800000D01*
G37*
X82173000Y-166800000D02*
X82175440Y-166824776D01*
X82182667Y-166848601D01*
X82194403Y-166870557D01*
X82210197Y-166889803D01*
X82229443Y-166905597D01*
X82251399Y-166917333D01*
X82275224Y-166924560D01*
X82300000Y-166927000D01*
X84773000Y-166927000D01*
X84773000Y-170223000D01*
X82627000Y-170223000D01*
X82627000Y-168900000D01*
X82624560Y-168875224D01*
X82617333Y-168851399D01*
X82605597Y-168829443D01*
X82589803Y-168810197D01*
X82570557Y-168794403D01*
X82548601Y-168782667D01*
X82524776Y-168775440D01*
X82500000Y-168773000D01*
X78927000Y-168773000D01*
X78927000Y-166200000D01*
X78924560Y-166175224D01*
X78917333Y-166151399D01*
X78905597Y-166129443D01*
X78889803Y-166110197D01*
X78870557Y-166094403D01*
X78848601Y-166082667D01*
X78824776Y-166075440D01*
X78800000Y-166073000D01*
X65627000Y-166073000D01*
X65627000Y-160727000D01*
X82173000Y-160727000D01*
X82173000Y-166800000D01*
%TO.N,GND*%
G36*
X94173000Y-166073000D02*
G01*
X93824316Y-166073000D01*
X93880537Y-166004494D01*
X93939502Y-165894180D01*
X93975812Y-165774482D01*
X93988072Y-165650000D01*
X93985000Y-163935750D01*
X93826250Y-163777000D01*
X92227000Y-163777000D01*
X92227000Y-163797000D01*
X91973000Y-163797000D01*
X91973000Y-163777000D01*
X90373750Y-163777000D01*
X90215000Y-163935750D01*
X90211928Y-165650000D01*
X90224188Y-165774482D01*
X90260498Y-165894180D01*
X90319463Y-166004494D01*
X90375684Y-166073000D01*
X83377000Y-166073000D01*
X83377000Y-165774097D01*
X83405820Y-165789502D01*
X83525518Y-165825812D01*
X83650000Y-165838072D01*
X84614250Y-165835000D01*
X84773000Y-165676250D01*
X84773000Y-163677000D01*
X85027000Y-163677000D01*
X85027000Y-165676250D01*
X85185750Y-165835000D01*
X86150000Y-165838072D01*
X86274482Y-165825812D01*
X86394180Y-165789502D01*
X86504494Y-165730537D01*
X86601185Y-165651185D01*
X86680537Y-165554494D01*
X86739502Y-165444180D01*
X86775812Y-165324482D01*
X86788072Y-165200000D01*
X86785000Y-163835750D01*
X86626250Y-163677000D01*
X85027000Y-163677000D01*
X84773000Y-163677000D01*
X84753000Y-163677000D01*
X84753000Y-163423000D01*
X84773000Y-163423000D01*
X84773000Y-161423750D01*
X85027000Y-161423750D01*
X85027000Y-163423000D01*
X86626250Y-163423000D01*
X86785000Y-163264250D01*
X86788072Y-161900000D01*
X86775812Y-161775518D01*
X86739502Y-161655820D01*
X86736392Y-161650000D01*
X90211928Y-161650000D01*
X90215000Y-163364250D01*
X90373750Y-163523000D01*
X91973000Y-163523000D01*
X91973000Y-161173750D01*
X92227000Y-161173750D01*
X92227000Y-163523000D01*
X93826250Y-163523000D01*
X93985000Y-163364250D01*
X93988072Y-161650000D01*
X93975812Y-161525518D01*
X93939502Y-161405820D01*
X93880537Y-161295506D01*
X93801185Y-161198815D01*
X93704494Y-161119463D01*
X93594180Y-161060498D01*
X93474482Y-161024188D01*
X93350000Y-161011928D01*
X92385750Y-161015000D01*
X92227000Y-161173750D01*
X91973000Y-161173750D01*
X91814250Y-161015000D01*
X90850000Y-161011928D01*
X90725518Y-161024188D01*
X90605820Y-161060498D01*
X90495506Y-161119463D01*
X90398815Y-161198815D01*
X90319463Y-161295506D01*
X90260498Y-161405820D01*
X90224188Y-161525518D01*
X90211928Y-161650000D01*
X86736392Y-161650000D01*
X86680537Y-161545506D01*
X86601185Y-161448815D01*
X86504494Y-161369463D01*
X86394180Y-161310498D01*
X86274482Y-161274188D01*
X86150000Y-161261928D01*
X85185750Y-161265000D01*
X85027000Y-161423750D01*
X84773000Y-161423750D01*
X84614250Y-161265000D01*
X83650000Y-161261928D01*
X83525518Y-161274188D01*
X83405820Y-161310498D01*
X83377000Y-161325903D01*
X83377000Y-160727000D01*
X94173000Y-160727000D01*
X94173000Y-166073000D01*
G37*
X94173000Y-166073000D02*
X93824316Y-166073000D01*
X93880537Y-166004494D01*
X93939502Y-165894180D01*
X93975812Y-165774482D01*
X93988072Y-165650000D01*
X93985000Y-163935750D01*
X93826250Y-163777000D01*
X92227000Y-163777000D01*
X92227000Y-163797000D01*
X91973000Y-163797000D01*
X91973000Y-163777000D01*
X90373750Y-163777000D01*
X90215000Y-163935750D01*
X90211928Y-165650000D01*
X90224188Y-165774482D01*
X90260498Y-165894180D01*
X90319463Y-166004494D01*
X90375684Y-166073000D01*
X83377000Y-166073000D01*
X83377000Y-165774097D01*
X83405820Y-165789502D01*
X83525518Y-165825812D01*
X83650000Y-165838072D01*
X84614250Y-165835000D01*
X84773000Y-165676250D01*
X84773000Y-163677000D01*
X85027000Y-163677000D01*
X85027000Y-165676250D01*
X85185750Y-165835000D01*
X86150000Y-165838072D01*
X86274482Y-165825812D01*
X86394180Y-165789502D01*
X86504494Y-165730537D01*
X86601185Y-165651185D01*
X86680537Y-165554494D01*
X86739502Y-165444180D01*
X86775812Y-165324482D01*
X86788072Y-165200000D01*
X86785000Y-163835750D01*
X86626250Y-163677000D01*
X85027000Y-163677000D01*
X84773000Y-163677000D01*
X84753000Y-163677000D01*
X84753000Y-163423000D01*
X84773000Y-163423000D01*
X84773000Y-161423750D01*
X85027000Y-161423750D01*
X85027000Y-163423000D01*
X86626250Y-163423000D01*
X86785000Y-163264250D01*
X86788072Y-161900000D01*
X86775812Y-161775518D01*
X86739502Y-161655820D01*
X86736392Y-161650000D01*
X90211928Y-161650000D01*
X90215000Y-163364250D01*
X90373750Y-163523000D01*
X91973000Y-163523000D01*
X91973000Y-161173750D01*
X92227000Y-161173750D01*
X92227000Y-163523000D01*
X93826250Y-163523000D01*
X93985000Y-163364250D01*
X93988072Y-161650000D01*
X93975812Y-161525518D01*
X93939502Y-161405820D01*
X93880537Y-161295506D01*
X93801185Y-161198815D01*
X93704494Y-161119463D01*
X93594180Y-161060498D01*
X93474482Y-161024188D01*
X93350000Y-161011928D01*
X92385750Y-161015000D01*
X92227000Y-161173750D01*
X91973000Y-161173750D01*
X91814250Y-161015000D01*
X90850000Y-161011928D01*
X90725518Y-161024188D01*
X90605820Y-161060498D01*
X90495506Y-161119463D01*
X90398815Y-161198815D01*
X90319463Y-161295506D01*
X90260498Y-161405820D01*
X90224188Y-161525518D01*
X90211928Y-161650000D01*
X86736392Y-161650000D01*
X86680537Y-161545506D01*
X86601185Y-161448815D01*
X86504494Y-161369463D01*
X86394180Y-161310498D01*
X86274482Y-161274188D01*
X86150000Y-161261928D01*
X85185750Y-161265000D01*
X85027000Y-161423750D01*
X84773000Y-161423750D01*
X84614250Y-161265000D01*
X83650000Y-161261928D01*
X83525518Y-161274188D01*
X83405820Y-161310498D01*
X83377000Y-161325903D01*
X83377000Y-160727000D01*
X94173000Y-160727000D01*
X94173000Y-166073000D01*
%TO.N,+12V*%
G36*
X74823000Y-167951572D02*
G01*
X74823000Y-182848000D01*
X52777417Y-182848000D01*
X52826582Y-167877427D01*
X74823000Y-167951572D01*
G37*
X74823000Y-167951572D02*
X74823000Y-182848000D01*
X52777417Y-182848000D01*
X52826582Y-167877427D01*
X74823000Y-167951572D01*
%TO.N,GND*%
G36*
X72774116Y-143173000D02*
G01*
X59127374Y-143173000D01*
X59130124Y-142238000D01*
X60833928Y-142238000D01*
X60846188Y-142362482D01*
X60882498Y-142482180D01*
X60941463Y-142592494D01*
X61020815Y-142689185D01*
X61117506Y-142768537D01*
X61227820Y-142827502D01*
X61347518Y-142863812D01*
X61472000Y-142876072D01*
X63186250Y-142873000D01*
X63345000Y-142714250D01*
X63345000Y-141115000D01*
X63599000Y-141115000D01*
X63599000Y-142714250D01*
X63757750Y-142873000D01*
X65472000Y-142876072D01*
X65596482Y-142863812D01*
X65716180Y-142827502D01*
X65826494Y-142768537D01*
X65923185Y-142689185D01*
X66002537Y-142592494D01*
X66061502Y-142482180D01*
X66088251Y-142394000D01*
X67343928Y-142394000D01*
X67356188Y-142518482D01*
X67392498Y-142638180D01*
X67451463Y-142748494D01*
X67530815Y-142845185D01*
X67627506Y-142924537D01*
X67737820Y-142983502D01*
X67857518Y-143019812D01*
X67982000Y-143032072D01*
X69346250Y-143029000D01*
X69505000Y-142870250D01*
X69505000Y-141271000D01*
X69759000Y-141271000D01*
X69759000Y-142870250D01*
X69917750Y-143029000D01*
X71282000Y-143032072D01*
X71406482Y-143019812D01*
X71526180Y-142983502D01*
X71636494Y-142924537D01*
X71733185Y-142845185D01*
X71812537Y-142748494D01*
X71871502Y-142638180D01*
X71907812Y-142518482D01*
X71920072Y-142394000D01*
X71917000Y-141429750D01*
X71758250Y-141271000D01*
X69759000Y-141271000D01*
X69505000Y-141271000D01*
X67505750Y-141271000D01*
X67347000Y-141429750D01*
X67343928Y-142394000D01*
X66088251Y-142394000D01*
X66097812Y-142362482D01*
X66110072Y-142238000D01*
X66107000Y-141273750D01*
X65948250Y-141115000D01*
X63599000Y-141115000D01*
X63345000Y-141115000D01*
X60995750Y-141115000D01*
X60837000Y-141273750D01*
X60833928Y-142238000D01*
X59130124Y-142238000D01*
X59137476Y-139738000D01*
X60833928Y-139738000D01*
X60837000Y-140702250D01*
X60995750Y-140861000D01*
X63345000Y-140861000D01*
X63345000Y-139261750D01*
X63599000Y-139261750D01*
X63599000Y-140861000D01*
X65948250Y-140861000D01*
X66107000Y-140702250D01*
X66109575Y-139894000D01*
X67343928Y-139894000D01*
X67347000Y-140858250D01*
X67505750Y-141017000D01*
X69505000Y-141017000D01*
X69505000Y-139417750D01*
X69759000Y-139417750D01*
X69759000Y-141017000D01*
X71758250Y-141017000D01*
X71917000Y-140858250D01*
X71920072Y-139894000D01*
X71907812Y-139769518D01*
X71871502Y-139649820D01*
X71812537Y-139539506D01*
X71733185Y-139442815D01*
X71636494Y-139363463D01*
X71526180Y-139304498D01*
X71406482Y-139268188D01*
X71282000Y-139255928D01*
X69917750Y-139259000D01*
X69759000Y-139417750D01*
X69505000Y-139417750D01*
X69346250Y-139259000D01*
X67982000Y-139255928D01*
X67857518Y-139268188D01*
X67737820Y-139304498D01*
X67627506Y-139363463D01*
X67530815Y-139442815D01*
X67451463Y-139539506D01*
X67392498Y-139649820D01*
X67356188Y-139769518D01*
X67343928Y-139894000D01*
X66109575Y-139894000D01*
X66110072Y-139738000D01*
X66097812Y-139613518D01*
X66061502Y-139493820D01*
X66002537Y-139383506D01*
X65923185Y-139286815D01*
X65826494Y-139207463D01*
X65716180Y-139148498D01*
X65596482Y-139112188D01*
X65472000Y-139099928D01*
X63757750Y-139103000D01*
X63599000Y-139261750D01*
X63345000Y-139261750D01*
X63186250Y-139103000D01*
X61472000Y-139099928D01*
X61347518Y-139112188D01*
X61227820Y-139148498D01*
X61117506Y-139207463D01*
X61020815Y-139286815D01*
X60941463Y-139383506D01*
X60882498Y-139493820D01*
X60846188Y-139613518D01*
X60833928Y-139738000D01*
X59137476Y-139738000D01*
X59151627Y-134927000D01*
X72846875Y-134927000D01*
X72774116Y-143173000D01*
G37*
X72774116Y-143173000D02*
X59127374Y-143173000D01*
X59130124Y-142238000D01*
X60833928Y-142238000D01*
X60846188Y-142362482D01*
X60882498Y-142482180D01*
X60941463Y-142592494D01*
X61020815Y-142689185D01*
X61117506Y-142768537D01*
X61227820Y-142827502D01*
X61347518Y-142863812D01*
X61472000Y-142876072D01*
X63186250Y-142873000D01*
X63345000Y-142714250D01*
X63345000Y-141115000D01*
X63599000Y-141115000D01*
X63599000Y-142714250D01*
X63757750Y-142873000D01*
X65472000Y-142876072D01*
X65596482Y-142863812D01*
X65716180Y-142827502D01*
X65826494Y-142768537D01*
X65923185Y-142689185D01*
X66002537Y-142592494D01*
X66061502Y-142482180D01*
X66088251Y-142394000D01*
X67343928Y-142394000D01*
X67356188Y-142518482D01*
X67392498Y-142638180D01*
X67451463Y-142748494D01*
X67530815Y-142845185D01*
X67627506Y-142924537D01*
X67737820Y-142983502D01*
X67857518Y-143019812D01*
X67982000Y-143032072D01*
X69346250Y-143029000D01*
X69505000Y-142870250D01*
X69505000Y-141271000D01*
X69759000Y-141271000D01*
X69759000Y-142870250D01*
X69917750Y-143029000D01*
X71282000Y-143032072D01*
X71406482Y-143019812D01*
X71526180Y-142983502D01*
X71636494Y-142924537D01*
X71733185Y-142845185D01*
X71812537Y-142748494D01*
X71871502Y-142638180D01*
X71907812Y-142518482D01*
X71920072Y-142394000D01*
X71917000Y-141429750D01*
X71758250Y-141271000D01*
X69759000Y-141271000D01*
X69505000Y-141271000D01*
X67505750Y-141271000D01*
X67347000Y-141429750D01*
X67343928Y-142394000D01*
X66088251Y-142394000D01*
X66097812Y-142362482D01*
X66110072Y-142238000D01*
X66107000Y-141273750D01*
X65948250Y-141115000D01*
X63599000Y-141115000D01*
X63345000Y-141115000D01*
X60995750Y-141115000D01*
X60837000Y-141273750D01*
X60833928Y-142238000D01*
X59130124Y-142238000D01*
X59137476Y-139738000D01*
X60833928Y-139738000D01*
X60837000Y-140702250D01*
X60995750Y-140861000D01*
X63345000Y-140861000D01*
X63345000Y-139261750D01*
X63599000Y-139261750D01*
X63599000Y-140861000D01*
X65948250Y-140861000D01*
X66107000Y-140702250D01*
X66109575Y-139894000D01*
X67343928Y-139894000D01*
X67347000Y-140858250D01*
X67505750Y-141017000D01*
X69505000Y-141017000D01*
X69505000Y-139417750D01*
X69759000Y-139417750D01*
X69759000Y-141017000D01*
X71758250Y-141017000D01*
X71917000Y-140858250D01*
X71920072Y-139894000D01*
X71907812Y-139769518D01*
X71871502Y-139649820D01*
X71812537Y-139539506D01*
X71733185Y-139442815D01*
X71636494Y-139363463D01*
X71526180Y-139304498D01*
X71406482Y-139268188D01*
X71282000Y-139255928D01*
X69917750Y-139259000D01*
X69759000Y-139417750D01*
X69505000Y-139417750D01*
X69346250Y-139259000D01*
X67982000Y-139255928D01*
X67857518Y-139268188D01*
X67737820Y-139304498D01*
X67627506Y-139363463D01*
X67530815Y-139442815D01*
X67451463Y-139539506D01*
X67392498Y-139649820D01*
X67356188Y-139769518D01*
X67343928Y-139894000D01*
X66109575Y-139894000D01*
X66110072Y-139738000D01*
X66097812Y-139613518D01*
X66061502Y-139493820D01*
X66002537Y-139383506D01*
X65923185Y-139286815D01*
X65826494Y-139207463D01*
X65716180Y-139148498D01*
X65596482Y-139112188D01*
X65472000Y-139099928D01*
X63757750Y-139103000D01*
X63599000Y-139261750D01*
X63345000Y-139261750D01*
X63186250Y-139103000D01*
X61472000Y-139099928D01*
X61347518Y-139112188D01*
X61227820Y-139148498D01*
X61117506Y-139207463D01*
X61020815Y-139286815D01*
X60941463Y-139383506D01*
X60882498Y-139493820D01*
X60846188Y-139613518D01*
X60833928Y-139738000D01*
X59137476Y-139738000D01*
X59151627Y-134927000D01*
X72846875Y-134927000D01*
X72774116Y-143173000D01*
G36*
X46379583Y-162653452D02*
G01*
X46877021Y-162697123D01*
X47373422Y-162642909D01*
X47423932Y-162627000D01*
X55012066Y-162627000D01*
X55015000Y-164264250D01*
X55173750Y-164423000D01*
X56773000Y-164423000D01*
X56773000Y-164403000D01*
X57027000Y-164403000D01*
X57027000Y-164423000D01*
X58626250Y-164423000D01*
X58785000Y-164264250D01*
X58787934Y-162627000D01*
X61973000Y-162627000D01*
X61973000Y-166673000D01*
X58775958Y-166673000D01*
X58788072Y-166550000D01*
X58785000Y-164835750D01*
X58626250Y-164677000D01*
X57027000Y-164677000D01*
X57027000Y-164697000D01*
X56773000Y-164697000D01*
X56773000Y-164677000D01*
X55173750Y-164677000D01*
X55015000Y-164835750D01*
X55011928Y-166550000D01*
X55024042Y-166673000D01*
X50980882Y-166673000D01*
X50988072Y-166600000D01*
X50985000Y-166398250D01*
X50826250Y-166239500D01*
X49777000Y-166239500D01*
X49777000Y-166259500D01*
X49523000Y-166259500D01*
X49523000Y-166239500D01*
X48473750Y-166239500D01*
X48315000Y-166398250D01*
X48311928Y-166600000D01*
X48319118Y-166673000D01*
X45577000Y-166673000D01*
X45577000Y-165625000D01*
X48311928Y-165625000D01*
X48315000Y-165826750D01*
X48473750Y-165985500D01*
X49523000Y-165985500D01*
X49523000Y-165148750D01*
X49777000Y-165148750D01*
X49777000Y-165985500D01*
X50826250Y-165985500D01*
X50985000Y-165826750D01*
X50988072Y-165625000D01*
X50975812Y-165500518D01*
X50939502Y-165380820D01*
X50880537Y-165270506D01*
X50801185Y-165173815D01*
X50704494Y-165094463D01*
X50594180Y-165035498D01*
X50474482Y-164999188D01*
X50350000Y-164986928D01*
X49935750Y-164990000D01*
X49777000Y-165148750D01*
X49523000Y-165148750D01*
X49364250Y-164990000D01*
X48950000Y-164986928D01*
X48825518Y-164999188D01*
X48705820Y-165035498D01*
X48595506Y-165094463D01*
X48498815Y-165173815D01*
X48419463Y-165270506D01*
X48360498Y-165380820D01*
X48324188Y-165500518D01*
X48311928Y-165625000D01*
X45577000Y-165625000D01*
X45577000Y-162627000D01*
X46288932Y-162627000D01*
X46379583Y-162653452D01*
G37*
X46379583Y-162653452D02*
X46877021Y-162697123D01*
X47373422Y-162642909D01*
X47423932Y-162627000D01*
X55012066Y-162627000D01*
X55015000Y-164264250D01*
X55173750Y-164423000D01*
X56773000Y-164423000D01*
X56773000Y-164403000D01*
X57027000Y-164403000D01*
X57027000Y-164423000D01*
X58626250Y-164423000D01*
X58785000Y-164264250D01*
X58787934Y-162627000D01*
X61973000Y-162627000D01*
X61973000Y-166673000D01*
X58775958Y-166673000D01*
X58788072Y-166550000D01*
X58785000Y-164835750D01*
X58626250Y-164677000D01*
X57027000Y-164677000D01*
X57027000Y-164697000D01*
X56773000Y-164697000D01*
X56773000Y-164677000D01*
X55173750Y-164677000D01*
X55015000Y-164835750D01*
X55011928Y-166550000D01*
X55024042Y-166673000D01*
X50980882Y-166673000D01*
X50988072Y-166600000D01*
X50985000Y-166398250D01*
X50826250Y-166239500D01*
X49777000Y-166239500D01*
X49777000Y-166259500D01*
X49523000Y-166259500D01*
X49523000Y-166239500D01*
X48473750Y-166239500D01*
X48315000Y-166398250D01*
X48311928Y-166600000D01*
X48319118Y-166673000D01*
X45577000Y-166673000D01*
X45577000Y-165625000D01*
X48311928Y-165625000D01*
X48315000Y-165826750D01*
X48473750Y-165985500D01*
X49523000Y-165985500D01*
X49523000Y-165148750D01*
X49777000Y-165148750D01*
X49777000Y-165985500D01*
X50826250Y-165985500D01*
X50985000Y-165826750D01*
X50988072Y-165625000D01*
X50975812Y-165500518D01*
X50939502Y-165380820D01*
X50880537Y-165270506D01*
X50801185Y-165173815D01*
X50704494Y-165094463D01*
X50594180Y-165035498D01*
X50474482Y-164999188D01*
X50350000Y-164986928D01*
X49935750Y-164990000D01*
X49777000Y-165148750D01*
X49523000Y-165148750D01*
X49364250Y-164990000D01*
X48950000Y-164986928D01*
X48825518Y-164999188D01*
X48705820Y-165035498D01*
X48595506Y-165094463D01*
X48498815Y-165173815D01*
X48419463Y-165270506D01*
X48360498Y-165380820D01*
X48324188Y-165500518D01*
X48311928Y-165625000D01*
X45577000Y-165625000D01*
X45577000Y-162627000D01*
X46288932Y-162627000D01*
X46379583Y-162653452D01*
G36*
X81723000Y-174814411D02*
G01*
X81723000Y-176950000D01*
X81725440Y-176974776D01*
X81732667Y-176998601D01*
X81744403Y-177020557D01*
X81760197Y-177039803D01*
X81779443Y-177055597D01*
X81801399Y-177067333D01*
X81825224Y-177074560D01*
X81850000Y-177077000D01*
X81919118Y-177077000D01*
X81911928Y-177150000D01*
X81915000Y-177351750D01*
X82073750Y-177510500D01*
X83123000Y-177510500D01*
X83123000Y-177490500D01*
X83377000Y-177490500D01*
X83377000Y-177510500D01*
X83397000Y-177510500D01*
X83397000Y-177764500D01*
X83377000Y-177764500D01*
X83377000Y-178601250D01*
X83535750Y-178760000D01*
X83950000Y-178763072D01*
X84073000Y-178750958D01*
X84073000Y-180322568D01*
X76977000Y-180298432D01*
X76977000Y-180263054D01*
X77314250Y-180260000D01*
X77473000Y-180101250D01*
X77473000Y-178877000D01*
X77727000Y-178877000D01*
X77727000Y-180101250D01*
X77885750Y-180260000D01*
X78225000Y-180263072D01*
X78349482Y-180250812D01*
X78469180Y-180214502D01*
X78579494Y-180155537D01*
X78676185Y-180076185D01*
X78755537Y-179979494D01*
X78814502Y-179869180D01*
X78850812Y-179749482D01*
X78863072Y-179625000D01*
X78860000Y-179035750D01*
X78701250Y-178877000D01*
X77727000Y-178877000D01*
X77473000Y-178877000D01*
X77453000Y-178877000D01*
X77453000Y-178623000D01*
X77473000Y-178623000D01*
X77473000Y-178603000D01*
X77727000Y-178603000D01*
X77727000Y-178623000D01*
X78701250Y-178623000D01*
X78860000Y-178464250D01*
X78861768Y-178125000D01*
X81911928Y-178125000D01*
X81924188Y-178249482D01*
X81960498Y-178369180D01*
X82019463Y-178479494D01*
X82098815Y-178576185D01*
X82195506Y-178655537D01*
X82305820Y-178714502D01*
X82425518Y-178750812D01*
X82550000Y-178763072D01*
X82964250Y-178760000D01*
X83123000Y-178601250D01*
X83123000Y-177764500D01*
X82073750Y-177764500D01*
X81915000Y-177923250D01*
X81911928Y-178125000D01*
X78861768Y-178125000D01*
X78863072Y-177875000D01*
X78850812Y-177750518D01*
X78842139Y-177721928D01*
X79348730Y-177726994D01*
X79373530Y-177724801D01*
X79397425Y-177717813D01*
X79419498Y-177706297D01*
X79438900Y-177690696D01*
X79454886Y-177671610D01*
X79466841Y-177649772D01*
X79474306Y-177626021D01*
X79477000Y-177600000D01*
X79477000Y-177280779D01*
X79493320Y-177289502D01*
X79613018Y-177325812D01*
X79737500Y-177338072D01*
X79939250Y-177335000D01*
X80098000Y-177176250D01*
X80098000Y-176127000D01*
X80352000Y-176127000D01*
X80352000Y-177176250D01*
X80510750Y-177335000D01*
X80712500Y-177338072D01*
X80836982Y-177325812D01*
X80956680Y-177289502D01*
X81066994Y-177230537D01*
X81163685Y-177151185D01*
X81243037Y-177054494D01*
X81302002Y-176944180D01*
X81338312Y-176824482D01*
X81350572Y-176700000D01*
X81347500Y-176285750D01*
X81188750Y-176127000D01*
X80352000Y-176127000D01*
X80098000Y-176127000D01*
X80078000Y-176127000D01*
X80078000Y-175873000D01*
X80098000Y-175873000D01*
X80098000Y-175853000D01*
X80352000Y-175853000D01*
X80352000Y-175873000D01*
X81188750Y-175873000D01*
X81347500Y-175714250D01*
X81350572Y-175300000D01*
X81338312Y-175175518D01*
X81302002Y-175055820D01*
X81243037Y-174945506D01*
X81163685Y-174848815D01*
X81119865Y-174812853D01*
X81723000Y-174814411D01*
G37*
X81723000Y-174814411D02*
X81723000Y-176950000D01*
X81725440Y-176974776D01*
X81732667Y-176998601D01*
X81744403Y-177020557D01*
X81760197Y-177039803D01*
X81779443Y-177055597D01*
X81801399Y-177067333D01*
X81825224Y-177074560D01*
X81850000Y-177077000D01*
X81919118Y-177077000D01*
X81911928Y-177150000D01*
X81915000Y-177351750D01*
X82073750Y-177510500D01*
X83123000Y-177510500D01*
X83123000Y-177490500D01*
X83377000Y-177490500D01*
X83377000Y-177510500D01*
X83397000Y-177510500D01*
X83397000Y-177764500D01*
X83377000Y-177764500D01*
X83377000Y-178601250D01*
X83535750Y-178760000D01*
X83950000Y-178763072D01*
X84073000Y-178750958D01*
X84073000Y-180322568D01*
X76977000Y-180298432D01*
X76977000Y-180263054D01*
X77314250Y-180260000D01*
X77473000Y-180101250D01*
X77473000Y-178877000D01*
X77727000Y-178877000D01*
X77727000Y-180101250D01*
X77885750Y-180260000D01*
X78225000Y-180263072D01*
X78349482Y-180250812D01*
X78469180Y-180214502D01*
X78579494Y-180155537D01*
X78676185Y-180076185D01*
X78755537Y-179979494D01*
X78814502Y-179869180D01*
X78850812Y-179749482D01*
X78863072Y-179625000D01*
X78860000Y-179035750D01*
X78701250Y-178877000D01*
X77727000Y-178877000D01*
X77473000Y-178877000D01*
X77453000Y-178877000D01*
X77453000Y-178623000D01*
X77473000Y-178623000D01*
X77473000Y-178603000D01*
X77727000Y-178603000D01*
X77727000Y-178623000D01*
X78701250Y-178623000D01*
X78860000Y-178464250D01*
X78861768Y-178125000D01*
X81911928Y-178125000D01*
X81924188Y-178249482D01*
X81960498Y-178369180D01*
X82019463Y-178479494D01*
X82098815Y-178576185D01*
X82195506Y-178655537D01*
X82305820Y-178714502D01*
X82425518Y-178750812D01*
X82550000Y-178763072D01*
X82964250Y-178760000D01*
X83123000Y-178601250D01*
X83123000Y-177764500D01*
X82073750Y-177764500D01*
X81915000Y-177923250D01*
X81911928Y-178125000D01*
X78861768Y-178125000D01*
X78863072Y-177875000D01*
X78850812Y-177750518D01*
X78842139Y-177721928D01*
X79348730Y-177726994D01*
X79373530Y-177724801D01*
X79397425Y-177717813D01*
X79419498Y-177706297D01*
X79438900Y-177690696D01*
X79454886Y-177671610D01*
X79466841Y-177649772D01*
X79474306Y-177626021D01*
X79477000Y-177600000D01*
X79477000Y-177280779D01*
X79493320Y-177289502D01*
X79613018Y-177325812D01*
X79737500Y-177338072D01*
X79939250Y-177335000D01*
X80098000Y-177176250D01*
X80098000Y-176127000D01*
X80352000Y-176127000D01*
X80352000Y-177176250D01*
X80510750Y-177335000D01*
X80712500Y-177338072D01*
X80836982Y-177325812D01*
X80956680Y-177289502D01*
X81066994Y-177230537D01*
X81163685Y-177151185D01*
X81243037Y-177054494D01*
X81302002Y-176944180D01*
X81338312Y-176824482D01*
X81350572Y-176700000D01*
X81347500Y-176285750D01*
X81188750Y-176127000D01*
X80352000Y-176127000D01*
X80098000Y-176127000D01*
X80078000Y-176127000D01*
X80078000Y-175873000D01*
X80098000Y-175873000D01*
X80098000Y-175853000D01*
X80352000Y-175853000D01*
X80352000Y-175873000D01*
X81188750Y-175873000D01*
X81347500Y-175714250D01*
X81350572Y-175300000D01*
X81338312Y-175175518D01*
X81302002Y-175055820D01*
X81243037Y-174945506D01*
X81163685Y-174848815D01*
X81119865Y-174812853D01*
X81723000Y-174814411D01*
G36*
X96373000Y-152173000D02*
G01*
X90327000Y-152173000D01*
X90327000Y-143027000D01*
X96373000Y-143027000D01*
X96373000Y-152173000D01*
G37*
X96373000Y-152173000D02*
X90327000Y-152173000D01*
X90327000Y-143027000D01*
X96373000Y-143027000D01*
X96373000Y-152173000D01*
G36*
X47519463Y-152793506D02*
G01*
X47460498Y-152903820D01*
X47424188Y-153023518D01*
X47411928Y-153148000D01*
X47415000Y-154862250D01*
X47573750Y-155021000D01*
X49173000Y-155021000D01*
X49173000Y-155001000D01*
X49427000Y-155001000D01*
X49427000Y-155021000D01*
X49447000Y-155021000D01*
X49447000Y-155275000D01*
X49427000Y-155275000D01*
X49427000Y-157624250D01*
X49585750Y-157783000D01*
X50373000Y-157785508D01*
X50373000Y-163223000D01*
X44060000Y-163223000D01*
X44060000Y-161926349D01*
X45253256Y-161926349D01*
X45457362Y-162282867D01*
X45900223Y-162513575D01*
X46379583Y-162653452D01*
X46877021Y-162697123D01*
X47373422Y-162642909D01*
X47849707Y-162492894D01*
X48242638Y-162282867D01*
X48446744Y-161926349D01*
X46850000Y-160329605D01*
X45253256Y-161926349D01*
X44060000Y-161926349D01*
X44060000Y-160177021D01*
X44302877Y-160177021D01*
X44357091Y-160673422D01*
X44507106Y-161149707D01*
X44717133Y-161542638D01*
X45073651Y-161746744D01*
X46670395Y-160150000D01*
X47029605Y-160150000D01*
X48626349Y-161746744D01*
X48982867Y-161542638D01*
X49213575Y-161099777D01*
X49353452Y-160620417D01*
X49397123Y-160122979D01*
X49342909Y-159626578D01*
X49192894Y-159150293D01*
X48982867Y-158757362D01*
X48626349Y-158553256D01*
X47029605Y-160150000D01*
X46670395Y-160150000D01*
X45073651Y-158553256D01*
X44717133Y-158757362D01*
X44486425Y-159200223D01*
X44346548Y-159679583D01*
X44302877Y-160177021D01*
X44060000Y-160177021D01*
X44060000Y-158373651D01*
X45253256Y-158373651D01*
X46850000Y-159970395D01*
X48446744Y-158373651D01*
X48242638Y-158017133D01*
X47799777Y-157786425D01*
X47320417Y-157646548D01*
X46822979Y-157602877D01*
X46326578Y-157657091D01*
X45850293Y-157807106D01*
X45457362Y-158017133D01*
X45253256Y-158373651D01*
X44060000Y-158373651D01*
X44060000Y-157148000D01*
X47411928Y-157148000D01*
X47424188Y-157272482D01*
X47460498Y-157392180D01*
X47519463Y-157502494D01*
X47598815Y-157599185D01*
X47695506Y-157678537D01*
X47805820Y-157737502D01*
X47925518Y-157773812D01*
X48050000Y-157786072D01*
X49014250Y-157783000D01*
X49173000Y-157624250D01*
X49173000Y-155275000D01*
X47573750Y-155275000D01*
X47415000Y-155433750D01*
X47411928Y-157148000D01*
X44060000Y-157148000D01*
X44060000Y-152727000D01*
X47574043Y-152727000D01*
X47519463Y-152793506D01*
G37*
X47519463Y-152793506D02*
X47460498Y-152903820D01*
X47424188Y-153023518D01*
X47411928Y-153148000D01*
X47415000Y-154862250D01*
X47573750Y-155021000D01*
X49173000Y-155021000D01*
X49173000Y-155001000D01*
X49427000Y-155001000D01*
X49427000Y-155021000D01*
X49447000Y-155021000D01*
X49447000Y-155275000D01*
X49427000Y-155275000D01*
X49427000Y-157624250D01*
X49585750Y-157783000D01*
X50373000Y-157785508D01*
X50373000Y-163223000D01*
X44060000Y-163223000D01*
X44060000Y-161926349D01*
X45253256Y-161926349D01*
X45457362Y-162282867D01*
X45900223Y-162513575D01*
X46379583Y-162653452D01*
X46877021Y-162697123D01*
X47373422Y-162642909D01*
X47849707Y-162492894D01*
X48242638Y-162282867D01*
X48446744Y-161926349D01*
X46850000Y-160329605D01*
X45253256Y-161926349D01*
X44060000Y-161926349D01*
X44060000Y-160177021D01*
X44302877Y-160177021D01*
X44357091Y-160673422D01*
X44507106Y-161149707D01*
X44717133Y-161542638D01*
X45073651Y-161746744D01*
X46670395Y-160150000D01*
X47029605Y-160150000D01*
X48626349Y-161746744D01*
X48982867Y-161542638D01*
X49213575Y-161099777D01*
X49353452Y-160620417D01*
X49397123Y-160122979D01*
X49342909Y-159626578D01*
X49192894Y-159150293D01*
X48982867Y-158757362D01*
X48626349Y-158553256D01*
X47029605Y-160150000D01*
X46670395Y-160150000D01*
X45073651Y-158553256D01*
X44717133Y-158757362D01*
X44486425Y-159200223D01*
X44346548Y-159679583D01*
X44302877Y-160177021D01*
X44060000Y-160177021D01*
X44060000Y-158373651D01*
X45253256Y-158373651D01*
X46850000Y-159970395D01*
X48446744Y-158373651D01*
X48242638Y-158017133D01*
X47799777Y-157786425D01*
X47320417Y-157646548D01*
X46822979Y-157602877D01*
X46326578Y-157657091D01*
X45850293Y-157807106D01*
X45457362Y-158017133D01*
X45253256Y-158373651D01*
X44060000Y-158373651D01*
X44060000Y-157148000D01*
X47411928Y-157148000D01*
X47424188Y-157272482D01*
X47460498Y-157392180D01*
X47519463Y-157502494D01*
X47598815Y-157599185D01*
X47695506Y-157678537D01*
X47805820Y-157737502D01*
X47925518Y-157773812D01*
X48050000Y-157786072D01*
X49014250Y-157783000D01*
X49173000Y-157624250D01*
X49173000Y-155275000D01*
X47573750Y-155275000D01*
X47415000Y-155433750D01*
X47411928Y-157148000D01*
X44060000Y-157148000D01*
X44060000Y-152727000D01*
X47574043Y-152727000D01*
X47519463Y-152793506D01*
%TD*%
M02*
