M48
; DRILL file {KiCad (5.1.6)-1} date 04/02/21 17:33:38
; FORMAT={-:-/ absolute / metric / decimal}
; #@! TF.CreationDate,2021-04-02T17:33:38+02:00
; #@! TF.GenerationSoftware,Kicad,Pcbnew,(5.1.6)-1
; #@! TF.FileFunction,Plated,1,2,PTH
FMAT,2
METRIC
T1C0.300
T2C0.400
T3C2.200
%
G90
G05
T1
X79.904Y-170.127
X79.904Y-171.327
X79.904Y-172.627
X79.904Y-173.727
X81.104Y-170.127
X81.104Y-171.327
X81.104Y-172.627
X81.104Y-173.727
X61.539Y-151.009
X61.539Y-152.209
X61.539Y-153.509
X61.539Y-154.609
X62.739Y-151.009
X62.739Y-152.209
X62.739Y-153.509
X62.739Y-154.609
T2
X45.5Y-153.7
X45.5Y-154.85
X45.5Y-155.95
X45.5Y-157.2
X46.9Y-163.3
X46.9Y-165.25
X48.7Y-163.25
X50.1Y-163.2
X51.5Y-163.25
X52.85Y-163.3
X52.9Y-164.7
X54.15Y-163.3
X54.15Y-164.7
X54.15Y-166.1
X55.95Y-155.3
X57.25Y-155.45
X60.2Y-139.2
X60.2Y-140.7
X60.2Y-142.2
X60.2Y-163.3
X60.2Y-164.7
X60.2Y-166.1
X62.4Y-160.35
X66.75Y-139.2
X66.8Y-140.7
X66.8Y-142.2
X70.9Y-152.3
X70.9Y-153.7
X70.9Y-155.1
X70.9Y-156.5
X72.15Y-142.2
X72.2Y-139.15
X72.2Y-140.7
X79.2Y-179.75
X79.95Y-178.7
X80.2Y-177.65
X80.7Y-179.75
X81.4Y-178.7
X81.7Y-177.65
X82.05Y-179.75
X83.55Y-179.75
X88.0Y-161.5
X88.05Y-162.9
X88.05Y-164.35
X88.05Y-165.7
X89.45Y-165.7
X89.5Y-161.5
X89.5Y-162.9
X89.5Y-164.3
X91.1Y-151.5
X92.5Y-151.5
X92.55Y-144.35
X93.95Y-144.35
X93.95Y-151.5
X95.35Y-144.35
X95.35Y-145.8
X95.35Y-147.2
X95.35Y-148.65
X95.35Y-150.05
X95.35Y-151.5
T3
X46.85Y-141.75
X46.85Y-160.15
T0
M30
