%TF.GenerationSoftware,KiCad,Pcbnew,(5.1.6)-1*%
%TF.CreationDate,2021-04-02T17:33:40+02:00*%
%TF.ProjectId,48-24,34382d32-342e-46b6-9963-61645f706362,rev?*%
%TF.SameCoordinates,Original*%
%TF.FileFunction,Legend,Top*%
%TF.FilePolarity,Positive*%
%FSLAX46Y46*%
G04 Gerber Fmt 4.6, Leading zero omitted, Abs format (unit mm)*
G04 Created by KiCad (PCBNEW (5.1.6)-1) date 2021-04-02 17:33:40*
%MOMM*%
%LPD*%
G01*
G04 APERTURE LIST*
%ADD10C,0.150000*%
%ADD11C,0.090000*%
%ADD12C,0.120000*%
%ADD13C,0.010000*%
G04 APERTURE END LIST*
D10*
X97414285Y-182404761D02*
X97557142Y-182452380D01*
X97795238Y-182452380D01*
X97890476Y-182404761D01*
X97938095Y-182357142D01*
X97985714Y-182261904D01*
X97985714Y-182166666D01*
X97938095Y-182071428D01*
X97890476Y-182023809D01*
X97795238Y-181976190D01*
X97604761Y-181928571D01*
X97509523Y-181880952D01*
X97461904Y-181833333D01*
X97414285Y-181738095D01*
X97414285Y-181642857D01*
X97461904Y-181547619D01*
X97509523Y-181500000D01*
X97604761Y-181452380D01*
X97842857Y-181452380D01*
X97985714Y-181500000D01*
X98414285Y-182357142D02*
X98461904Y-182404761D01*
X98414285Y-182452380D01*
X98366666Y-182404761D01*
X98414285Y-182357142D01*
X98414285Y-182452380D01*
X98890476Y-181928571D02*
X99223809Y-181928571D01*
X99366666Y-182452380D02*
X98890476Y-182452380D01*
X98890476Y-181452380D01*
X99366666Y-181452380D01*
X99795238Y-182357142D02*
X99842857Y-182404761D01*
X99795238Y-182452380D01*
X99747619Y-182404761D01*
X99795238Y-182357142D01*
X99795238Y-182452380D01*
X100271428Y-182452380D02*
X100271428Y-181452380D01*
X100604761Y-182166666D01*
X100938095Y-181452380D01*
X100938095Y-182452380D01*
X91147619Y-180652380D02*
X91147619Y-179652380D01*
X91480952Y-180366666D01*
X91814285Y-179652380D01*
X91814285Y-180652380D01*
X92290476Y-180557142D02*
X92338095Y-180604761D01*
X92290476Y-180652380D01*
X92242857Y-180604761D01*
X92290476Y-180557142D01*
X92290476Y-180652380D01*
X92719047Y-180366666D02*
X93195238Y-180366666D01*
X92623809Y-180652380D02*
X92957142Y-179652380D01*
X93290476Y-180652380D01*
X93576190Y-180604761D02*
X93671428Y-180652380D01*
X93861904Y-180652380D01*
X93957142Y-180604761D01*
X94004761Y-180509523D01*
X94004761Y-180461904D01*
X93957142Y-180366666D01*
X93861904Y-180319047D01*
X93719047Y-180319047D01*
X93623809Y-180271428D01*
X93576190Y-180176190D01*
X93576190Y-180128571D01*
X93623809Y-180033333D01*
X93719047Y-179985714D01*
X93861904Y-179985714D01*
X93957142Y-180033333D01*
X94433333Y-180652380D02*
X94433333Y-179652380D01*
X94861904Y-180652380D02*
X94861904Y-180128571D01*
X94814285Y-180033333D01*
X94719047Y-179985714D01*
X94576190Y-179985714D01*
X94480952Y-180033333D01*
X94433333Y-180080952D01*
X95338095Y-180652380D02*
X95338095Y-179985714D01*
X95338095Y-180176190D02*
X95385714Y-180080952D01*
X95433333Y-180033333D01*
X95528571Y-179985714D01*
X95623809Y-179985714D01*
X95814285Y-179985714D02*
X96195238Y-179985714D01*
X95957142Y-180652380D02*
X95957142Y-179795238D01*
X96004761Y-179700000D01*
X96100000Y-179652380D01*
X96195238Y-179652380D01*
X91476190Y-178052380D02*
X91285714Y-178052380D01*
X91190476Y-178100000D01*
X91142857Y-178147619D01*
X91047619Y-178290476D01*
X91000000Y-178480952D01*
X91000000Y-178861904D01*
X91047619Y-178957142D01*
X91095238Y-179004761D01*
X91190476Y-179052380D01*
X91380952Y-179052380D01*
X91476190Y-179004761D01*
X91523809Y-178957142D01*
X91571428Y-178861904D01*
X91571428Y-178623809D01*
X91523809Y-178528571D01*
X91476190Y-178480952D01*
X91380952Y-178433333D01*
X91190476Y-178433333D01*
X91095238Y-178480952D01*
X91047619Y-178528571D01*
X91000000Y-178623809D01*
X92190476Y-178052380D02*
X92285714Y-178052380D01*
X92380952Y-178100000D01*
X92428571Y-178147619D01*
X92476190Y-178242857D01*
X92523809Y-178433333D01*
X92523809Y-178671428D01*
X92476190Y-178861904D01*
X92428571Y-178957142D01*
X92380952Y-179004761D01*
X92285714Y-179052380D01*
X92190476Y-179052380D01*
X92095238Y-179004761D01*
X92047619Y-178957142D01*
X92000000Y-178861904D01*
X91952380Y-178671428D01*
X91952380Y-178433333D01*
X92000000Y-178242857D01*
X92047619Y-178147619D01*
X92095238Y-178100000D01*
X92190476Y-178052380D01*
X92809523Y-178052380D02*
X93142857Y-179052380D01*
X93476190Y-178052380D01*
X94571428Y-179052380D02*
X94571428Y-178052380D01*
X94904761Y-178766666D01*
X95238095Y-178052380D01*
X95238095Y-179052380D01*
X96142857Y-179052380D02*
X96142857Y-178528571D01*
X96095238Y-178433333D01*
X96000000Y-178385714D01*
X95809523Y-178385714D01*
X95714285Y-178433333D01*
X96142857Y-179004761D02*
X96047619Y-179052380D01*
X95809523Y-179052380D01*
X95714285Y-179004761D01*
X95666666Y-178909523D01*
X95666666Y-178814285D01*
X95714285Y-178719047D01*
X95809523Y-178671428D01*
X96047619Y-178671428D01*
X96142857Y-178623809D01*
X96523809Y-179052380D02*
X97047619Y-178385714D01*
X96523809Y-178385714D02*
X97047619Y-179052380D01*
D11*
X90959523Y-177426190D02*
X90959523Y-176926190D01*
X91150000Y-176926190D01*
X91197619Y-176950000D01*
X91221428Y-176973809D01*
X91245238Y-177021428D01*
X91245238Y-177092857D01*
X91221428Y-177140476D01*
X91197619Y-177164285D01*
X91150000Y-177188095D01*
X90959523Y-177188095D01*
X91530952Y-177426190D02*
X91483333Y-177402380D01*
X91459523Y-177378571D01*
X91435714Y-177330952D01*
X91435714Y-177188095D01*
X91459523Y-177140476D01*
X91483333Y-177116666D01*
X91530952Y-177092857D01*
X91602380Y-177092857D01*
X91650000Y-177116666D01*
X91673809Y-177140476D01*
X91697619Y-177188095D01*
X91697619Y-177330952D01*
X91673809Y-177378571D01*
X91650000Y-177402380D01*
X91602380Y-177426190D01*
X91530952Y-177426190D01*
X91864285Y-177092857D02*
X91959523Y-177426190D01*
X92054761Y-177188095D01*
X92150000Y-177426190D01*
X92245238Y-177092857D01*
X92626190Y-177402380D02*
X92578571Y-177426190D01*
X92483333Y-177426190D01*
X92435714Y-177402380D01*
X92411904Y-177354761D01*
X92411904Y-177164285D01*
X92435714Y-177116666D01*
X92483333Y-177092857D01*
X92578571Y-177092857D01*
X92626190Y-177116666D01*
X92650000Y-177164285D01*
X92650000Y-177211904D01*
X92411904Y-177259523D01*
X92864285Y-177426190D02*
X92864285Y-177092857D01*
X92864285Y-177188095D02*
X92888095Y-177140476D01*
X92911904Y-177116666D01*
X92959523Y-177092857D01*
X93007142Y-177092857D01*
X93769047Y-177426190D02*
X93769047Y-176926190D01*
X93769047Y-177402380D02*
X93721428Y-177426190D01*
X93626190Y-177426190D01*
X93578571Y-177402380D01*
X93554761Y-177378571D01*
X93530952Y-177330952D01*
X93530952Y-177188095D01*
X93554761Y-177140476D01*
X93578571Y-177116666D01*
X93626190Y-177092857D01*
X93721428Y-177092857D01*
X93769047Y-177116666D01*
X94007142Y-177426190D02*
X94007142Y-177092857D01*
X94007142Y-176926190D02*
X93983333Y-176950000D01*
X94007142Y-176973809D01*
X94030952Y-176950000D01*
X94007142Y-176926190D01*
X94007142Y-176973809D01*
X94221428Y-177402380D02*
X94269047Y-177426190D01*
X94364285Y-177426190D01*
X94411904Y-177402380D01*
X94435714Y-177354761D01*
X94435714Y-177330952D01*
X94411904Y-177283333D01*
X94364285Y-177259523D01*
X94292857Y-177259523D01*
X94245238Y-177235714D01*
X94221428Y-177188095D01*
X94221428Y-177164285D01*
X94245238Y-177116666D01*
X94292857Y-177092857D01*
X94364285Y-177092857D01*
X94411904Y-177116666D01*
X94578571Y-177092857D02*
X94769047Y-177092857D01*
X94650000Y-176926190D02*
X94650000Y-177354761D01*
X94673809Y-177402380D01*
X94721428Y-177426190D01*
X94769047Y-177426190D01*
X94935714Y-177426190D02*
X94935714Y-177092857D01*
X94935714Y-177188095D02*
X94959523Y-177140476D01*
X94983333Y-177116666D01*
X95030952Y-177092857D01*
X95078571Y-177092857D01*
X95245238Y-177426190D02*
X95245238Y-176926190D01*
X95245238Y-177116666D02*
X95292857Y-177092857D01*
X95388095Y-177092857D01*
X95435714Y-177116666D01*
X95459523Y-177140476D01*
X95483333Y-177188095D01*
X95483333Y-177330952D01*
X95459523Y-177378571D01*
X95435714Y-177402380D01*
X95388095Y-177426190D01*
X95292857Y-177426190D01*
X95245238Y-177402380D01*
X95911904Y-177092857D02*
X95911904Y-177426190D01*
X95697619Y-177092857D02*
X95697619Y-177354761D01*
X95721428Y-177402380D01*
X95769047Y-177426190D01*
X95840476Y-177426190D01*
X95888095Y-177402380D01*
X95911904Y-177378571D01*
X96078571Y-177092857D02*
X96269047Y-177092857D01*
X96150000Y-176926190D02*
X96150000Y-177354761D01*
X96173809Y-177402380D01*
X96221428Y-177426190D01*
X96269047Y-177426190D01*
X96435714Y-177426190D02*
X96435714Y-177092857D01*
X96435714Y-176926190D02*
X96411904Y-176950000D01*
X96435714Y-176973809D01*
X96459523Y-176950000D01*
X96435714Y-176926190D01*
X96435714Y-176973809D01*
X96745238Y-177426190D02*
X96697619Y-177402380D01*
X96673809Y-177378571D01*
X96650000Y-177330952D01*
X96650000Y-177188095D01*
X96673809Y-177140476D01*
X96697619Y-177116666D01*
X96745238Y-177092857D01*
X96816666Y-177092857D01*
X96864285Y-177116666D01*
X96888095Y-177140476D01*
X96911904Y-177188095D01*
X96911904Y-177330952D01*
X96888095Y-177378571D01*
X96864285Y-177402380D01*
X96816666Y-177426190D01*
X96745238Y-177426190D01*
X97126190Y-177092857D02*
X97126190Y-177426190D01*
X97126190Y-177140476D02*
X97150000Y-177116666D01*
X97197619Y-177092857D01*
X97269047Y-177092857D01*
X97316666Y-177116666D01*
X97340476Y-177164285D01*
X97340476Y-177426190D01*
X97959523Y-177426190D02*
X97959523Y-176926190D01*
X97959523Y-177116666D02*
X98007142Y-177092857D01*
X98102380Y-177092857D01*
X98150000Y-177116666D01*
X98173809Y-177140476D01*
X98197619Y-177188095D01*
X98197619Y-177330952D01*
X98173809Y-177378571D01*
X98150000Y-177402380D01*
X98102380Y-177426190D01*
X98007142Y-177426190D01*
X97959523Y-177402380D01*
X98483333Y-177426190D02*
X98435714Y-177402380D01*
X98411904Y-177378571D01*
X98388095Y-177330952D01*
X98388095Y-177188095D01*
X98411904Y-177140476D01*
X98435714Y-177116666D01*
X98483333Y-177092857D01*
X98554761Y-177092857D01*
X98602380Y-177116666D01*
X98626190Y-177140476D01*
X98650000Y-177188095D01*
X98650000Y-177330952D01*
X98626190Y-177378571D01*
X98602380Y-177402380D01*
X98554761Y-177426190D01*
X98483333Y-177426190D01*
X99078571Y-177426190D02*
X99078571Y-177164285D01*
X99054761Y-177116666D01*
X99007142Y-177092857D01*
X98911904Y-177092857D01*
X98864285Y-177116666D01*
X99078571Y-177402380D02*
X99030952Y-177426190D01*
X98911904Y-177426190D01*
X98864285Y-177402380D01*
X98840476Y-177354761D01*
X98840476Y-177307142D01*
X98864285Y-177259523D01*
X98911904Y-177235714D01*
X99030952Y-177235714D01*
X99078571Y-177211904D01*
X99316666Y-177426190D02*
X99316666Y-177092857D01*
X99316666Y-177188095D02*
X99340476Y-177140476D01*
X99364285Y-177116666D01*
X99411904Y-177092857D01*
X99459523Y-177092857D01*
X99840476Y-177426190D02*
X99840476Y-176926190D01*
X99840476Y-177402380D02*
X99792857Y-177426190D01*
X99697619Y-177426190D01*
X99650000Y-177402380D01*
X99626190Y-177378571D01*
X99602380Y-177330952D01*
X99602380Y-177188095D01*
X99626190Y-177140476D01*
X99650000Y-177116666D01*
X99697619Y-177092857D01*
X99792857Y-177092857D01*
X99840476Y-177116666D01*
D12*
X90600000Y-176600000D02*
X90600000Y-183600000D01*
X101600000Y-176600000D02*
X90600000Y-176600000D01*
D10*
X77790476Y-140852380D02*
X77742857Y-140900000D01*
X77647619Y-140947619D01*
X77409523Y-140947619D01*
X77314285Y-140900000D01*
X77266666Y-140852380D01*
X77219047Y-140757142D01*
X77219047Y-140661904D01*
X77266666Y-140519047D01*
X77838095Y-139947619D01*
X77219047Y-139947619D01*
X76361904Y-140614285D02*
X76361904Y-139947619D01*
X76600000Y-140995238D02*
X76838095Y-140280952D01*
X76219047Y-140280952D01*
X75980952Y-140947619D02*
X75647619Y-139947619D01*
X75314285Y-140947619D01*
X83390476Y-140852380D02*
X83342857Y-140900000D01*
X83247619Y-140947619D01*
X83009523Y-140947619D01*
X82914285Y-140900000D01*
X82866666Y-140852380D01*
X82819047Y-140757142D01*
X82819047Y-140661904D01*
X82866666Y-140519047D01*
X83438095Y-139947619D01*
X82819047Y-139947619D01*
X81961904Y-140614285D02*
X81961904Y-139947619D01*
X82200000Y-140995238D02*
X82438095Y-140280952D01*
X81819047Y-140280952D01*
X81580952Y-140947619D02*
X81247619Y-139947619D01*
X80914285Y-140947619D01*
X89190476Y-140852380D02*
X89142857Y-140900000D01*
X89047619Y-140947619D01*
X88809523Y-140947619D01*
X88714285Y-140900000D01*
X88666666Y-140852380D01*
X88619047Y-140757142D01*
X88619047Y-140661904D01*
X88666666Y-140519047D01*
X89238095Y-139947619D01*
X88619047Y-139947619D01*
X87761904Y-140614285D02*
X87761904Y-139947619D01*
X88000000Y-140995238D02*
X88238095Y-140280952D01*
X87619047Y-140280952D01*
X87380952Y-140947619D02*
X87047619Y-139947619D01*
X86714285Y-140947619D01*
X95190476Y-140852380D02*
X95142857Y-140900000D01*
X95047619Y-140947619D01*
X94809523Y-140947619D01*
X94714285Y-140900000D01*
X94666666Y-140852380D01*
X94619047Y-140757142D01*
X94619047Y-140661904D01*
X94666666Y-140519047D01*
X95238095Y-139947619D01*
X94619047Y-139947619D01*
X93761904Y-140614285D02*
X93761904Y-139947619D01*
X94000000Y-140995238D02*
X94238095Y-140280952D01*
X93619047Y-140280952D01*
X93380952Y-140947619D02*
X93047619Y-139947619D01*
X92714285Y-140947619D01*
X54380952Y-182052380D02*
X53809523Y-182052380D01*
X54095238Y-182052380D02*
X54095238Y-181052380D01*
X54000000Y-181195238D01*
X53904761Y-181290476D01*
X53809523Y-181338095D01*
X54761904Y-181147619D02*
X54809523Y-181100000D01*
X54904761Y-181052380D01*
X55142857Y-181052380D01*
X55238095Y-181100000D01*
X55285714Y-181147619D01*
X55333333Y-181242857D01*
X55333333Y-181338095D01*
X55285714Y-181480952D01*
X54714285Y-182052380D01*
X55333333Y-182052380D01*
X55619047Y-181052380D02*
X55952380Y-182052380D01*
X56285714Y-181052380D01*
X59380952Y-182052380D02*
X58809523Y-182052380D01*
X59095238Y-182052380D02*
X59095238Y-181052380D01*
X59000000Y-181195238D01*
X58904761Y-181290476D01*
X58809523Y-181338095D01*
X59761904Y-181147619D02*
X59809523Y-181100000D01*
X59904761Y-181052380D01*
X60142857Y-181052380D01*
X60238095Y-181100000D01*
X60285714Y-181147619D01*
X60333333Y-181242857D01*
X60333333Y-181338095D01*
X60285714Y-181480952D01*
X59714285Y-182052380D01*
X60333333Y-182052380D01*
X60619047Y-181052380D02*
X60952380Y-182052380D01*
X61285714Y-181052380D01*
X64380952Y-182052380D02*
X63809523Y-182052380D01*
X64095238Y-182052380D02*
X64095238Y-181052380D01*
X64000000Y-181195238D01*
X63904761Y-181290476D01*
X63809523Y-181338095D01*
X64761904Y-181147619D02*
X64809523Y-181100000D01*
X64904761Y-181052380D01*
X65142857Y-181052380D01*
X65238095Y-181100000D01*
X65285714Y-181147619D01*
X65333333Y-181242857D01*
X65333333Y-181338095D01*
X65285714Y-181480952D01*
X64714285Y-182052380D01*
X65333333Y-182052380D01*
X65619047Y-181052380D02*
X65952380Y-182052380D01*
X66285714Y-181052380D01*
X69580952Y-182052380D02*
X69009523Y-182052380D01*
X69295238Y-182052380D02*
X69295238Y-181052380D01*
X69200000Y-181195238D01*
X69104761Y-181290476D01*
X69009523Y-181338095D01*
X69961904Y-181147619D02*
X70009523Y-181100000D01*
X70104761Y-181052380D01*
X70342857Y-181052380D01*
X70438095Y-181100000D01*
X70485714Y-181147619D01*
X70533333Y-181242857D01*
X70533333Y-181338095D01*
X70485714Y-181480952D01*
X69914285Y-182052380D01*
X70533333Y-182052380D01*
X70819047Y-181052380D02*
X71152380Y-182052380D01*
X71485714Y-181052380D01*
D13*
%TO.C,G\u002A\u002A\u002A*%
G36*
X99905490Y-180288848D02*
G01*
X99916350Y-180298400D01*
X99923801Y-180315263D01*
X99924142Y-180316471D01*
X99924813Y-180325554D01*
X99924114Y-180341661D01*
X99922236Y-180363492D01*
X99919366Y-180389749D01*
X99915697Y-180419134D01*
X99911416Y-180450348D01*
X99906715Y-180482093D01*
X99901782Y-180513070D01*
X99896807Y-180541981D01*
X99891980Y-180567526D01*
X99887491Y-180588408D01*
X99883529Y-180603328D01*
X99881398Y-180609063D01*
X99866772Y-180630958D01*
X99845973Y-180647232D01*
X99830767Y-180654290D01*
X99823305Y-180655541D01*
X99808487Y-180656710D01*
X99787421Y-180657783D01*
X99761217Y-180658749D01*
X99730984Y-180659595D01*
X99697832Y-180660309D01*
X99662871Y-180660877D01*
X99627209Y-180661287D01*
X99591956Y-180661528D01*
X99558222Y-180661586D01*
X99527116Y-180661448D01*
X99499748Y-180661103D01*
X99477227Y-180660537D01*
X99460662Y-180659739D01*
X99451163Y-180658696D01*
X99450652Y-180658579D01*
X99434978Y-180652117D01*
X99424226Y-180642550D01*
X99420151Y-180631451D01*
X99420149Y-180631219D01*
X99420855Y-180624896D01*
X99423346Y-180618322D01*
X99428220Y-180610974D01*
X99436075Y-180602330D01*
X99447507Y-180591865D01*
X99463114Y-180579059D01*
X99483493Y-180563386D01*
X99509241Y-180544326D01*
X99540955Y-180521354D01*
X99566737Y-180502872D01*
X99599987Y-180479031D01*
X99634405Y-180454223D01*
X99668574Y-180429478D01*
X99701077Y-180405827D01*
X99730498Y-180384299D01*
X99755419Y-180365925D01*
X99769383Y-180355525D01*
X99798335Y-180334056D01*
X99821676Y-180317359D01*
X99840372Y-180304875D01*
X99855393Y-180296049D01*
X99867707Y-180290324D01*
X99878281Y-180287142D01*
X99888085Y-180285946D01*
X99890436Y-180285893D01*
X99905490Y-180288848D01*
G37*
X99905490Y-180288848D02*
X99916350Y-180298400D01*
X99923801Y-180315263D01*
X99924142Y-180316471D01*
X99924813Y-180325554D01*
X99924114Y-180341661D01*
X99922236Y-180363492D01*
X99919366Y-180389749D01*
X99915697Y-180419134D01*
X99911416Y-180450348D01*
X99906715Y-180482093D01*
X99901782Y-180513070D01*
X99896807Y-180541981D01*
X99891980Y-180567526D01*
X99887491Y-180588408D01*
X99883529Y-180603328D01*
X99881398Y-180609063D01*
X99866772Y-180630958D01*
X99845973Y-180647232D01*
X99830767Y-180654290D01*
X99823305Y-180655541D01*
X99808487Y-180656710D01*
X99787421Y-180657783D01*
X99761217Y-180658749D01*
X99730984Y-180659595D01*
X99697832Y-180660309D01*
X99662871Y-180660877D01*
X99627209Y-180661287D01*
X99591956Y-180661528D01*
X99558222Y-180661586D01*
X99527116Y-180661448D01*
X99499748Y-180661103D01*
X99477227Y-180660537D01*
X99460662Y-180659739D01*
X99451163Y-180658696D01*
X99450652Y-180658579D01*
X99434978Y-180652117D01*
X99424226Y-180642550D01*
X99420151Y-180631451D01*
X99420149Y-180631219D01*
X99420855Y-180624896D01*
X99423346Y-180618322D01*
X99428220Y-180610974D01*
X99436075Y-180602330D01*
X99447507Y-180591865D01*
X99463114Y-180579059D01*
X99483493Y-180563386D01*
X99509241Y-180544326D01*
X99540955Y-180521354D01*
X99566737Y-180502872D01*
X99599987Y-180479031D01*
X99634405Y-180454223D01*
X99668574Y-180429478D01*
X99701077Y-180405827D01*
X99730498Y-180384299D01*
X99755419Y-180365925D01*
X99769383Y-180355525D01*
X99798335Y-180334056D01*
X99821676Y-180317359D01*
X99840372Y-180304875D01*
X99855393Y-180296049D01*
X99867707Y-180290324D01*
X99878281Y-180287142D01*
X99888085Y-180285946D01*
X99890436Y-180285893D01*
X99905490Y-180288848D01*
G36*
X98531911Y-180289946D02*
G01*
X98541717Y-180293791D01*
X98550201Y-180298673D01*
X98564108Y-180307795D01*
X98582133Y-180320253D01*
X98602975Y-180335141D01*
X98625331Y-180351556D01*
X98630617Y-180355503D01*
X98651546Y-180371054D01*
X98677961Y-180390485D01*
X98708447Y-180412765D01*
X98741591Y-180436866D01*
X98775979Y-180461759D01*
X98810197Y-180486416D01*
X98833387Y-180503052D01*
X98866790Y-180527156D01*
X98896703Y-180549123D01*
X98922512Y-180568479D01*
X98943603Y-180584756D01*
X98959362Y-180597480D01*
X98969176Y-180606183D01*
X98972115Y-180609522D01*
X98978365Y-180625388D01*
X98976393Y-180639341D01*
X98966217Y-180651255D01*
X98965805Y-180651565D01*
X98962559Y-180653795D01*
X98958846Y-180655621D01*
X98953832Y-180657087D01*
X98946685Y-180658237D01*
X98936571Y-180659115D01*
X98922659Y-180659765D01*
X98904115Y-180660231D01*
X98880107Y-180660556D01*
X98849802Y-180660786D01*
X98812367Y-180660963D01*
X98785888Y-180661064D01*
X98747963Y-180661122D01*
X98711839Y-180661024D01*
X98678589Y-180660785D01*
X98649289Y-180660419D01*
X98625012Y-180659939D01*
X98606832Y-180659360D01*
X98595824Y-180658696D01*
X98594551Y-180658550D01*
X98565957Y-180652082D01*
X98543841Y-180640776D01*
X98527264Y-180623879D01*
X98515287Y-180600638D01*
X98512575Y-180592717D01*
X98510270Y-180583056D01*
X98507049Y-180566300D01*
X98503130Y-180543745D01*
X98498728Y-180516684D01*
X98494060Y-180486414D01*
X98489342Y-180454231D01*
X98488654Y-180449394D01*
X98483395Y-180411817D01*
X98479397Y-180381631D01*
X98476653Y-180357856D01*
X98475153Y-180339513D01*
X98474892Y-180325621D01*
X98475860Y-180315202D01*
X98478049Y-180307274D01*
X98481453Y-180300859D01*
X98486062Y-180294976D01*
X98487393Y-180293483D01*
X98498175Y-180287435D01*
X98513729Y-180286260D01*
X98531911Y-180289946D01*
G37*
X98531911Y-180289946D02*
X98541717Y-180293791D01*
X98550201Y-180298673D01*
X98564108Y-180307795D01*
X98582133Y-180320253D01*
X98602975Y-180335141D01*
X98625331Y-180351556D01*
X98630617Y-180355503D01*
X98651546Y-180371054D01*
X98677961Y-180390485D01*
X98708447Y-180412765D01*
X98741591Y-180436866D01*
X98775979Y-180461759D01*
X98810197Y-180486416D01*
X98833387Y-180503052D01*
X98866790Y-180527156D01*
X98896703Y-180549123D01*
X98922512Y-180568479D01*
X98943603Y-180584756D01*
X98959362Y-180597480D01*
X98969176Y-180606183D01*
X98972115Y-180609522D01*
X98978365Y-180625388D01*
X98976393Y-180639341D01*
X98966217Y-180651255D01*
X98965805Y-180651565D01*
X98962559Y-180653795D01*
X98958846Y-180655621D01*
X98953832Y-180657087D01*
X98946685Y-180658237D01*
X98936571Y-180659115D01*
X98922659Y-180659765D01*
X98904115Y-180660231D01*
X98880107Y-180660556D01*
X98849802Y-180660786D01*
X98812367Y-180660963D01*
X98785888Y-180661064D01*
X98747963Y-180661122D01*
X98711839Y-180661024D01*
X98678589Y-180660785D01*
X98649289Y-180660419D01*
X98625012Y-180659939D01*
X98606832Y-180659360D01*
X98595824Y-180658696D01*
X98594551Y-180658550D01*
X98565957Y-180652082D01*
X98543841Y-180640776D01*
X98527264Y-180623879D01*
X98515287Y-180600638D01*
X98512575Y-180592717D01*
X98510270Y-180583056D01*
X98507049Y-180566300D01*
X98503130Y-180543745D01*
X98498728Y-180516684D01*
X98494060Y-180486414D01*
X98489342Y-180454231D01*
X98488654Y-180449394D01*
X98483395Y-180411817D01*
X98479397Y-180381631D01*
X98476653Y-180357856D01*
X98475153Y-180339513D01*
X98474892Y-180325621D01*
X98475860Y-180315202D01*
X98478049Y-180307274D01*
X98481453Y-180300859D01*
X98486062Y-180294976D01*
X98487393Y-180293483D01*
X98498175Y-180287435D01*
X98513729Y-180286260D01*
X98531911Y-180289946D01*
G36*
X99101323Y-178489858D02*
G01*
X99125033Y-178499073D01*
X99143342Y-178513890D01*
X99155462Y-178533814D01*
X99157496Y-178539749D01*
X99158193Y-178545037D01*
X99158933Y-178556430D01*
X99159720Y-178574090D01*
X99160557Y-178598181D01*
X99161448Y-178628865D01*
X99162397Y-178666306D01*
X99163405Y-178710667D01*
X99164478Y-178762111D01*
X99165618Y-178820801D01*
X99166828Y-178886900D01*
X99168112Y-178960571D01*
X99169473Y-179041978D01*
X99170914Y-179131282D01*
X99172440Y-179228648D01*
X99174052Y-179334239D01*
X99174862Y-179388179D01*
X99176361Y-179488035D01*
X99177752Y-179579762D01*
X99179043Y-179663697D01*
X99180241Y-179740178D01*
X99181354Y-179809541D01*
X99182390Y-179872123D01*
X99183356Y-179928261D01*
X99184260Y-179978292D01*
X99185109Y-180022554D01*
X99185911Y-180061384D01*
X99186673Y-180095117D01*
X99187403Y-180124092D01*
X99188109Y-180148645D01*
X99188798Y-180169114D01*
X99189477Y-180185836D01*
X99190154Y-180199146D01*
X99190837Y-180209384D01*
X99191533Y-180216884D01*
X99192250Y-180221986D01*
X99192996Y-180225025D01*
X99193646Y-180226227D01*
X99199437Y-180230417D01*
X99204688Y-180227835D01*
X99206355Y-180226226D01*
X99207128Y-180224658D01*
X99207866Y-180221317D01*
X99208577Y-180215866D01*
X99209266Y-180207969D01*
X99209943Y-180197289D01*
X99210615Y-180183489D01*
X99211288Y-180166234D01*
X99211970Y-180145185D01*
X99212669Y-180120008D01*
X99213392Y-180090366D01*
X99214146Y-180055921D01*
X99214940Y-180016337D01*
X99215780Y-179971279D01*
X99216673Y-179920409D01*
X99217628Y-179863390D01*
X99218651Y-179799887D01*
X99219750Y-179729562D01*
X99220932Y-179652080D01*
X99222205Y-179567103D01*
X99223577Y-179474295D01*
X99224881Y-179385157D01*
X99237053Y-178550443D01*
X99247101Y-178530186D01*
X99257533Y-178513368D01*
X99270505Y-178501069D01*
X99287090Y-178492948D01*
X99308359Y-178488668D01*
X99335385Y-178487891D01*
X99369240Y-178490277D01*
X99372434Y-178490612D01*
X99448132Y-178502885D01*
X99523789Y-178523478D01*
X99544052Y-178530417D01*
X99574998Y-178542255D01*
X99598510Y-178553291D01*
X99615469Y-178564294D01*
X99626762Y-178576034D01*
X99633270Y-178589283D01*
X99635878Y-178604811D01*
X99636033Y-178610604D01*
X99635111Y-178616565D01*
X99632403Y-178630372D01*
X99628001Y-178651616D01*
X99621995Y-178679885D01*
X99614476Y-178714770D01*
X99605535Y-178755860D01*
X99595261Y-178802746D01*
X99583746Y-178855016D01*
X99571080Y-178912262D01*
X99557354Y-178974073D01*
X99542658Y-179040038D01*
X99527083Y-179109748D01*
X99510719Y-179182793D01*
X99493657Y-179258761D01*
X99475988Y-179337243D01*
X99457803Y-179417830D01*
X99455886Y-179426310D01*
X99437695Y-179506886D01*
X99420031Y-179585281D01*
X99402984Y-179661096D01*
X99386641Y-179733928D01*
X99371093Y-179803376D01*
X99356428Y-179869037D01*
X99342736Y-179930512D01*
X99330105Y-179987397D01*
X99318624Y-180039291D01*
X99308382Y-180085794D01*
X99299468Y-180126502D01*
X99291972Y-180161015D01*
X99285982Y-180188931D01*
X99281588Y-180209848D01*
X99278877Y-180223364D01*
X99277940Y-180229079D01*
X99277953Y-180229230D01*
X99283513Y-180234034D01*
X99288467Y-180235000D01*
X99294151Y-180232918D01*
X99298820Y-180225581D01*
X99303149Y-180212775D01*
X99304895Y-180206422D01*
X99308716Y-180192310D01*
X99314500Y-180170858D01*
X99322136Y-180142485D01*
X99331509Y-180107610D01*
X99342508Y-180066654D01*
X99355020Y-180020035D01*
X99368933Y-179968173D01*
X99384135Y-179911488D01*
X99400512Y-179850398D01*
X99417952Y-179785324D01*
X99436343Y-179716684D01*
X99455572Y-179644898D01*
X99475527Y-179570386D01*
X99496095Y-179493567D01*
X99511170Y-179437252D01*
X99532077Y-179359185D01*
X99552444Y-179283211D01*
X99572159Y-179209746D01*
X99591111Y-179139200D01*
X99609188Y-179071988D01*
X99626278Y-179008522D01*
X99642270Y-178949215D01*
X99657053Y-178894481D01*
X99670514Y-178844731D01*
X99682542Y-178800379D01*
X99693025Y-178761837D01*
X99701853Y-178729519D01*
X99708913Y-178703838D01*
X99714093Y-178685206D01*
X99717283Y-178674037D01*
X99718295Y-178670821D01*
X99725204Y-178659507D01*
X99735395Y-178648044D01*
X99737909Y-178645801D01*
X99749413Y-178638464D01*
X99762109Y-178635765D01*
X99777570Y-178637814D01*
X99797369Y-178644719D01*
X99811254Y-178650895D01*
X99833050Y-178662362D01*
X99858069Y-178677636D01*
X99885257Y-178695871D01*
X99913558Y-178716221D01*
X99941917Y-178737839D01*
X99969279Y-178759881D01*
X99994589Y-178781499D01*
X100016792Y-178801847D01*
X100034833Y-178820079D01*
X100047656Y-178835349D01*
X100053625Y-178845273D01*
X100058901Y-178868573D01*
X100056743Y-178895553D01*
X100051464Y-178914596D01*
X100048748Y-178920781D01*
X100042437Y-178934133D01*
X100032728Y-178954253D01*
X100019821Y-178980739D01*
X100003913Y-179013191D01*
X99985204Y-179051206D01*
X99963891Y-179094384D01*
X99940174Y-179142325D01*
X99914250Y-179194627D01*
X99886317Y-179250889D01*
X99856576Y-179310710D01*
X99825223Y-179373690D01*
X99792457Y-179439427D01*
X99758477Y-179507520D01*
X99723480Y-179577569D01*
X99712563Y-179599404D01*
X99674492Y-179675602D01*
X99638032Y-179748702D01*
X99603343Y-179818381D01*
X99570582Y-179884316D01*
X99539909Y-179946184D01*
X99511483Y-180003662D01*
X99485462Y-180056427D01*
X99462005Y-180104156D01*
X99441272Y-180146526D01*
X99423420Y-180183214D01*
X99408609Y-180213897D01*
X99396997Y-180238252D01*
X99388743Y-180255956D01*
X99384006Y-180266686D01*
X99382858Y-180270056D01*
X99386717Y-180278733D01*
X99394028Y-180279931D01*
X99397930Y-180278060D01*
X99400507Y-180274038D01*
X99406924Y-180262971D01*
X99416968Y-180245248D01*
X99430425Y-180221257D01*
X99447079Y-180191386D01*
X99466717Y-180156023D01*
X99489125Y-180115555D01*
X99514087Y-180070371D01*
X99541390Y-180020859D01*
X99570819Y-179967406D01*
X99602159Y-179910401D01*
X99635198Y-179850232D01*
X99669719Y-179787286D01*
X99705509Y-179721953D01*
X99742271Y-179654770D01*
X99779180Y-179587322D01*
X99815074Y-179521805D01*
X99849737Y-179458613D01*
X99882952Y-179398140D01*
X99914499Y-179340779D01*
X99944163Y-179286924D01*
X99971724Y-179236968D01*
X99996967Y-179191304D01*
X100019673Y-179150326D01*
X100039625Y-179114428D01*
X100056606Y-179084003D01*
X100070397Y-179059444D01*
X100080781Y-179041146D01*
X100087542Y-179029501D01*
X100090441Y-179024923D01*
X100108382Y-179010324D01*
X100127881Y-179003884D01*
X100149045Y-179005618D01*
X100171982Y-179015541D01*
X100196798Y-179033667D01*
X100204443Y-179040535D01*
X100222025Y-179058798D01*
X100238601Y-179080157D01*
X100255097Y-179106012D01*
X100272436Y-179137759D01*
X100283748Y-179160464D01*
X100302413Y-179203190D01*
X100315420Y-179242453D01*
X100322673Y-179277704D01*
X100324074Y-179308393D01*
X100319527Y-179333969D01*
X100315953Y-179342782D01*
X100312332Y-179347747D01*
X100303466Y-179358739D01*
X100289663Y-179375396D01*
X100271234Y-179397356D01*
X100248488Y-179424257D01*
X100221734Y-179455737D01*
X100191283Y-179491434D01*
X100157443Y-179530986D01*
X100120524Y-179574030D01*
X100080835Y-179620204D01*
X100038687Y-179669146D01*
X99994389Y-179720495D01*
X99948250Y-179773888D01*
X99900579Y-179828962D01*
X99887283Y-179844308D01*
X99825715Y-179915392D01*
X99769587Y-179980284D01*
X99718756Y-180039157D01*
X99673075Y-180092180D01*
X99632400Y-180139526D01*
X99596585Y-180181364D01*
X99565484Y-180217866D01*
X99538954Y-180249203D01*
X99516847Y-180275547D01*
X99499020Y-180297067D01*
X99485327Y-180313936D01*
X99475623Y-180326324D01*
X99469762Y-180334402D01*
X99467600Y-180338341D01*
X99467586Y-180338592D01*
X99471524Y-180345551D01*
X99475898Y-180347184D01*
X99479610Y-180344166D01*
X99488798Y-180335349D01*
X99503123Y-180321083D01*
X99522245Y-180301721D01*
X99545824Y-180277614D01*
X99573519Y-180249116D01*
X99604992Y-180216576D01*
X99639902Y-180180348D01*
X99677909Y-180140784D01*
X99718673Y-180098234D01*
X99761854Y-180053052D01*
X99807112Y-180005589D01*
X99854108Y-179956197D01*
X99882822Y-179925967D01*
X99930919Y-179875354D01*
X99977627Y-179826310D01*
X100022593Y-179779201D01*
X100065464Y-179734392D01*
X100105888Y-179692248D01*
X100143512Y-179653133D01*
X100177984Y-179617413D01*
X100208950Y-179585453D01*
X100236059Y-179557618D01*
X100258957Y-179534273D01*
X100277291Y-179515783D01*
X100290710Y-179502513D01*
X100298861Y-179494828D01*
X100300980Y-179493109D01*
X100322629Y-179483141D01*
X100342724Y-179481371D01*
X100360708Y-179487590D01*
X100376024Y-179501586D01*
X100388115Y-179523150D01*
X100389392Y-179526421D01*
X100394675Y-179545943D01*
X100398840Y-179572172D01*
X100401874Y-179603418D01*
X100403766Y-179637996D01*
X100404503Y-179674216D01*
X100404073Y-179710392D01*
X100402466Y-179744834D01*
X100399669Y-179775856D01*
X100395670Y-179801769D01*
X100391437Y-179818166D01*
X100377585Y-179848171D01*
X100357149Y-179877511D01*
X100331827Y-179903765D01*
X100330841Y-179904626D01*
X100323232Y-179910785D01*
X100309415Y-179921482D01*
X100289845Y-179936382D01*
X100264976Y-179955150D01*
X100235262Y-179977451D01*
X100201158Y-180002951D01*
X100163117Y-180031314D01*
X100121595Y-180062206D01*
X100077045Y-180095291D01*
X100029921Y-180130236D01*
X99980679Y-180166703D01*
X99929772Y-180204360D01*
X99877655Y-180242871D01*
X99824782Y-180281900D01*
X99771607Y-180321114D01*
X99718584Y-180360176D01*
X99666168Y-180398754D01*
X99614814Y-180436510D01*
X99564975Y-180473111D01*
X99517106Y-180508221D01*
X99471660Y-180541506D01*
X99429094Y-180572630D01*
X99389859Y-180601259D01*
X99354412Y-180627058D01*
X99323206Y-180649692D01*
X99296696Y-180668825D01*
X99275336Y-180684124D01*
X99259580Y-180695253D01*
X99249882Y-180701877D01*
X99247100Y-180703580D01*
X99220338Y-180713925D01*
X99195740Y-180716772D01*
X99171598Y-180712151D01*
X99155550Y-180705265D01*
X99149870Y-180701595D01*
X99137844Y-180693217D01*
X99119926Y-180680465D01*
X99096573Y-180663676D01*
X99068237Y-180643183D01*
X99035376Y-180619322D01*
X98998442Y-180592427D01*
X98957892Y-180562834D01*
X98914180Y-180530877D01*
X98867761Y-180496891D01*
X98819090Y-180461211D01*
X98768622Y-180424172D01*
X98716812Y-180386109D01*
X98664114Y-180347357D01*
X98610983Y-180308250D01*
X98557875Y-180269124D01*
X98505244Y-180230313D01*
X98453546Y-180192153D01*
X98403234Y-180154978D01*
X98354765Y-180119123D01*
X98308592Y-180084923D01*
X98265171Y-180052713D01*
X98224957Y-180022827D01*
X98188404Y-179995602D01*
X98155967Y-179971371D01*
X98128102Y-179950470D01*
X98105263Y-179933233D01*
X98087905Y-179919995D01*
X98076484Y-179911091D01*
X98073290Y-179908494D01*
X98052024Y-179888031D01*
X98032957Y-179864705D01*
X98017795Y-179840872D01*
X98008244Y-179818886D01*
X98008178Y-179818668D01*
X98003232Y-179796576D01*
X97999518Y-179768346D01*
X97997020Y-179735649D01*
X97995725Y-179700157D01*
X97995619Y-179663539D01*
X97996688Y-179627467D01*
X97998919Y-179593613D01*
X98002296Y-179563647D01*
X98006807Y-179539240D01*
X98010609Y-179526421D01*
X98022251Y-179503904D01*
X98037190Y-179488936D01*
X98054874Y-179481724D01*
X98074752Y-179482475D01*
X98096272Y-179491397D01*
X98099067Y-179493109D01*
X98104177Y-179497558D01*
X98114755Y-179507804D01*
X98130455Y-179523486D01*
X98150932Y-179544246D01*
X98175838Y-179569727D01*
X98204828Y-179599569D01*
X98237555Y-179633414D01*
X98273672Y-179670903D01*
X98312835Y-179711679D01*
X98354695Y-179755381D01*
X98398907Y-179801653D01*
X98445125Y-179850136D01*
X98493003Y-179900470D01*
X98517215Y-179925967D01*
X98565193Y-179976462D01*
X98611612Y-180025214D01*
X98656135Y-180071870D01*
X98698424Y-180116082D01*
X98738139Y-180157498D01*
X98774943Y-180195769D01*
X98808496Y-180230543D01*
X98838461Y-180261471D01*
X98864500Y-180288202D01*
X98886272Y-180310386D01*
X98903442Y-180327673D01*
X98915668Y-180339711D01*
X98922615Y-180346151D01*
X98924093Y-180347184D01*
X98930347Y-180343616D01*
X98932414Y-180338592D01*
X98930812Y-180335280D01*
X98925535Y-180327856D01*
X98916437Y-180316148D01*
X98903373Y-180299986D01*
X98886197Y-180279199D01*
X98864764Y-180253616D01*
X98838930Y-180223065D01*
X98808548Y-180187375D01*
X98773475Y-180146376D01*
X98733563Y-180099897D01*
X98688669Y-180047766D01*
X98638646Y-179989813D01*
X98583351Y-179925866D01*
X98522637Y-179855754D01*
X98512718Y-179844308D01*
X98464701Y-179788860D01*
X98418141Y-179735012D01*
X98373346Y-179683124D01*
X98330625Y-179633556D01*
X98290287Y-179586670D01*
X98252640Y-179542827D01*
X98217993Y-179502386D01*
X98186654Y-179465710D01*
X98158932Y-179433158D01*
X98135136Y-179405092D01*
X98115574Y-179381872D01*
X98100555Y-179363860D01*
X98090387Y-179351415D01*
X98085380Y-179344899D01*
X98084946Y-179344189D01*
X98077188Y-179320088D01*
X98075269Y-179292376D01*
X98079272Y-179260613D01*
X98089282Y-179224363D01*
X98105383Y-179183187D01*
X98122955Y-179145906D01*
X98143293Y-179108241D01*
X98163196Y-179077576D01*
X98183598Y-179052556D01*
X98195558Y-179040535D01*
X98220724Y-179020046D01*
X98243787Y-179007701D01*
X98264969Y-179003503D01*
X98284494Y-179007454D01*
X98302584Y-179019557D01*
X98319463Y-179039814D01*
X98320978Y-179042110D01*
X98324590Y-179048263D01*
X98332032Y-179061439D01*
X98343078Y-179081227D01*
X98357501Y-179107216D01*
X98375076Y-179138997D01*
X98395578Y-179176159D01*
X98418780Y-179218291D01*
X98444458Y-179264984D01*
X98472384Y-179315828D01*
X98502335Y-179370411D01*
X98534083Y-179428323D01*
X98567404Y-179489155D01*
X98602071Y-179552496D01*
X98637860Y-179617935D01*
X98664711Y-179667064D01*
X98701021Y-179733489D01*
X98736284Y-179797938D01*
X98770283Y-179860015D01*
X98802798Y-179919325D01*
X98833611Y-179975470D01*
X98862505Y-180028056D01*
X98889261Y-180076685D01*
X98913661Y-180120962D01*
X98935486Y-180160491D01*
X98954518Y-180194875D01*
X98970540Y-180223718D01*
X98983332Y-180246625D01*
X98992677Y-180263198D01*
X98998356Y-180273043D01*
X99000099Y-180275795D01*
X99008432Y-180280342D01*
X99014945Y-180276986D01*
X99017417Y-180270663D01*
X99015722Y-180266014D01*
X99010390Y-180254133D01*
X99001584Y-180235355D01*
X98989470Y-180210014D01*
X98974210Y-180178443D01*
X98955969Y-180140977D01*
X98934911Y-180097949D01*
X98911200Y-180049693D01*
X98885000Y-179996543D01*
X98856476Y-179938834D01*
X98825791Y-179876899D01*
X98793110Y-179811071D01*
X98758596Y-179741686D01*
X98722415Y-179669077D01*
X98684729Y-179593577D01*
X98681608Y-179587331D01*
X98638915Y-179501892D01*
X98599841Y-179423694D01*
X98564232Y-179352400D01*
X98531934Y-179287672D01*
X98502793Y-179229172D01*
X98476653Y-179176561D01*
X98453362Y-179129503D01*
X98432766Y-179087658D01*
X98414709Y-179050690D01*
X98399038Y-179018260D01*
X98385599Y-178990031D01*
X98374238Y-178965664D01*
X98364800Y-178944821D01*
X98357132Y-178927166D01*
X98351079Y-178912358D01*
X98346487Y-178900062D01*
X98343203Y-178889939D01*
X98341071Y-178881650D01*
X98339938Y-178874859D01*
X98339650Y-178869227D01*
X98340052Y-178864416D01*
X98340991Y-178860088D01*
X98342312Y-178855906D01*
X98343862Y-178851531D01*
X98344780Y-178848847D01*
X98351564Y-178835895D01*
X98364541Y-178819759D01*
X98383990Y-178800159D01*
X98410186Y-178776813D01*
X98442234Y-178750385D01*
X98485290Y-178717054D01*
X98524519Y-178689124D01*
X98559566Y-178666808D01*
X98590075Y-178650321D01*
X98615691Y-178639876D01*
X98631687Y-178636109D01*
X98649100Y-178637762D01*
X98664446Y-178647570D01*
X98677602Y-178665449D01*
X98679183Y-178668437D01*
X98681105Y-178674127D01*
X98685094Y-178687583D01*
X98691035Y-178708390D01*
X98698817Y-178736134D01*
X98708326Y-178770398D01*
X98719449Y-178810768D01*
X98732073Y-178856830D01*
X98746084Y-178908167D01*
X98761370Y-178964365D01*
X98777817Y-179025008D01*
X98795313Y-179089683D01*
X98813743Y-179157972D01*
X98832995Y-179229463D01*
X98852957Y-179303738D01*
X98873514Y-179380384D01*
X98888792Y-179437445D01*
X98909718Y-179515652D01*
X98930111Y-179591853D01*
X98949859Y-179665629D01*
X98968848Y-179736559D01*
X98986968Y-179804225D01*
X99004104Y-179868206D01*
X99020145Y-179928084D01*
X99034979Y-179983439D01*
X99048492Y-180033851D01*
X99060573Y-180078901D01*
X99071108Y-180118170D01*
X99079987Y-180151237D01*
X99087095Y-180177684D01*
X99092321Y-180197091D01*
X99095553Y-180209038D01*
X99096578Y-180212775D01*
X99101149Y-180226304D01*
X99105741Y-180233143D01*
X99111351Y-180235000D01*
X99119326Y-180232485D01*
X99122033Y-180229266D01*
X99121335Y-180224621D01*
X99118851Y-180212118D01*
X99114671Y-180192157D01*
X99108883Y-180165138D01*
X99101575Y-180131458D01*
X99092836Y-180091518D01*
X99082755Y-180045717D01*
X99071419Y-179994454D01*
X99058917Y-179938129D01*
X99045339Y-179877139D01*
X99030772Y-179811886D01*
X99015304Y-179742768D01*
X98999025Y-179670184D01*
X98982023Y-179594534D01*
X98964386Y-179516217D01*
X98946202Y-179435631D01*
X98942052Y-179417258D01*
X98920270Y-179320865D01*
X98900278Y-179232383D01*
X98882005Y-179151461D01*
X98865380Y-179077749D01*
X98850334Y-179010900D01*
X98836795Y-178950562D01*
X98824692Y-178896386D01*
X98813955Y-178848023D01*
X98804514Y-178805123D01*
X98796297Y-178767337D01*
X98789234Y-178734315D01*
X98783254Y-178705707D01*
X98778287Y-178681164D01*
X98774261Y-178660336D01*
X98771107Y-178642874D01*
X98768754Y-178628428D01*
X98767130Y-178616648D01*
X98766166Y-178607186D01*
X98765790Y-178599690D01*
X98765932Y-178593813D01*
X98766522Y-178589204D01*
X98767488Y-178585513D01*
X98768759Y-178582392D01*
X98770267Y-178579490D01*
X98771938Y-178576458D01*
X98772047Y-178576256D01*
X98781178Y-178566233D01*
X98797542Y-178555541D01*
X98819969Y-178544530D01*
X98847286Y-178533548D01*
X98878321Y-178522943D01*
X98911904Y-178513064D01*
X98946861Y-178504260D01*
X98982022Y-178496878D01*
X99016215Y-178491269D01*
X99048268Y-178487779D01*
X99073000Y-178486740D01*
X99101323Y-178489858D01*
G37*
X99101323Y-178489858D02*
X99125033Y-178499073D01*
X99143342Y-178513890D01*
X99155462Y-178533814D01*
X99157496Y-178539749D01*
X99158193Y-178545037D01*
X99158933Y-178556430D01*
X99159720Y-178574090D01*
X99160557Y-178598181D01*
X99161448Y-178628865D01*
X99162397Y-178666306D01*
X99163405Y-178710667D01*
X99164478Y-178762111D01*
X99165618Y-178820801D01*
X99166828Y-178886900D01*
X99168112Y-178960571D01*
X99169473Y-179041978D01*
X99170914Y-179131282D01*
X99172440Y-179228648D01*
X99174052Y-179334239D01*
X99174862Y-179388179D01*
X99176361Y-179488035D01*
X99177752Y-179579762D01*
X99179043Y-179663697D01*
X99180241Y-179740178D01*
X99181354Y-179809541D01*
X99182390Y-179872123D01*
X99183356Y-179928261D01*
X99184260Y-179978292D01*
X99185109Y-180022554D01*
X99185911Y-180061384D01*
X99186673Y-180095117D01*
X99187403Y-180124092D01*
X99188109Y-180148645D01*
X99188798Y-180169114D01*
X99189477Y-180185836D01*
X99190154Y-180199146D01*
X99190837Y-180209384D01*
X99191533Y-180216884D01*
X99192250Y-180221986D01*
X99192996Y-180225025D01*
X99193646Y-180226227D01*
X99199437Y-180230417D01*
X99204688Y-180227835D01*
X99206355Y-180226226D01*
X99207128Y-180224658D01*
X99207866Y-180221317D01*
X99208577Y-180215866D01*
X99209266Y-180207969D01*
X99209943Y-180197289D01*
X99210615Y-180183489D01*
X99211288Y-180166234D01*
X99211970Y-180145185D01*
X99212669Y-180120008D01*
X99213392Y-180090366D01*
X99214146Y-180055921D01*
X99214940Y-180016337D01*
X99215780Y-179971279D01*
X99216673Y-179920409D01*
X99217628Y-179863390D01*
X99218651Y-179799887D01*
X99219750Y-179729562D01*
X99220932Y-179652080D01*
X99222205Y-179567103D01*
X99223577Y-179474295D01*
X99224881Y-179385157D01*
X99237053Y-178550443D01*
X99247101Y-178530186D01*
X99257533Y-178513368D01*
X99270505Y-178501069D01*
X99287090Y-178492948D01*
X99308359Y-178488668D01*
X99335385Y-178487891D01*
X99369240Y-178490277D01*
X99372434Y-178490612D01*
X99448132Y-178502885D01*
X99523789Y-178523478D01*
X99544052Y-178530417D01*
X99574998Y-178542255D01*
X99598510Y-178553291D01*
X99615469Y-178564294D01*
X99626762Y-178576034D01*
X99633270Y-178589283D01*
X99635878Y-178604811D01*
X99636033Y-178610604D01*
X99635111Y-178616565D01*
X99632403Y-178630372D01*
X99628001Y-178651616D01*
X99621995Y-178679885D01*
X99614476Y-178714770D01*
X99605535Y-178755860D01*
X99595261Y-178802746D01*
X99583746Y-178855016D01*
X99571080Y-178912262D01*
X99557354Y-178974073D01*
X99542658Y-179040038D01*
X99527083Y-179109748D01*
X99510719Y-179182793D01*
X99493657Y-179258761D01*
X99475988Y-179337243D01*
X99457803Y-179417830D01*
X99455886Y-179426310D01*
X99437695Y-179506886D01*
X99420031Y-179585281D01*
X99402984Y-179661096D01*
X99386641Y-179733928D01*
X99371093Y-179803376D01*
X99356428Y-179869037D01*
X99342736Y-179930512D01*
X99330105Y-179987397D01*
X99318624Y-180039291D01*
X99308382Y-180085794D01*
X99299468Y-180126502D01*
X99291972Y-180161015D01*
X99285982Y-180188931D01*
X99281588Y-180209848D01*
X99278877Y-180223364D01*
X99277940Y-180229079D01*
X99277953Y-180229230D01*
X99283513Y-180234034D01*
X99288467Y-180235000D01*
X99294151Y-180232918D01*
X99298820Y-180225581D01*
X99303149Y-180212775D01*
X99304895Y-180206422D01*
X99308716Y-180192310D01*
X99314500Y-180170858D01*
X99322136Y-180142485D01*
X99331509Y-180107610D01*
X99342508Y-180066654D01*
X99355020Y-180020035D01*
X99368933Y-179968173D01*
X99384135Y-179911488D01*
X99400512Y-179850398D01*
X99417952Y-179785324D01*
X99436343Y-179716684D01*
X99455572Y-179644898D01*
X99475527Y-179570386D01*
X99496095Y-179493567D01*
X99511170Y-179437252D01*
X99532077Y-179359185D01*
X99552444Y-179283211D01*
X99572159Y-179209746D01*
X99591111Y-179139200D01*
X99609188Y-179071988D01*
X99626278Y-179008522D01*
X99642270Y-178949215D01*
X99657053Y-178894481D01*
X99670514Y-178844731D01*
X99682542Y-178800379D01*
X99693025Y-178761837D01*
X99701853Y-178729519D01*
X99708913Y-178703838D01*
X99714093Y-178685206D01*
X99717283Y-178674037D01*
X99718295Y-178670821D01*
X99725204Y-178659507D01*
X99735395Y-178648044D01*
X99737909Y-178645801D01*
X99749413Y-178638464D01*
X99762109Y-178635765D01*
X99777570Y-178637814D01*
X99797369Y-178644719D01*
X99811254Y-178650895D01*
X99833050Y-178662362D01*
X99858069Y-178677636D01*
X99885257Y-178695871D01*
X99913558Y-178716221D01*
X99941917Y-178737839D01*
X99969279Y-178759881D01*
X99994589Y-178781499D01*
X100016792Y-178801847D01*
X100034833Y-178820079D01*
X100047656Y-178835349D01*
X100053625Y-178845273D01*
X100058901Y-178868573D01*
X100056743Y-178895553D01*
X100051464Y-178914596D01*
X100048748Y-178920781D01*
X100042437Y-178934133D01*
X100032728Y-178954253D01*
X100019821Y-178980739D01*
X100003913Y-179013191D01*
X99985204Y-179051206D01*
X99963891Y-179094384D01*
X99940174Y-179142325D01*
X99914250Y-179194627D01*
X99886317Y-179250889D01*
X99856576Y-179310710D01*
X99825223Y-179373690D01*
X99792457Y-179439427D01*
X99758477Y-179507520D01*
X99723480Y-179577569D01*
X99712563Y-179599404D01*
X99674492Y-179675602D01*
X99638032Y-179748702D01*
X99603343Y-179818381D01*
X99570582Y-179884316D01*
X99539909Y-179946184D01*
X99511483Y-180003662D01*
X99485462Y-180056427D01*
X99462005Y-180104156D01*
X99441272Y-180146526D01*
X99423420Y-180183214D01*
X99408609Y-180213897D01*
X99396997Y-180238252D01*
X99388743Y-180255956D01*
X99384006Y-180266686D01*
X99382858Y-180270056D01*
X99386717Y-180278733D01*
X99394028Y-180279931D01*
X99397930Y-180278060D01*
X99400507Y-180274038D01*
X99406924Y-180262971D01*
X99416968Y-180245248D01*
X99430425Y-180221257D01*
X99447079Y-180191386D01*
X99466717Y-180156023D01*
X99489125Y-180115555D01*
X99514087Y-180070371D01*
X99541390Y-180020859D01*
X99570819Y-179967406D01*
X99602159Y-179910401D01*
X99635198Y-179850232D01*
X99669719Y-179787286D01*
X99705509Y-179721953D01*
X99742271Y-179654770D01*
X99779180Y-179587322D01*
X99815074Y-179521805D01*
X99849737Y-179458613D01*
X99882952Y-179398140D01*
X99914499Y-179340779D01*
X99944163Y-179286924D01*
X99971724Y-179236968D01*
X99996967Y-179191304D01*
X100019673Y-179150326D01*
X100039625Y-179114428D01*
X100056606Y-179084003D01*
X100070397Y-179059444D01*
X100080781Y-179041146D01*
X100087542Y-179029501D01*
X100090441Y-179024923D01*
X100108382Y-179010324D01*
X100127881Y-179003884D01*
X100149045Y-179005618D01*
X100171982Y-179015541D01*
X100196798Y-179033667D01*
X100204443Y-179040535D01*
X100222025Y-179058798D01*
X100238601Y-179080157D01*
X100255097Y-179106012D01*
X100272436Y-179137759D01*
X100283748Y-179160464D01*
X100302413Y-179203190D01*
X100315420Y-179242453D01*
X100322673Y-179277704D01*
X100324074Y-179308393D01*
X100319527Y-179333969D01*
X100315953Y-179342782D01*
X100312332Y-179347747D01*
X100303466Y-179358739D01*
X100289663Y-179375396D01*
X100271234Y-179397356D01*
X100248488Y-179424257D01*
X100221734Y-179455737D01*
X100191283Y-179491434D01*
X100157443Y-179530986D01*
X100120524Y-179574030D01*
X100080835Y-179620204D01*
X100038687Y-179669146D01*
X99994389Y-179720495D01*
X99948250Y-179773888D01*
X99900579Y-179828962D01*
X99887283Y-179844308D01*
X99825715Y-179915392D01*
X99769587Y-179980284D01*
X99718756Y-180039157D01*
X99673075Y-180092180D01*
X99632400Y-180139526D01*
X99596585Y-180181364D01*
X99565484Y-180217866D01*
X99538954Y-180249203D01*
X99516847Y-180275547D01*
X99499020Y-180297067D01*
X99485327Y-180313936D01*
X99475623Y-180326324D01*
X99469762Y-180334402D01*
X99467600Y-180338341D01*
X99467586Y-180338592D01*
X99471524Y-180345551D01*
X99475898Y-180347184D01*
X99479610Y-180344166D01*
X99488798Y-180335349D01*
X99503123Y-180321083D01*
X99522245Y-180301721D01*
X99545824Y-180277614D01*
X99573519Y-180249116D01*
X99604992Y-180216576D01*
X99639902Y-180180348D01*
X99677909Y-180140784D01*
X99718673Y-180098234D01*
X99761854Y-180053052D01*
X99807112Y-180005589D01*
X99854108Y-179956197D01*
X99882822Y-179925967D01*
X99930919Y-179875354D01*
X99977627Y-179826310D01*
X100022593Y-179779201D01*
X100065464Y-179734392D01*
X100105888Y-179692248D01*
X100143512Y-179653133D01*
X100177984Y-179617413D01*
X100208950Y-179585453D01*
X100236059Y-179557618D01*
X100258957Y-179534273D01*
X100277291Y-179515783D01*
X100290710Y-179502513D01*
X100298861Y-179494828D01*
X100300980Y-179493109D01*
X100322629Y-179483141D01*
X100342724Y-179481371D01*
X100360708Y-179487590D01*
X100376024Y-179501586D01*
X100388115Y-179523150D01*
X100389392Y-179526421D01*
X100394675Y-179545943D01*
X100398840Y-179572172D01*
X100401874Y-179603418D01*
X100403766Y-179637996D01*
X100404503Y-179674216D01*
X100404073Y-179710392D01*
X100402466Y-179744834D01*
X100399669Y-179775856D01*
X100395670Y-179801769D01*
X100391437Y-179818166D01*
X100377585Y-179848171D01*
X100357149Y-179877511D01*
X100331827Y-179903765D01*
X100330841Y-179904626D01*
X100323232Y-179910785D01*
X100309415Y-179921482D01*
X100289845Y-179936382D01*
X100264976Y-179955150D01*
X100235262Y-179977451D01*
X100201158Y-180002951D01*
X100163117Y-180031314D01*
X100121595Y-180062206D01*
X100077045Y-180095291D01*
X100029921Y-180130236D01*
X99980679Y-180166703D01*
X99929772Y-180204360D01*
X99877655Y-180242871D01*
X99824782Y-180281900D01*
X99771607Y-180321114D01*
X99718584Y-180360176D01*
X99666168Y-180398754D01*
X99614814Y-180436510D01*
X99564975Y-180473111D01*
X99517106Y-180508221D01*
X99471660Y-180541506D01*
X99429094Y-180572630D01*
X99389859Y-180601259D01*
X99354412Y-180627058D01*
X99323206Y-180649692D01*
X99296696Y-180668825D01*
X99275336Y-180684124D01*
X99259580Y-180695253D01*
X99249882Y-180701877D01*
X99247100Y-180703580D01*
X99220338Y-180713925D01*
X99195740Y-180716772D01*
X99171598Y-180712151D01*
X99155550Y-180705265D01*
X99149870Y-180701595D01*
X99137844Y-180693217D01*
X99119926Y-180680465D01*
X99096573Y-180663676D01*
X99068237Y-180643183D01*
X99035376Y-180619322D01*
X98998442Y-180592427D01*
X98957892Y-180562834D01*
X98914180Y-180530877D01*
X98867761Y-180496891D01*
X98819090Y-180461211D01*
X98768622Y-180424172D01*
X98716812Y-180386109D01*
X98664114Y-180347357D01*
X98610983Y-180308250D01*
X98557875Y-180269124D01*
X98505244Y-180230313D01*
X98453546Y-180192153D01*
X98403234Y-180154978D01*
X98354765Y-180119123D01*
X98308592Y-180084923D01*
X98265171Y-180052713D01*
X98224957Y-180022827D01*
X98188404Y-179995602D01*
X98155967Y-179971371D01*
X98128102Y-179950470D01*
X98105263Y-179933233D01*
X98087905Y-179919995D01*
X98076484Y-179911091D01*
X98073290Y-179908494D01*
X98052024Y-179888031D01*
X98032957Y-179864705D01*
X98017795Y-179840872D01*
X98008244Y-179818886D01*
X98008178Y-179818668D01*
X98003232Y-179796576D01*
X97999518Y-179768346D01*
X97997020Y-179735649D01*
X97995725Y-179700157D01*
X97995619Y-179663539D01*
X97996688Y-179627467D01*
X97998919Y-179593613D01*
X98002296Y-179563647D01*
X98006807Y-179539240D01*
X98010609Y-179526421D01*
X98022251Y-179503904D01*
X98037190Y-179488936D01*
X98054874Y-179481724D01*
X98074752Y-179482475D01*
X98096272Y-179491397D01*
X98099067Y-179493109D01*
X98104177Y-179497558D01*
X98114755Y-179507804D01*
X98130455Y-179523486D01*
X98150932Y-179544246D01*
X98175838Y-179569727D01*
X98204828Y-179599569D01*
X98237555Y-179633414D01*
X98273672Y-179670903D01*
X98312835Y-179711679D01*
X98354695Y-179755381D01*
X98398907Y-179801653D01*
X98445125Y-179850136D01*
X98493003Y-179900470D01*
X98517215Y-179925967D01*
X98565193Y-179976462D01*
X98611612Y-180025214D01*
X98656135Y-180071870D01*
X98698424Y-180116082D01*
X98738139Y-180157498D01*
X98774943Y-180195769D01*
X98808496Y-180230543D01*
X98838461Y-180261471D01*
X98864500Y-180288202D01*
X98886272Y-180310386D01*
X98903442Y-180327673D01*
X98915668Y-180339711D01*
X98922615Y-180346151D01*
X98924093Y-180347184D01*
X98930347Y-180343616D01*
X98932414Y-180338592D01*
X98930812Y-180335280D01*
X98925535Y-180327856D01*
X98916437Y-180316148D01*
X98903373Y-180299986D01*
X98886197Y-180279199D01*
X98864764Y-180253616D01*
X98838930Y-180223065D01*
X98808548Y-180187375D01*
X98773475Y-180146376D01*
X98733563Y-180099897D01*
X98688669Y-180047766D01*
X98638646Y-179989813D01*
X98583351Y-179925866D01*
X98522637Y-179855754D01*
X98512718Y-179844308D01*
X98464701Y-179788860D01*
X98418141Y-179735012D01*
X98373346Y-179683124D01*
X98330625Y-179633556D01*
X98290287Y-179586670D01*
X98252640Y-179542827D01*
X98217993Y-179502386D01*
X98186654Y-179465710D01*
X98158932Y-179433158D01*
X98135136Y-179405092D01*
X98115574Y-179381872D01*
X98100555Y-179363860D01*
X98090387Y-179351415D01*
X98085380Y-179344899D01*
X98084946Y-179344189D01*
X98077188Y-179320088D01*
X98075269Y-179292376D01*
X98079272Y-179260613D01*
X98089282Y-179224363D01*
X98105383Y-179183187D01*
X98122955Y-179145906D01*
X98143293Y-179108241D01*
X98163196Y-179077576D01*
X98183598Y-179052556D01*
X98195558Y-179040535D01*
X98220724Y-179020046D01*
X98243787Y-179007701D01*
X98264969Y-179003503D01*
X98284494Y-179007454D01*
X98302584Y-179019557D01*
X98319463Y-179039814D01*
X98320978Y-179042110D01*
X98324590Y-179048263D01*
X98332032Y-179061439D01*
X98343078Y-179081227D01*
X98357501Y-179107216D01*
X98375076Y-179138997D01*
X98395578Y-179176159D01*
X98418780Y-179218291D01*
X98444458Y-179264984D01*
X98472384Y-179315828D01*
X98502335Y-179370411D01*
X98534083Y-179428323D01*
X98567404Y-179489155D01*
X98602071Y-179552496D01*
X98637860Y-179617935D01*
X98664711Y-179667064D01*
X98701021Y-179733489D01*
X98736284Y-179797938D01*
X98770283Y-179860015D01*
X98802798Y-179919325D01*
X98833611Y-179975470D01*
X98862505Y-180028056D01*
X98889261Y-180076685D01*
X98913661Y-180120962D01*
X98935486Y-180160491D01*
X98954518Y-180194875D01*
X98970540Y-180223718D01*
X98983332Y-180246625D01*
X98992677Y-180263198D01*
X98998356Y-180273043D01*
X99000099Y-180275795D01*
X99008432Y-180280342D01*
X99014945Y-180276986D01*
X99017417Y-180270663D01*
X99015722Y-180266014D01*
X99010390Y-180254133D01*
X99001584Y-180235355D01*
X98989470Y-180210014D01*
X98974210Y-180178443D01*
X98955969Y-180140977D01*
X98934911Y-180097949D01*
X98911200Y-180049693D01*
X98885000Y-179996543D01*
X98856476Y-179938834D01*
X98825791Y-179876899D01*
X98793110Y-179811071D01*
X98758596Y-179741686D01*
X98722415Y-179669077D01*
X98684729Y-179593577D01*
X98681608Y-179587331D01*
X98638915Y-179501892D01*
X98599841Y-179423694D01*
X98564232Y-179352400D01*
X98531934Y-179287672D01*
X98502793Y-179229172D01*
X98476653Y-179176561D01*
X98453362Y-179129503D01*
X98432766Y-179087658D01*
X98414709Y-179050690D01*
X98399038Y-179018260D01*
X98385599Y-178990031D01*
X98374238Y-178965664D01*
X98364800Y-178944821D01*
X98357132Y-178927166D01*
X98351079Y-178912358D01*
X98346487Y-178900062D01*
X98343203Y-178889939D01*
X98341071Y-178881650D01*
X98339938Y-178874859D01*
X98339650Y-178869227D01*
X98340052Y-178864416D01*
X98340991Y-178860088D01*
X98342312Y-178855906D01*
X98343862Y-178851531D01*
X98344780Y-178848847D01*
X98351564Y-178835895D01*
X98364541Y-178819759D01*
X98383990Y-178800159D01*
X98410186Y-178776813D01*
X98442234Y-178750385D01*
X98485290Y-178717054D01*
X98524519Y-178689124D01*
X98559566Y-178666808D01*
X98590075Y-178650321D01*
X98615691Y-178639876D01*
X98631687Y-178636109D01*
X98649100Y-178637762D01*
X98664446Y-178647570D01*
X98677602Y-178665449D01*
X98679183Y-178668437D01*
X98681105Y-178674127D01*
X98685094Y-178687583D01*
X98691035Y-178708390D01*
X98698817Y-178736134D01*
X98708326Y-178770398D01*
X98719449Y-178810768D01*
X98732073Y-178856830D01*
X98746084Y-178908167D01*
X98761370Y-178964365D01*
X98777817Y-179025008D01*
X98795313Y-179089683D01*
X98813743Y-179157972D01*
X98832995Y-179229463D01*
X98852957Y-179303738D01*
X98873514Y-179380384D01*
X98888792Y-179437445D01*
X98909718Y-179515652D01*
X98930111Y-179591853D01*
X98949859Y-179665629D01*
X98968848Y-179736559D01*
X98986968Y-179804225D01*
X99004104Y-179868206D01*
X99020145Y-179928084D01*
X99034979Y-179983439D01*
X99048492Y-180033851D01*
X99060573Y-180078901D01*
X99071108Y-180118170D01*
X99079987Y-180151237D01*
X99087095Y-180177684D01*
X99092321Y-180197091D01*
X99095553Y-180209038D01*
X99096578Y-180212775D01*
X99101149Y-180226304D01*
X99105741Y-180233143D01*
X99111351Y-180235000D01*
X99119326Y-180232485D01*
X99122033Y-180229266D01*
X99121335Y-180224621D01*
X99118851Y-180212118D01*
X99114671Y-180192157D01*
X99108883Y-180165138D01*
X99101575Y-180131458D01*
X99092836Y-180091518D01*
X99082755Y-180045717D01*
X99071419Y-179994454D01*
X99058917Y-179938129D01*
X99045339Y-179877139D01*
X99030772Y-179811886D01*
X99015304Y-179742768D01*
X98999025Y-179670184D01*
X98982023Y-179594534D01*
X98964386Y-179516217D01*
X98946202Y-179435631D01*
X98942052Y-179417258D01*
X98920270Y-179320865D01*
X98900278Y-179232383D01*
X98882005Y-179151461D01*
X98865380Y-179077749D01*
X98850334Y-179010900D01*
X98836795Y-178950562D01*
X98824692Y-178896386D01*
X98813955Y-178848023D01*
X98804514Y-178805123D01*
X98796297Y-178767337D01*
X98789234Y-178734315D01*
X98783254Y-178705707D01*
X98778287Y-178681164D01*
X98774261Y-178660336D01*
X98771107Y-178642874D01*
X98768754Y-178628428D01*
X98767130Y-178616648D01*
X98766166Y-178607186D01*
X98765790Y-178599690D01*
X98765932Y-178593813D01*
X98766522Y-178589204D01*
X98767488Y-178585513D01*
X98768759Y-178582392D01*
X98770267Y-178579490D01*
X98771938Y-178576458D01*
X98772047Y-178576256D01*
X98781178Y-178566233D01*
X98797542Y-178555541D01*
X98819969Y-178544530D01*
X98847286Y-178533548D01*
X98878321Y-178522943D01*
X98911904Y-178513064D01*
X98946861Y-178504260D01*
X98982022Y-178496878D01*
X99016215Y-178491269D01*
X99048268Y-178487779D01*
X99073000Y-178486740D01*
X99101323Y-178489858D01*
G36*
X100681667Y-181081667D02*
G01*
X97718334Y-181081667D01*
X97718334Y-179691167D01*
X97762123Y-179691167D01*
X97766724Y-179800268D01*
X97771548Y-179849767D01*
X97776789Y-179891733D01*
X97782147Y-179926255D01*
X97787939Y-179954353D01*
X97794483Y-179977045D01*
X97802096Y-179995354D01*
X97811097Y-180010297D01*
X97821803Y-180022895D01*
X97827013Y-180027849D01*
X97833454Y-180033100D01*
X97846020Y-180042850D01*
X97864021Y-180056579D01*
X97886765Y-180073766D01*
X97913558Y-180093891D01*
X97943710Y-180116434D01*
X97976528Y-180140873D01*
X98011321Y-180166689D01*
X98029108Y-180179852D01*
X98071486Y-180211210D01*
X98107581Y-180238039D01*
X98137925Y-180260833D01*
X98163052Y-180280085D01*
X98183495Y-180296289D01*
X98199787Y-180309938D01*
X98212460Y-180321525D01*
X98222049Y-180331545D01*
X98229085Y-180340490D01*
X98234102Y-180348854D01*
X98237633Y-180357131D01*
X98240211Y-180365814D01*
X98242369Y-180375397D01*
X98242856Y-180377750D01*
X98244360Y-180386605D01*
X98246816Y-180402976D01*
X98250103Y-180425980D01*
X98254100Y-180454732D01*
X98258685Y-180488351D01*
X98263739Y-180525954D01*
X98269138Y-180566657D01*
X98274764Y-180609577D01*
X98277076Y-180627366D01*
X98284430Y-180683341D01*
X98291062Y-180732272D01*
X98296941Y-180773944D01*
X98302033Y-180808140D01*
X98306306Y-180834644D01*
X98309727Y-180853241D01*
X98312264Y-180863713D01*
X98312937Y-180865419D01*
X98315241Y-180870022D01*
X98317447Y-180874042D01*
X98320112Y-180877517D01*
X98323792Y-180880489D01*
X98329041Y-180882996D01*
X98336416Y-180885078D01*
X98346473Y-180886773D01*
X98359767Y-180888123D01*
X98376854Y-180889165D01*
X98398291Y-180889940D01*
X98424631Y-180890486D01*
X98456433Y-180890844D01*
X98494250Y-180891053D01*
X98538640Y-180891152D01*
X98590157Y-180891181D01*
X98649358Y-180891178D01*
X98675915Y-180891178D01*
X99007384Y-180891189D01*
X99032784Y-180906555D01*
X99062349Y-180923049D01*
X99089907Y-180935007D01*
X99117822Y-180943052D01*
X99148453Y-180947804D01*
X99184164Y-180949885D01*
X99198265Y-180950097D01*
X99227543Y-180949694D01*
X99251336Y-180947863D01*
X99272548Y-180944325D01*
X99282606Y-180941953D01*
X99301438Y-180935986D01*
X99323848Y-180927176D01*
X99346148Y-180917025D01*
X99355354Y-180912319D01*
X99394942Y-180891167D01*
X99725248Y-180891167D01*
X99787640Y-180891172D01*
X99842123Y-180891162D01*
X99889252Y-180891098D01*
X99929585Y-180890938D01*
X99963678Y-180890645D01*
X99992088Y-180890179D01*
X100015372Y-180889499D01*
X100034087Y-180888567D01*
X100048789Y-180887344D01*
X100060036Y-180885788D01*
X100068383Y-180883862D01*
X100074387Y-180881525D01*
X100078607Y-180878738D01*
X100081597Y-180875462D01*
X100083915Y-180871657D01*
X100086118Y-180867283D01*
X100087025Y-180865493D01*
X100089169Y-180858087D01*
X100092230Y-180842492D01*
X100096173Y-180818934D01*
X100100967Y-180787638D01*
X100106576Y-180748828D01*
X100112967Y-180702731D01*
X100120106Y-180649570D01*
X100125240Y-180610507D01*
X100132082Y-180558256D01*
X100137984Y-180513726D01*
X100143057Y-180476235D01*
X100147409Y-180445101D01*
X100151147Y-180419643D01*
X100154382Y-180399180D01*
X100157221Y-180383031D01*
X100159773Y-180370513D01*
X100162148Y-180360946D01*
X100164452Y-180353648D01*
X100166796Y-180347939D01*
X100167268Y-180346949D01*
X100174964Y-180333162D01*
X100183174Y-180321392D01*
X100187333Y-180316814D01*
X100192511Y-180312680D01*
X100203839Y-180304028D01*
X100220646Y-180291356D01*
X100242264Y-180275165D01*
X100268023Y-180255955D01*
X100297254Y-180234225D01*
X100329287Y-180210474D01*
X100363452Y-180185204D01*
X100378984Y-180173736D01*
X100414067Y-180147791D01*
X100447455Y-180122996D01*
X100478455Y-180099874D01*
X100506377Y-180078945D01*
X100530527Y-180060730D01*
X100550214Y-180045749D01*
X100564747Y-180034523D01*
X100573434Y-180027573D01*
X100575153Y-180026072D01*
X100585702Y-180014789D01*
X100594607Y-180001884D01*
X100602177Y-179986335D01*
X100608722Y-179967120D01*
X100614549Y-179943220D01*
X100619967Y-179913613D01*
X100625284Y-179877277D01*
X100629068Y-179847650D01*
X100632406Y-179812410D01*
X100634732Y-179770946D01*
X100636046Y-179725439D01*
X100636348Y-179678070D01*
X100635638Y-179631022D01*
X100633917Y-179586476D01*
X100631183Y-179546613D01*
X100629065Y-179525917D01*
X100611853Y-179416101D01*
X100586700Y-179308495D01*
X100553785Y-179203580D01*
X100513284Y-179101839D01*
X100465375Y-179003753D01*
X100410233Y-178909807D01*
X100393695Y-178884567D01*
X100359792Y-178837052D01*
X100320523Y-178787186D01*
X100277529Y-178736787D01*
X100232450Y-178687676D01*
X100186925Y-178641673D01*
X100142595Y-178600596D01*
X100121706Y-178582736D01*
X100032989Y-178514591D01*
X99940467Y-178453955D01*
X99844372Y-178400926D01*
X99744938Y-178355600D01*
X99642398Y-178318074D01*
X99536986Y-178288444D01*
X99428936Y-178266807D01*
X99327000Y-178254007D01*
X99296090Y-178251906D01*
X99259183Y-178250515D01*
X99218717Y-178249833D01*
X99177132Y-178249862D01*
X99136867Y-178250603D01*
X99100361Y-178252055D01*
X99073000Y-178253947D01*
X98964224Y-178267827D01*
X98857883Y-178289653D01*
X98754325Y-178319165D01*
X98653895Y-178356105D01*
X98556938Y-178400213D01*
X98463800Y-178451231D01*
X98374828Y-178508899D01*
X98290366Y-178572958D01*
X98210762Y-178643150D01*
X98136360Y-178719215D01*
X98067506Y-178800894D01*
X98004546Y-178887929D01*
X97947826Y-178980060D01*
X97897692Y-179077028D01*
X97860992Y-179161850D01*
X97825215Y-179263662D01*
X97797365Y-179368068D01*
X97777517Y-179474499D01*
X97765745Y-179582388D01*
X97762123Y-179691167D01*
X97718334Y-179691167D01*
X97718334Y-178118334D01*
X100681667Y-178118334D01*
X100681667Y-181081667D01*
G37*
X100681667Y-181081667D02*
X97718334Y-181081667D01*
X97718334Y-179691167D01*
X97762123Y-179691167D01*
X97766724Y-179800268D01*
X97771548Y-179849767D01*
X97776789Y-179891733D01*
X97782147Y-179926255D01*
X97787939Y-179954353D01*
X97794483Y-179977045D01*
X97802096Y-179995354D01*
X97811097Y-180010297D01*
X97821803Y-180022895D01*
X97827013Y-180027849D01*
X97833454Y-180033100D01*
X97846020Y-180042850D01*
X97864021Y-180056579D01*
X97886765Y-180073766D01*
X97913558Y-180093891D01*
X97943710Y-180116434D01*
X97976528Y-180140873D01*
X98011321Y-180166689D01*
X98029108Y-180179852D01*
X98071486Y-180211210D01*
X98107581Y-180238039D01*
X98137925Y-180260833D01*
X98163052Y-180280085D01*
X98183495Y-180296289D01*
X98199787Y-180309938D01*
X98212460Y-180321525D01*
X98222049Y-180331545D01*
X98229085Y-180340490D01*
X98234102Y-180348854D01*
X98237633Y-180357131D01*
X98240211Y-180365814D01*
X98242369Y-180375397D01*
X98242856Y-180377750D01*
X98244360Y-180386605D01*
X98246816Y-180402976D01*
X98250103Y-180425980D01*
X98254100Y-180454732D01*
X98258685Y-180488351D01*
X98263739Y-180525954D01*
X98269138Y-180566657D01*
X98274764Y-180609577D01*
X98277076Y-180627366D01*
X98284430Y-180683341D01*
X98291062Y-180732272D01*
X98296941Y-180773944D01*
X98302033Y-180808140D01*
X98306306Y-180834644D01*
X98309727Y-180853241D01*
X98312264Y-180863713D01*
X98312937Y-180865419D01*
X98315241Y-180870022D01*
X98317447Y-180874042D01*
X98320112Y-180877517D01*
X98323792Y-180880489D01*
X98329041Y-180882996D01*
X98336416Y-180885078D01*
X98346473Y-180886773D01*
X98359767Y-180888123D01*
X98376854Y-180889165D01*
X98398291Y-180889940D01*
X98424631Y-180890486D01*
X98456433Y-180890844D01*
X98494250Y-180891053D01*
X98538640Y-180891152D01*
X98590157Y-180891181D01*
X98649358Y-180891178D01*
X98675915Y-180891178D01*
X99007384Y-180891189D01*
X99032784Y-180906555D01*
X99062349Y-180923049D01*
X99089907Y-180935007D01*
X99117822Y-180943052D01*
X99148453Y-180947804D01*
X99184164Y-180949885D01*
X99198265Y-180950097D01*
X99227543Y-180949694D01*
X99251336Y-180947863D01*
X99272548Y-180944325D01*
X99282606Y-180941953D01*
X99301438Y-180935986D01*
X99323848Y-180927176D01*
X99346148Y-180917025D01*
X99355354Y-180912319D01*
X99394942Y-180891167D01*
X99725248Y-180891167D01*
X99787640Y-180891172D01*
X99842123Y-180891162D01*
X99889252Y-180891098D01*
X99929585Y-180890938D01*
X99963678Y-180890645D01*
X99992088Y-180890179D01*
X100015372Y-180889499D01*
X100034087Y-180888567D01*
X100048789Y-180887344D01*
X100060036Y-180885788D01*
X100068383Y-180883862D01*
X100074387Y-180881525D01*
X100078607Y-180878738D01*
X100081597Y-180875462D01*
X100083915Y-180871657D01*
X100086118Y-180867283D01*
X100087025Y-180865493D01*
X100089169Y-180858087D01*
X100092230Y-180842492D01*
X100096173Y-180818934D01*
X100100967Y-180787638D01*
X100106576Y-180748828D01*
X100112967Y-180702731D01*
X100120106Y-180649570D01*
X100125240Y-180610507D01*
X100132082Y-180558256D01*
X100137984Y-180513726D01*
X100143057Y-180476235D01*
X100147409Y-180445101D01*
X100151147Y-180419643D01*
X100154382Y-180399180D01*
X100157221Y-180383031D01*
X100159773Y-180370513D01*
X100162148Y-180360946D01*
X100164452Y-180353648D01*
X100166796Y-180347939D01*
X100167268Y-180346949D01*
X100174964Y-180333162D01*
X100183174Y-180321392D01*
X100187333Y-180316814D01*
X100192511Y-180312680D01*
X100203839Y-180304028D01*
X100220646Y-180291356D01*
X100242264Y-180275165D01*
X100268023Y-180255955D01*
X100297254Y-180234225D01*
X100329287Y-180210474D01*
X100363452Y-180185204D01*
X100378984Y-180173736D01*
X100414067Y-180147791D01*
X100447455Y-180122996D01*
X100478455Y-180099874D01*
X100506377Y-180078945D01*
X100530527Y-180060730D01*
X100550214Y-180045749D01*
X100564747Y-180034523D01*
X100573434Y-180027573D01*
X100575153Y-180026072D01*
X100585702Y-180014789D01*
X100594607Y-180001884D01*
X100602177Y-179986335D01*
X100608722Y-179967120D01*
X100614549Y-179943220D01*
X100619967Y-179913613D01*
X100625284Y-179877277D01*
X100629068Y-179847650D01*
X100632406Y-179812410D01*
X100634732Y-179770946D01*
X100636046Y-179725439D01*
X100636348Y-179678070D01*
X100635638Y-179631022D01*
X100633917Y-179586476D01*
X100631183Y-179546613D01*
X100629065Y-179525917D01*
X100611853Y-179416101D01*
X100586700Y-179308495D01*
X100553785Y-179203580D01*
X100513284Y-179101839D01*
X100465375Y-179003753D01*
X100410233Y-178909807D01*
X100393695Y-178884567D01*
X100359792Y-178837052D01*
X100320523Y-178787186D01*
X100277529Y-178736787D01*
X100232450Y-178687676D01*
X100186925Y-178641673D01*
X100142595Y-178600596D01*
X100121706Y-178582736D01*
X100032989Y-178514591D01*
X99940467Y-178453955D01*
X99844372Y-178400926D01*
X99744938Y-178355600D01*
X99642398Y-178318074D01*
X99536986Y-178288444D01*
X99428936Y-178266807D01*
X99327000Y-178254007D01*
X99296090Y-178251906D01*
X99259183Y-178250515D01*
X99218717Y-178249833D01*
X99177132Y-178249862D01*
X99136867Y-178250603D01*
X99100361Y-178252055D01*
X99073000Y-178253947D01*
X98964224Y-178267827D01*
X98857883Y-178289653D01*
X98754325Y-178319165D01*
X98653895Y-178356105D01*
X98556938Y-178400213D01*
X98463800Y-178451231D01*
X98374828Y-178508899D01*
X98290366Y-178572958D01*
X98210762Y-178643150D01*
X98136360Y-178719215D01*
X98067506Y-178800894D01*
X98004546Y-178887929D01*
X97947826Y-178980060D01*
X97897692Y-179077028D01*
X97860992Y-179161850D01*
X97825215Y-179263662D01*
X97797365Y-179368068D01*
X97777517Y-179474499D01*
X97765745Y-179582388D01*
X97762123Y-179691167D01*
X97718334Y-179691167D01*
X97718334Y-178118334D01*
X100681667Y-178118334D01*
X100681667Y-181081667D01*
D12*
%TO.C,C17*%
X88715000Y-173775000D02*
X89965000Y-173775000D01*
X89340000Y-174400000D02*
X89340000Y-173150000D01*
X96295563Y-172910000D02*
X97360000Y-171845563D01*
X87904437Y-172910000D02*
X86840000Y-171845563D01*
X87904437Y-172910000D02*
X90590000Y-172910000D01*
X96295563Y-172910000D02*
X93610000Y-172910000D01*
X97360000Y-171845563D02*
X97360000Y-162390000D01*
X86840000Y-171845563D02*
X86840000Y-162390000D01*
X86840000Y-162390000D02*
X90590000Y-162390000D01*
X97360000Y-162390000D02*
X93610000Y-162390000D01*
%TO.C,C5*%
X52685000Y-145023000D02*
X51435000Y-145023000D01*
X52060000Y-144398000D02*
X52060000Y-145648000D01*
X45104437Y-145888000D02*
X44040000Y-146952437D01*
X53495563Y-145888000D02*
X54560000Y-146952437D01*
X53495563Y-145888000D02*
X50810000Y-145888000D01*
X45104437Y-145888000D02*
X47790000Y-145888000D01*
X44040000Y-146952437D02*
X44040000Y-156408000D01*
X54560000Y-146952437D02*
X54560000Y-156408000D01*
X54560000Y-156408000D02*
X50810000Y-156408000D01*
X44040000Y-156408000D02*
X47790000Y-156408000D01*
D10*
%TO.C,U2*%
X60064000Y-150284000D02*
X58664000Y-150284000D01*
X60064000Y-155384000D02*
X64214000Y-155384000D01*
X60064000Y-150234000D02*
X64214000Y-150234000D01*
X60064000Y-155384000D02*
X60064000Y-155239000D01*
X64214000Y-155384000D02*
X64214000Y-155239000D01*
X64214000Y-150234000D02*
X64214000Y-150379000D01*
X60064000Y-150234000D02*
X60064000Y-150284000D01*
D12*
%TO.C,L2*%
X76600000Y-157800000D02*
X73600000Y-157800000D01*
X73600000Y-157800000D02*
X73600000Y-145200000D01*
X73600000Y-145200000D02*
X76600000Y-145200000D01*
X83200000Y-145200000D02*
X86200000Y-145200000D01*
X86200000Y-145200000D02*
X86200000Y-157800000D01*
X86200000Y-157800000D02*
X83200000Y-157800000D01*
%TO.C,C2*%
X60633578Y-149318000D02*
X60116422Y-149318000D01*
X60633578Y-147898000D02*
X60116422Y-147898000D01*
%TO.C,C6*%
X64732000Y-146248000D02*
X64732000Y-142498000D01*
X64732000Y-135728000D02*
X64732000Y-139478000D01*
X55276437Y-135728000D02*
X64732000Y-135728000D01*
X55276437Y-146248000D02*
X64732000Y-146248000D01*
X54212000Y-145183563D02*
X54212000Y-142498000D01*
X54212000Y-136792437D02*
X54212000Y-139478000D01*
X54212000Y-136792437D02*
X55276437Y-135728000D01*
X54212000Y-145183563D02*
X55276437Y-146248000D01*
X52722000Y-138228000D02*
X53972000Y-138228000D01*
X53347000Y-137603000D02*
X53347000Y-138853000D01*
%TO.C,C8*%
X89652064Y-143540000D02*
X88447936Y-143540000D01*
X89652064Y-145360000D02*
X88447936Y-145360000D01*
%TO.C,C10*%
X88815000Y-158625000D02*
X90065000Y-158625000D01*
X89440000Y-159250000D02*
X89440000Y-158000000D01*
X96395563Y-157760000D02*
X97460000Y-156695563D01*
X88004437Y-157760000D02*
X86940000Y-156695563D01*
X88004437Y-157760000D02*
X90690000Y-157760000D01*
X96395563Y-157760000D02*
X93710000Y-157760000D01*
X97460000Y-156695563D02*
X97460000Y-147240000D01*
X86940000Y-156695563D02*
X86940000Y-147240000D01*
X86940000Y-147240000D02*
X90690000Y-147240000D01*
X97460000Y-147240000D02*
X93710000Y-147240000D01*
%TO.C,C15*%
X78758578Y-167310000D02*
X78241422Y-167310000D01*
X78758578Y-168730000D02*
X78241422Y-168730000D01*
%TO.C,C18*%
X76802064Y-177840000D02*
X75597936Y-177840000D01*
X76802064Y-179660000D02*
X75597936Y-179660000D01*
%TO.C,C19*%
X53515000Y-174675000D02*
X54765000Y-174675000D01*
X54140000Y-175300000D02*
X54140000Y-174050000D01*
X61095563Y-173810000D02*
X62160000Y-172745563D01*
X52704437Y-173810000D02*
X51640000Y-172745563D01*
X52704437Y-173810000D02*
X55390000Y-173810000D01*
X61095563Y-173810000D02*
X58410000Y-173810000D01*
X62160000Y-172745563D02*
X62160000Y-163290000D01*
X51640000Y-172745563D02*
X51640000Y-163290000D01*
X51640000Y-163290000D02*
X55390000Y-163290000D01*
X62160000Y-163290000D02*
X58410000Y-163290000D01*
%TO.C,D2*%
X72882000Y-149344000D02*
X66382000Y-149344000D01*
X72882000Y-149344000D02*
X72882000Y-140944000D01*
X66382000Y-149344000D02*
X66382000Y-140944000D01*
%TO.C,D3*%
X51930000Y-161185000D02*
X54215000Y-161185000D01*
X54215000Y-161185000D02*
X54215000Y-159715000D01*
X54215000Y-159715000D02*
X51930000Y-159715000D01*
%TO.C,D4*%
X76700000Y-166800000D02*
X76700000Y-160300000D01*
X76700000Y-166800000D02*
X85100000Y-166800000D01*
X76700000Y-160300000D02*
X85100000Y-160300000D01*
%TO.C,D5*%
X97790000Y-151552500D02*
X97790000Y-154237500D01*
X99710000Y-151552500D02*
X97790000Y-151552500D01*
X99710000Y-154237500D02*
X99710000Y-151552500D01*
%TO.C,D6*%
X50610000Y-172650000D02*
X50610000Y-169965000D01*
X50610000Y-169965000D02*
X48690000Y-169965000D01*
X48690000Y-169965000D02*
X48690000Y-172650000D01*
%TO.C,L3*%
X66300000Y-173700000D02*
X63300000Y-173700000D01*
X63300000Y-173700000D02*
X63300000Y-161100000D01*
X63300000Y-161100000D02*
X66300000Y-161100000D01*
X72900000Y-161100000D02*
X75900000Y-161100000D01*
X75900000Y-161100000D02*
X75900000Y-173700000D01*
X75900000Y-173700000D02*
X72900000Y-173700000D01*
%TO.C,R2*%
X52849422Y-159284000D02*
X53366578Y-159284000D01*
X52849422Y-157864000D02*
X53366578Y-157864000D01*
%TO.C,R4*%
X65918000Y-158045078D02*
X65918000Y-157527922D01*
X64498000Y-158045078D02*
X64498000Y-157527922D01*
%TO.C,R6*%
X55348000Y-158120078D02*
X55348000Y-157602922D01*
X56768000Y-158120078D02*
X56768000Y-157602922D01*
%TO.C,R8*%
X60968000Y-157571922D02*
X60968000Y-158089078D01*
X59548000Y-157571922D02*
X59548000Y-158089078D01*
%TO.C,R10*%
X67761922Y-154264000D02*
X68279078Y-154264000D01*
X67761922Y-155684000D02*
X68279078Y-155684000D01*
%TO.C,R12*%
X63510000Y-157527922D02*
X63510000Y-158045078D01*
X62090000Y-157527922D02*
X62090000Y-158045078D01*
%TO.C,R14*%
X58818000Y-158145078D02*
X58818000Y-157627922D01*
X57398000Y-158145078D02*
X57398000Y-157627922D01*
%TO.C,R15*%
X84590000Y-176958578D02*
X84590000Y-176441422D01*
X86010000Y-176958578D02*
X86010000Y-176441422D01*
%TO.C,R16*%
X75441422Y-175340000D02*
X75958578Y-175340000D01*
X75441422Y-176760000D02*
X75958578Y-176760000D01*
%TO.C,R17*%
X82540000Y-176441422D02*
X82540000Y-176958578D01*
X83960000Y-176441422D02*
X83960000Y-176958578D01*
%TO.C,R18*%
X79028922Y-176710000D02*
X79546078Y-176710000D01*
X79028922Y-175290000D02*
X79546078Y-175290000D01*
%TO.C,R19*%
X55921422Y-159980000D02*
X56438578Y-159980000D01*
X55921422Y-161400000D02*
X56438578Y-161400000D01*
%TO.C,R20*%
X99460000Y-149751078D02*
X99460000Y-149233922D01*
X98040000Y-149751078D02*
X98040000Y-149233922D01*
%TO.C,R21*%
X48940000Y-167308578D02*
X48940000Y-166791422D01*
X50360000Y-167308578D02*
X50360000Y-166791422D01*
D10*
%TO.C,U3*%
X78429000Y-169352000D02*
X78429000Y-169402000D01*
X82579000Y-169352000D02*
X82579000Y-169497000D01*
X82579000Y-174502000D02*
X82579000Y-174357000D01*
X78429000Y-174502000D02*
X78429000Y-174357000D01*
X78429000Y-169352000D02*
X82579000Y-169352000D01*
X78429000Y-174502000D02*
X82579000Y-174502000D01*
X78429000Y-169402000D02*
X77029000Y-169402000D01*
%TD*%
M02*
