%TF.GenerationSoftware,KiCad,Pcbnew,(5.1.6)-1*%
%TF.CreationDate,2021-04-02T17:33:40+02:00*%
%TF.ProjectId,48-24,34382d32-342e-46b6-9963-61645f706362,rev?*%
%TF.SameCoordinates,Original*%
%TF.FileFunction,Soldermask,Top*%
%TF.FilePolarity,Negative*%
%FSLAX46Y46*%
G04 Gerber Fmt 4.6, Leading zero omitted, Abs format (unit mm)*
G04 Created by KiCad (PCBNEW (5.1.6)-1) date 2021-04-02 17:33:40*
%MOMM*%
%LPD*%
G01*
G04 APERTURE LIST*
%ADD10C,3.900000*%
%ADD11R,1.650000X0.700000*%
%ADD12R,2.700000X3.200000*%
%ADD13R,5.500000X3.000000*%
%ADD14R,3.400000X2.600000*%
%ADD15R,2.600000X3.400000*%
G04 APERTURE END LIST*
D10*
%TO.C,H2*%
X46850000Y-160150000D03*
%TD*%
%TO.C,H1*%
X46850000Y-141750000D03*
%TD*%
%TO.C,J16*%
G36*
G01*
X87050000Y-137925000D02*
X87050000Y-135875000D01*
G75*
G02*
X87575000Y-135350000I525000J0D01*
G01*
X88625000Y-135350000D01*
G75*
G02*
X89150000Y-135875000I0J-525000D01*
G01*
X89150000Y-137925000D01*
G75*
G02*
X88625000Y-138450000I-525000J0D01*
G01*
X87575000Y-138450000D01*
G75*
G02*
X87050000Y-137925000I0J525000D01*
G01*
G37*
%TD*%
%TO.C,J15*%
G36*
G01*
X93050000Y-138025000D02*
X93050000Y-135975000D01*
G75*
G02*
X93575000Y-135450000I525000J0D01*
G01*
X94625000Y-135450000D01*
G75*
G02*
X95150000Y-135975000I0J-525000D01*
G01*
X95150000Y-138025000D01*
G75*
G02*
X94625000Y-138550000I-525000J0D01*
G01*
X93575000Y-138550000D01*
G75*
G02*
X93050000Y-138025000I0J525000D01*
G01*
G37*
%TD*%
%TO.C,J14*%
G36*
G01*
X81150000Y-137915000D02*
X81150000Y-135865000D01*
G75*
G02*
X81675000Y-135340000I525000J0D01*
G01*
X82725000Y-135340000D01*
G75*
G02*
X83250000Y-135865000I0J-525000D01*
G01*
X83250000Y-137915000D01*
G75*
G02*
X82725000Y-138440000I-525000J0D01*
G01*
X81675000Y-138440000D01*
G75*
G02*
X81150000Y-137915000I0J525000D01*
G01*
G37*
%TD*%
%TO.C,J13*%
G36*
G01*
X75600000Y-137925000D02*
X75600000Y-135875000D01*
G75*
G02*
X76125000Y-135350000I525000J0D01*
G01*
X77175000Y-135350000D01*
G75*
G02*
X77700000Y-135875000I0J-525000D01*
G01*
X77700000Y-137925000D01*
G75*
G02*
X77175000Y-138450000I-525000J0D01*
G01*
X76125000Y-138450000D01*
G75*
G02*
X75600000Y-137925000I0J525000D01*
G01*
G37*
%TD*%
%TO.C,J12*%
G36*
G01*
X69100000Y-179775000D02*
X69100000Y-177725000D01*
G75*
G02*
X69625000Y-177200000I525000J0D01*
G01*
X70675000Y-177200000D01*
G75*
G02*
X71200000Y-177725000I0J-525000D01*
G01*
X71200000Y-179775000D01*
G75*
G02*
X70675000Y-180300000I-525000J0D01*
G01*
X69625000Y-180300000D01*
G75*
G02*
X69100000Y-179775000I0J525000D01*
G01*
G37*
%TD*%
%TO.C,J11*%
G36*
G01*
X53900000Y-179775000D02*
X53900000Y-177725000D01*
G75*
G02*
X54425000Y-177200000I525000J0D01*
G01*
X55475000Y-177200000D01*
G75*
G02*
X56000000Y-177725000I0J-525000D01*
G01*
X56000000Y-179775000D01*
G75*
G02*
X55475000Y-180300000I-525000J0D01*
G01*
X54425000Y-180300000D01*
G75*
G02*
X53900000Y-179775000I0J525000D01*
G01*
G37*
%TD*%
%TO.C,J10*%
G36*
G01*
X58900000Y-179775000D02*
X58900000Y-177725000D01*
G75*
G02*
X59425000Y-177200000I525000J0D01*
G01*
X60475000Y-177200000D01*
G75*
G02*
X61000000Y-177725000I0J-525000D01*
G01*
X61000000Y-179775000D01*
G75*
G02*
X60475000Y-180300000I-525000J0D01*
G01*
X59425000Y-180300000D01*
G75*
G02*
X58900000Y-179775000I0J525000D01*
G01*
G37*
%TD*%
%TO.C,J9*%
G36*
G01*
X63900000Y-179775000D02*
X63900000Y-177725000D01*
G75*
G02*
X64425000Y-177200000I525000J0D01*
G01*
X65475000Y-177200000D01*
G75*
G02*
X66000000Y-177725000I0J-525000D01*
G01*
X66000000Y-179775000D01*
G75*
G02*
X65475000Y-180300000I-525000J0D01*
G01*
X64425000Y-180300000D01*
G75*
G02*
X63900000Y-179775000I0J525000D01*
G01*
G37*
%TD*%
%TO.C,C17*%
G36*
G01*
X93140000Y-165700000D02*
X91060000Y-165700000D01*
G75*
G02*
X90800000Y-165440000I0J260000D01*
G01*
X90800000Y-161860000D01*
G75*
G02*
X91060000Y-161600000I260000J0D01*
G01*
X93140000Y-161600000D01*
G75*
G02*
X93400000Y-161860000I0J-260000D01*
G01*
X93400000Y-165440000D01*
G75*
G02*
X93140000Y-165700000I-260000J0D01*
G01*
G37*
G36*
G01*
X93140000Y-173700000D02*
X91060000Y-173700000D01*
G75*
G02*
X90800000Y-173440000I0J260000D01*
G01*
X90800000Y-169860000D01*
G75*
G02*
X91060000Y-169600000I260000J0D01*
G01*
X93140000Y-169600000D01*
G75*
G02*
X93400000Y-169860000I0J-260000D01*
G01*
X93400000Y-173440000D01*
G75*
G02*
X93140000Y-173700000I-260000J0D01*
G01*
G37*
%TD*%
%TO.C,C5*%
G36*
G01*
X48260000Y-153098000D02*
X50340000Y-153098000D01*
G75*
G02*
X50600000Y-153358000I0J-260000D01*
G01*
X50600000Y-156938000D01*
G75*
G02*
X50340000Y-157198000I-260000J0D01*
G01*
X48260000Y-157198000D01*
G75*
G02*
X48000000Y-156938000I0J260000D01*
G01*
X48000000Y-153358000D01*
G75*
G02*
X48260000Y-153098000I260000J0D01*
G01*
G37*
G36*
G01*
X48260000Y-145098000D02*
X50340000Y-145098000D01*
G75*
G02*
X50600000Y-145358000I0J-260000D01*
G01*
X50600000Y-148938000D01*
G75*
G02*
X50340000Y-149198000I-260000J0D01*
G01*
X48260000Y-149198000D01*
G75*
G02*
X48000000Y-148938000I0J260000D01*
G01*
X48000000Y-145358000D01*
G75*
G02*
X48260000Y-145098000I260000J0D01*
G01*
G37*
%TD*%
D11*
%TO.C,U2*%
X64839000Y-150904000D03*
X64839000Y-152174000D03*
X64839000Y-153444000D03*
X64839000Y-154714000D03*
X59439000Y-154714000D03*
X59439000Y-153444000D03*
X59439000Y-152174000D03*
X59439000Y-150904000D03*
D12*
X62139000Y-152809000D03*
%TD*%
D13*
%TO.C,L2*%
X79900000Y-146550000D03*
X79900000Y-156450000D03*
%TD*%
%TO.C,C2*%
G36*
G01*
X61850000Y-148126750D02*
X61850000Y-149089250D01*
G75*
G02*
X61581250Y-149358000I-268750J0D01*
G01*
X61043750Y-149358000D01*
G75*
G02*
X60775000Y-149089250I0J268750D01*
G01*
X60775000Y-148126750D01*
G75*
G02*
X61043750Y-147858000I268750J0D01*
G01*
X61581250Y-147858000D01*
G75*
G02*
X61850000Y-148126750I0J-268750D01*
G01*
G37*
G36*
G01*
X59975000Y-148126750D02*
X59975000Y-149089250D01*
G75*
G02*
X59706250Y-149358000I-268750J0D01*
G01*
X59168750Y-149358000D01*
G75*
G02*
X58900000Y-149089250I0J268750D01*
G01*
X58900000Y-148126750D01*
G75*
G02*
X59168750Y-147858000I268750J0D01*
G01*
X59706250Y-147858000D01*
G75*
G02*
X59975000Y-148126750I0J-268750D01*
G01*
G37*
%TD*%
%TO.C,C6*%
G36*
G01*
X53422000Y-142028000D02*
X53422000Y-139948000D01*
G75*
G02*
X53682000Y-139688000I260000J0D01*
G01*
X57262000Y-139688000D01*
G75*
G02*
X57522000Y-139948000I0J-260000D01*
G01*
X57522000Y-142028000D01*
G75*
G02*
X57262000Y-142288000I-260000J0D01*
G01*
X53682000Y-142288000D01*
G75*
G02*
X53422000Y-142028000I0J260000D01*
G01*
G37*
G36*
G01*
X61422000Y-142028000D02*
X61422000Y-139948000D01*
G75*
G02*
X61682000Y-139688000I260000J0D01*
G01*
X65262000Y-139688000D01*
G75*
G02*
X65522000Y-139948000I0J-260000D01*
G01*
X65522000Y-142028000D01*
G75*
G02*
X65262000Y-142288000I-260000J0D01*
G01*
X61682000Y-142288000D01*
G75*
G02*
X61422000Y-142028000I0J260000D01*
G01*
G37*
%TD*%
%TO.C,C8*%
G36*
G01*
X88325000Y-143792544D02*
X88325000Y-145107456D01*
G75*
G02*
X88057456Y-145375000I-267544J0D01*
G01*
X87067544Y-145375000D01*
G75*
G02*
X86800000Y-145107456I0J267544D01*
G01*
X86800000Y-143792544D01*
G75*
G02*
X87067544Y-143525000I267544J0D01*
G01*
X88057456Y-143525000D01*
G75*
G02*
X88325000Y-143792544I0J-267544D01*
G01*
G37*
G36*
G01*
X91300000Y-143792544D02*
X91300000Y-145107456D01*
G75*
G02*
X91032456Y-145375000I-267544J0D01*
G01*
X90042544Y-145375000D01*
G75*
G02*
X89775000Y-145107456I0J267544D01*
G01*
X89775000Y-143792544D01*
G75*
G02*
X90042544Y-143525000I267544J0D01*
G01*
X91032456Y-143525000D01*
G75*
G02*
X91300000Y-143792544I0J-267544D01*
G01*
G37*
%TD*%
%TO.C,C10*%
G36*
G01*
X93240000Y-150550000D02*
X91160000Y-150550000D01*
G75*
G02*
X90900000Y-150290000I0J260000D01*
G01*
X90900000Y-146710000D01*
G75*
G02*
X91160000Y-146450000I260000J0D01*
G01*
X93240000Y-146450000D01*
G75*
G02*
X93500000Y-146710000I0J-260000D01*
G01*
X93500000Y-150290000D01*
G75*
G02*
X93240000Y-150550000I-260000J0D01*
G01*
G37*
G36*
G01*
X93240000Y-158550000D02*
X91160000Y-158550000D01*
G75*
G02*
X90900000Y-158290000I0J260000D01*
G01*
X90900000Y-154710000D01*
G75*
G02*
X91160000Y-154450000I260000J0D01*
G01*
X93240000Y-154450000D01*
G75*
G02*
X93500000Y-154710000I0J-260000D01*
G01*
X93500000Y-158290000D01*
G75*
G02*
X93240000Y-158550000I-260000J0D01*
G01*
G37*
%TD*%
%TO.C,C12*%
G36*
G01*
X66894500Y-152812000D02*
X67289500Y-152812000D01*
G75*
G02*
X67462000Y-152984500I0J-172500D01*
G01*
X67462000Y-153329500D01*
G75*
G02*
X67289500Y-153502000I-172500J0D01*
G01*
X66894500Y-153502000D01*
G75*
G02*
X66722000Y-153329500I0J172500D01*
G01*
X66722000Y-152984500D01*
G75*
G02*
X66894500Y-152812000I172500J0D01*
G01*
G37*
G36*
G01*
X66894500Y-151842000D02*
X67289500Y-151842000D01*
G75*
G02*
X67462000Y-152014500I0J-172500D01*
G01*
X67462000Y-152359500D01*
G75*
G02*
X67289500Y-152532000I-172500J0D01*
G01*
X66894500Y-152532000D01*
G75*
G02*
X66722000Y-152359500I0J172500D01*
G01*
X66722000Y-152014500D01*
G75*
G02*
X66894500Y-151842000I172500J0D01*
G01*
G37*
%TD*%
%TO.C,C14*%
G36*
G01*
X68910500Y-151859000D02*
X69305500Y-151859000D01*
G75*
G02*
X69478000Y-152031500I0J-172500D01*
G01*
X69478000Y-152376500D01*
G75*
G02*
X69305500Y-152549000I-172500J0D01*
G01*
X68910500Y-152549000D01*
G75*
G02*
X68738000Y-152376500I0J172500D01*
G01*
X68738000Y-152031500D01*
G75*
G02*
X68910500Y-151859000I172500J0D01*
G01*
G37*
G36*
G01*
X68910500Y-152829000D02*
X69305500Y-152829000D01*
G75*
G02*
X69478000Y-153001500I0J-172500D01*
G01*
X69478000Y-153346500D01*
G75*
G02*
X69305500Y-153519000I-172500J0D01*
G01*
X68910500Y-153519000D01*
G75*
G02*
X68738000Y-153346500I0J172500D01*
G01*
X68738000Y-153001500D01*
G75*
G02*
X68910500Y-152829000I172500J0D01*
G01*
G37*
%TD*%
%TO.C,C15*%
G36*
G01*
X78100000Y-167538750D02*
X78100000Y-168501250D01*
G75*
G02*
X77831250Y-168770000I-268750J0D01*
G01*
X77293750Y-168770000D01*
G75*
G02*
X77025000Y-168501250I0J268750D01*
G01*
X77025000Y-167538750D01*
G75*
G02*
X77293750Y-167270000I268750J0D01*
G01*
X77831250Y-167270000D01*
G75*
G02*
X78100000Y-167538750I0J-268750D01*
G01*
G37*
G36*
G01*
X79975000Y-167538750D02*
X79975000Y-168501250D01*
G75*
G02*
X79706250Y-168770000I-268750J0D01*
G01*
X79168750Y-168770000D01*
G75*
G02*
X78900000Y-168501250I0J268750D01*
G01*
X78900000Y-167538750D01*
G75*
G02*
X79168750Y-167270000I268750J0D01*
G01*
X79706250Y-167270000D01*
G75*
G02*
X79975000Y-167538750I0J-268750D01*
G01*
G37*
%TD*%
%TO.C,C18*%
G36*
G01*
X75475000Y-178095000D02*
X75475000Y-179405000D01*
G75*
G02*
X75205000Y-179675000I-270000J0D01*
G01*
X74395000Y-179675000D01*
G75*
G02*
X74125000Y-179405000I0J270000D01*
G01*
X74125000Y-178095000D01*
G75*
G02*
X74395000Y-177825000I270000J0D01*
G01*
X75205000Y-177825000D01*
G75*
G02*
X75475000Y-178095000I0J-270000D01*
G01*
G37*
G36*
G01*
X78275000Y-178095000D02*
X78275000Y-179405000D01*
G75*
G02*
X78005000Y-179675000I-270000J0D01*
G01*
X77195000Y-179675000D01*
G75*
G02*
X76925000Y-179405000I0J270000D01*
G01*
X76925000Y-178095000D01*
G75*
G02*
X77195000Y-177825000I270000J0D01*
G01*
X78005000Y-177825000D01*
G75*
G02*
X78275000Y-178095000I0J-270000D01*
G01*
G37*
%TD*%
%TO.C,C19*%
G36*
G01*
X57940000Y-166600000D02*
X55860000Y-166600000D01*
G75*
G02*
X55600000Y-166340000I0J260000D01*
G01*
X55600000Y-162760000D01*
G75*
G02*
X55860000Y-162500000I260000J0D01*
G01*
X57940000Y-162500000D01*
G75*
G02*
X58200000Y-162760000I0J-260000D01*
G01*
X58200000Y-166340000D01*
G75*
G02*
X57940000Y-166600000I-260000J0D01*
G01*
G37*
G36*
G01*
X57940000Y-174600000D02*
X55860000Y-174600000D01*
G75*
G02*
X55600000Y-174340000I0J260000D01*
G01*
X55600000Y-170760000D01*
G75*
G02*
X55860000Y-170500000I260000J0D01*
G01*
X57940000Y-170500000D01*
G75*
G02*
X58200000Y-170760000I0J-260000D01*
G01*
X58200000Y-174340000D01*
G75*
G02*
X57940000Y-174600000I-260000J0D01*
G01*
G37*
%TD*%
D14*
%TO.C,D2*%
X69632000Y-147944000D03*
X69632000Y-141144000D03*
%TD*%
%TO.C,D3*%
G36*
G01*
X54005000Y-160168750D02*
X54005000Y-160731250D01*
G75*
G02*
X53761250Y-160975000I-243750J0D01*
G01*
X53273750Y-160975000D01*
G75*
G02*
X53030000Y-160731250I0J243750D01*
G01*
X53030000Y-160168750D01*
G75*
G02*
X53273750Y-159925000I243750J0D01*
G01*
X53761250Y-159925000D01*
G75*
G02*
X54005000Y-160168750I0J-243750D01*
G01*
G37*
G36*
G01*
X52430000Y-160168750D02*
X52430000Y-160731250D01*
G75*
G02*
X52186250Y-160975000I-243750J0D01*
G01*
X51698750Y-160975000D01*
G75*
G02*
X51455000Y-160731250I0J243750D01*
G01*
X51455000Y-160168750D01*
G75*
G02*
X51698750Y-159925000I243750J0D01*
G01*
X52186250Y-159925000D01*
G75*
G02*
X52430000Y-160168750I0J-243750D01*
G01*
G37*
%TD*%
D15*
%TO.C,D4*%
X78100000Y-163550000D03*
X84900000Y-163550000D03*
%TD*%
%TO.C,D5*%
G36*
G01*
X98268750Y-153637500D02*
X99231250Y-153637500D01*
G75*
G02*
X99500000Y-153906250I0J-268750D01*
G01*
X99500000Y-154443750D01*
G75*
G02*
X99231250Y-154712500I-268750J0D01*
G01*
X98268750Y-154712500D01*
G75*
G02*
X98000000Y-154443750I0J268750D01*
G01*
X98000000Y-153906250D01*
G75*
G02*
X98268750Y-153637500I268750J0D01*
G01*
G37*
G36*
G01*
X98268750Y-151762500D02*
X99231250Y-151762500D01*
G75*
G02*
X99500000Y-152031250I0J-268750D01*
G01*
X99500000Y-152568750D01*
G75*
G02*
X99231250Y-152837500I-268750J0D01*
G01*
X98268750Y-152837500D01*
G75*
G02*
X98000000Y-152568750I0J268750D01*
G01*
X98000000Y-152031250D01*
G75*
G02*
X98268750Y-151762500I268750J0D01*
G01*
G37*
%TD*%
%TO.C,D6*%
G36*
G01*
X49168750Y-170175000D02*
X50131250Y-170175000D01*
G75*
G02*
X50400000Y-170443750I0J-268750D01*
G01*
X50400000Y-170981250D01*
G75*
G02*
X50131250Y-171250000I-268750J0D01*
G01*
X49168750Y-171250000D01*
G75*
G02*
X48900000Y-170981250I0J268750D01*
G01*
X48900000Y-170443750D01*
G75*
G02*
X49168750Y-170175000I268750J0D01*
G01*
G37*
G36*
G01*
X49168750Y-172050000D02*
X50131250Y-172050000D01*
G75*
G02*
X50400000Y-172318750I0J-268750D01*
G01*
X50400000Y-172856250D01*
G75*
G02*
X50131250Y-173125000I-268750J0D01*
G01*
X49168750Y-173125000D01*
G75*
G02*
X48900000Y-172856250I0J268750D01*
G01*
X48900000Y-172318750D01*
G75*
G02*
X49168750Y-172050000I268750J0D01*
G01*
G37*
%TD*%
D13*
%TO.C,L3*%
X69600000Y-162450000D03*
X69600000Y-172350000D03*
%TD*%
%TO.C,R2*%
G36*
G01*
X53508000Y-159055250D02*
X53508000Y-158092750D01*
G75*
G02*
X53776750Y-157824000I268750J0D01*
G01*
X54314250Y-157824000D01*
G75*
G02*
X54583000Y-158092750I0J-268750D01*
G01*
X54583000Y-159055250D01*
G75*
G02*
X54314250Y-159324000I-268750J0D01*
G01*
X53776750Y-159324000D01*
G75*
G02*
X53508000Y-159055250I0J268750D01*
G01*
G37*
G36*
G01*
X51633000Y-159055250D02*
X51633000Y-158092750D01*
G75*
G02*
X51901750Y-157824000I268750J0D01*
G01*
X52439250Y-157824000D01*
G75*
G02*
X52708000Y-158092750I0J-268750D01*
G01*
X52708000Y-159055250D01*
G75*
G02*
X52439250Y-159324000I-268750J0D01*
G01*
X51901750Y-159324000D01*
G75*
G02*
X51633000Y-159055250I0J268750D01*
G01*
G37*
%TD*%
%TO.C,R4*%
G36*
G01*
X65689250Y-157386500D02*
X64726750Y-157386500D01*
G75*
G02*
X64458000Y-157117750I0J268750D01*
G01*
X64458000Y-156580250D01*
G75*
G02*
X64726750Y-156311500I268750J0D01*
G01*
X65689250Y-156311500D01*
G75*
G02*
X65958000Y-156580250I0J-268750D01*
G01*
X65958000Y-157117750D01*
G75*
G02*
X65689250Y-157386500I-268750J0D01*
G01*
G37*
G36*
G01*
X65689250Y-159261500D02*
X64726750Y-159261500D01*
G75*
G02*
X64458000Y-158992750I0J268750D01*
G01*
X64458000Y-158455250D01*
G75*
G02*
X64726750Y-158186500I268750J0D01*
G01*
X65689250Y-158186500D01*
G75*
G02*
X65958000Y-158455250I0J-268750D01*
G01*
X65958000Y-158992750D01*
G75*
G02*
X65689250Y-159261500I-268750J0D01*
G01*
G37*
%TD*%
%TO.C,R6*%
G36*
G01*
X56539250Y-159336500D02*
X55576750Y-159336500D01*
G75*
G02*
X55308000Y-159067750I0J268750D01*
G01*
X55308000Y-158530250D01*
G75*
G02*
X55576750Y-158261500I268750J0D01*
G01*
X56539250Y-158261500D01*
G75*
G02*
X56808000Y-158530250I0J-268750D01*
G01*
X56808000Y-159067750D01*
G75*
G02*
X56539250Y-159336500I-268750J0D01*
G01*
G37*
G36*
G01*
X56539250Y-157461500D02*
X55576750Y-157461500D01*
G75*
G02*
X55308000Y-157192750I0J268750D01*
G01*
X55308000Y-156655250D01*
G75*
G02*
X55576750Y-156386500I268750J0D01*
G01*
X56539250Y-156386500D01*
G75*
G02*
X56808000Y-156655250I0J-268750D01*
G01*
X56808000Y-157192750D01*
G75*
G02*
X56539250Y-157461500I-268750J0D01*
G01*
G37*
%TD*%
%TO.C,R8*%
G36*
G01*
X59776750Y-156355500D02*
X60739250Y-156355500D01*
G75*
G02*
X61008000Y-156624250I0J-268750D01*
G01*
X61008000Y-157161750D01*
G75*
G02*
X60739250Y-157430500I-268750J0D01*
G01*
X59776750Y-157430500D01*
G75*
G02*
X59508000Y-157161750I0J268750D01*
G01*
X59508000Y-156624250D01*
G75*
G02*
X59776750Y-156355500I268750J0D01*
G01*
G37*
G36*
G01*
X59776750Y-158230500D02*
X60739250Y-158230500D01*
G75*
G02*
X61008000Y-158499250I0J-268750D01*
G01*
X61008000Y-159036750D01*
G75*
G02*
X60739250Y-159305500I-268750J0D01*
G01*
X59776750Y-159305500D01*
G75*
G02*
X59508000Y-159036750I0J268750D01*
G01*
X59508000Y-158499250D01*
G75*
G02*
X59776750Y-158230500I268750J0D01*
G01*
G37*
%TD*%
%TO.C,R10*%
G36*
G01*
X66545500Y-155455250D02*
X66545500Y-154492750D01*
G75*
G02*
X66814250Y-154224000I268750J0D01*
G01*
X67351750Y-154224000D01*
G75*
G02*
X67620500Y-154492750I0J-268750D01*
G01*
X67620500Y-155455250D01*
G75*
G02*
X67351750Y-155724000I-268750J0D01*
G01*
X66814250Y-155724000D01*
G75*
G02*
X66545500Y-155455250I0J268750D01*
G01*
G37*
G36*
G01*
X68420500Y-155455250D02*
X68420500Y-154492750D01*
G75*
G02*
X68689250Y-154224000I268750J0D01*
G01*
X69226750Y-154224000D01*
G75*
G02*
X69495500Y-154492750I0J-268750D01*
G01*
X69495500Y-155455250D01*
G75*
G02*
X69226750Y-155724000I-268750J0D01*
G01*
X68689250Y-155724000D01*
G75*
G02*
X68420500Y-155455250I0J268750D01*
G01*
G37*
%TD*%
%TO.C,R12*%
G36*
G01*
X62318750Y-156311500D02*
X63281250Y-156311500D01*
G75*
G02*
X63550000Y-156580250I0J-268750D01*
G01*
X63550000Y-157117750D01*
G75*
G02*
X63281250Y-157386500I-268750J0D01*
G01*
X62318750Y-157386500D01*
G75*
G02*
X62050000Y-157117750I0J268750D01*
G01*
X62050000Y-156580250D01*
G75*
G02*
X62318750Y-156311500I268750J0D01*
G01*
G37*
G36*
G01*
X62318750Y-158186500D02*
X63281250Y-158186500D01*
G75*
G02*
X63550000Y-158455250I0J-268750D01*
G01*
X63550000Y-158992750D01*
G75*
G02*
X63281250Y-159261500I-268750J0D01*
G01*
X62318750Y-159261500D01*
G75*
G02*
X62050000Y-158992750I0J268750D01*
G01*
X62050000Y-158455250D01*
G75*
G02*
X62318750Y-158186500I268750J0D01*
G01*
G37*
%TD*%
%TO.C,R14*%
G36*
G01*
X58589250Y-157486500D02*
X57626750Y-157486500D01*
G75*
G02*
X57358000Y-157217750I0J268750D01*
G01*
X57358000Y-156680250D01*
G75*
G02*
X57626750Y-156411500I268750J0D01*
G01*
X58589250Y-156411500D01*
G75*
G02*
X58858000Y-156680250I0J-268750D01*
G01*
X58858000Y-157217750D01*
G75*
G02*
X58589250Y-157486500I-268750J0D01*
G01*
G37*
G36*
G01*
X58589250Y-159361500D02*
X57626750Y-159361500D01*
G75*
G02*
X57358000Y-159092750I0J268750D01*
G01*
X57358000Y-158555250D01*
G75*
G02*
X57626750Y-158286500I268750J0D01*
G01*
X58589250Y-158286500D01*
G75*
G02*
X58858000Y-158555250I0J-268750D01*
G01*
X58858000Y-159092750D01*
G75*
G02*
X58589250Y-159361500I-268750J0D01*
G01*
G37*
%TD*%
%TO.C,R15*%
G36*
G01*
X85781250Y-178175000D02*
X84818750Y-178175000D01*
G75*
G02*
X84550000Y-177906250I0J268750D01*
G01*
X84550000Y-177368750D01*
G75*
G02*
X84818750Y-177100000I268750J0D01*
G01*
X85781250Y-177100000D01*
G75*
G02*
X86050000Y-177368750I0J-268750D01*
G01*
X86050000Y-177906250D01*
G75*
G02*
X85781250Y-178175000I-268750J0D01*
G01*
G37*
G36*
G01*
X85781250Y-176300000D02*
X84818750Y-176300000D01*
G75*
G02*
X84550000Y-176031250I0J268750D01*
G01*
X84550000Y-175493750D01*
G75*
G02*
X84818750Y-175225000I268750J0D01*
G01*
X85781250Y-175225000D01*
G75*
G02*
X86050000Y-175493750I0J-268750D01*
G01*
X86050000Y-176031250D01*
G75*
G02*
X85781250Y-176300000I-268750J0D01*
G01*
G37*
%TD*%
%TO.C,R16*%
G36*
G01*
X74225000Y-176531250D02*
X74225000Y-175568750D01*
G75*
G02*
X74493750Y-175300000I268750J0D01*
G01*
X75031250Y-175300000D01*
G75*
G02*
X75300000Y-175568750I0J-268750D01*
G01*
X75300000Y-176531250D01*
G75*
G02*
X75031250Y-176800000I-268750J0D01*
G01*
X74493750Y-176800000D01*
G75*
G02*
X74225000Y-176531250I0J268750D01*
G01*
G37*
G36*
G01*
X76100000Y-176531250D02*
X76100000Y-175568750D01*
G75*
G02*
X76368750Y-175300000I268750J0D01*
G01*
X76906250Y-175300000D01*
G75*
G02*
X77175000Y-175568750I0J-268750D01*
G01*
X77175000Y-176531250D01*
G75*
G02*
X76906250Y-176800000I-268750J0D01*
G01*
X76368750Y-176800000D01*
G75*
G02*
X76100000Y-176531250I0J268750D01*
G01*
G37*
%TD*%
%TO.C,R17*%
G36*
G01*
X82768750Y-177100000D02*
X83731250Y-177100000D01*
G75*
G02*
X84000000Y-177368750I0J-268750D01*
G01*
X84000000Y-177906250D01*
G75*
G02*
X83731250Y-178175000I-268750J0D01*
G01*
X82768750Y-178175000D01*
G75*
G02*
X82500000Y-177906250I0J268750D01*
G01*
X82500000Y-177368750D01*
G75*
G02*
X82768750Y-177100000I268750J0D01*
G01*
G37*
G36*
G01*
X82768750Y-175225000D02*
X83731250Y-175225000D01*
G75*
G02*
X84000000Y-175493750I0J-268750D01*
G01*
X84000000Y-176031250D01*
G75*
G02*
X83731250Y-176300000I-268750J0D01*
G01*
X82768750Y-176300000D01*
G75*
G02*
X82500000Y-176031250I0J268750D01*
G01*
X82500000Y-175493750D01*
G75*
G02*
X82768750Y-175225000I268750J0D01*
G01*
G37*
%TD*%
%TO.C,R18*%
G36*
G01*
X79687500Y-176481250D02*
X79687500Y-175518750D01*
G75*
G02*
X79956250Y-175250000I268750J0D01*
G01*
X80493750Y-175250000D01*
G75*
G02*
X80762500Y-175518750I0J-268750D01*
G01*
X80762500Y-176481250D01*
G75*
G02*
X80493750Y-176750000I-268750J0D01*
G01*
X79956250Y-176750000D01*
G75*
G02*
X79687500Y-176481250I0J268750D01*
G01*
G37*
G36*
G01*
X77812500Y-176481250D02*
X77812500Y-175518750D01*
G75*
G02*
X78081250Y-175250000I268750J0D01*
G01*
X78618750Y-175250000D01*
G75*
G02*
X78887500Y-175518750I0J-268750D01*
G01*
X78887500Y-176481250D01*
G75*
G02*
X78618750Y-176750000I-268750J0D01*
G01*
X78081250Y-176750000D01*
G75*
G02*
X77812500Y-176481250I0J268750D01*
G01*
G37*
%TD*%
%TO.C,R19*%
G36*
G01*
X54705000Y-161171250D02*
X54705000Y-160208750D01*
G75*
G02*
X54973750Y-159940000I268750J0D01*
G01*
X55511250Y-159940000D01*
G75*
G02*
X55780000Y-160208750I0J-268750D01*
G01*
X55780000Y-161171250D01*
G75*
G02*
X55511250Y-161440000I-268750J0D01*
G01*
X54973750Y-161440000D01*
G75*
G02*
X54705000Y-161171250I0J268750D01*
G01*
G37*
G36*
G01*
X56580000Y-161171250D02*
X56580000Y-160208750D01*
G75*
G02*
X56848750Y-159940000I268750J0D01*
G01*
X57386250Y-159940000D01*
G75*
G02*
X57655000Y-160208750I0J-268750D01*
G01*
X57655000Y-161171250D01*
G75*
G02*
X57386250Y-161440000I-268750J0D01*
G01*
X56848750Y-161440000D01*
G75*
G02*
X56580000Y-161171250I0J268750D01*
G01*
G37*
%TD*%
%TO.C,R20*%
G36*
G01*
X99231250Y-149092500D02*
X98268750Y-149092500D01*
G75*
G02*
X98000000Y-148823750I0J268750D01*
G01*
X98000000Y-148286250D01*
G75*
G02*
X98268750Y-148017500I268750J0D01*
G01*
X99231250Y-148017500D01*
G75*
G02*
X99500000Y-148286250I0J-268750D01*
G01*
X99500000Y-148823750D01*
G75*
G02*
X99231250Y-149092500I-268750J0D01*
G01*
G37*
G36*
G01*
X99231250Y-150967500D02*
X98268750Y-150967500D01*
G75*
G02*
X98000000Y-150698750I0J268750D01*
G01*
X98000000Y-150161250D01*
G75*
G02*
X98268750Y-149892500I268750J0D01*
G01*
X99231250Y-149892500D01*
G75*
G02*
X99500000Y-150161250I0J-268750D01*
G01*
X99500000Y-150698750D01*
G75*
G02*
X99231250Y-150967500I-268750J0D01*
G01*
G37*
%TD*%
%TO.C,R21*%
G36*
G01*
X50131250Y-168525000D02*
X49168750Y-168525000D01*
G75*
G02*
X48900000Y-168256250I0J268750D01*
G01*
X48900000Y-167718750D01*
G75*
G02*
X49168750Y-167450000I268750J0D01*
G01*
X50131250Y-167450000D01*
G75*
G02*
X50400000Y-167718750I0J-268750D01*
G01*
X50400000Y-168256250D01*
G75*
G02*
X50131250Y-168525000I-268750J0D01*
G01*
G37*
G36*
G01*
X50131250Y-166650000D02*
X49168750Y-166650000D01*
G75*
G02*
X48900000Y-166381250I0J268750D01*
G01*
X48900000Y-165843750D01*
G75*
G02*
X49168750Y-165575000I268750J0D01*
G01*
X50131250Y-165575000D01*
G75*
G02*
X50400000Y-165843750I0J-268750D01*
G01*
X50400000Y-166381250D01*
G75*
G02*
X50131250Y-166650000I-268750J0D01*
G01*
G37*
%TD*%
D12*
%TO.C,U3*%
X80504000Y-171927000D03*
D11*
X77804000Y-170022000D03*
X77804000Y-171292000D03*
X77804000Y-172562000D03*
X77804000Y-173832000D03*
X83204000Y-173832000D03*
X83204000Y-172562000D03*
X83204000Y-171292000D03*
X83204000Y-170022000D03*
%TD*%
M02*
