%TF.GenerationSoftware,KiCad,Pcbnew,(5.1.6)-1*%
%TF.CreationDate,2021-04-02T17:33:40+02:00*%
%TF.ProjectId,48-24,34382d32-342e-46b6-9963-61645f706362,rev?*%
%TF.SameCoordinates,Original*%
%TF.FileFunction,Paste,Bot*%
%TF.FilePolarity,Positive*%
%FSLAX46Y46*%
G04 Gerber Fmt 4.6, Leading zero omitted, Abs format (unit mm)*
G04 Created by KiCad (PCBNEW (5.1.6)-1) date 2021-04-02 17:33:40*
%MOMM*%
%LPD*%
G01*
G04 APERTURE LIST*
G04 APERTURE END LIST*
%TO.C,J8*%
G36*
G01*
X93100000Y-138000000D02*
X93100000Y-136000000D01*
G75*
G02*
X93600000Y-135500000I500000J0D01*
G01*
X94600000Y-135500000D01*
G75*
G02*
X95100000Y-136000000I0J-500000D01*
G01*
X95100000Y-138000000D01*
G75*
G02*
X94600000Y-138500000I-500000J0D01*
G01*
X93600000Y-138500000D01*
G75*
G02*
X93100000Y-138000000I0J500000D01*
G01*
G37*
%TD*%
%TO.C,J7*%
G36*
G01*
X87100000Y-137900000D02*
X87100000Y-135900000D01*
G75*
G02*
X87600000Y-135400000I500000J0D01*
G01*
X88600000Y-135400000D01*
G75*
G02*
X89100000Y-135900000I0J-500000D01*
G01*
X89100000Y-137900000D01*
G75*
G02*
X88600000Y-138400000I-500000J0D01*
G01*
X87600000Y-138400000D01*
G75*
G02*
X87100000Y-137900000I0J500000D01*
G01*
G37*
%TD*%
%TO.C,J6*%
G36*
G01*
X81200000Y-137900000D02*
X81200000Y-135900000D01*
G75*
G02*
X81700000Y-135400000I500000J0D01*
G01*
X82700000Y-135400000D01*
G75*
G02*
X83200000Y-135900000I0J-500000D01*
G01*
X83200000Y-137900000D01*
G75*
G02*
X82700000Y-138400000I-500000J0D01*
G01*
X81700000Y-138400000D01*
G75*
G02*
X81200000Y-137900000I0J500000D01*
G01*
G37*
%TD*%
%TO.C,J5*%
G36*
G01*
X69150000Y-179750000D02*
X69150000Y-177750000D01*
G75*
G02*
X69650000Y-177250000I500000J0D01*
G01*
X70650000Y-177250000D01*
G75*
G02*
X71150000Y-177750000I0J-500000D01*
G01*
X71150000Y-179750000D01*
G75*
G02*
X70650000Y-180250000I-500000J0D01*
G01*
X69650000Y-180250000D01*
G75*
G02*
X69150000Y-179750000I0J500000D01*
G01*
G37*
%TD*%
%TO.C,J4*%
G36*
G01*
X63950000Y-179750000D02*
X63950000Y-177750000D01*
G75*
G02*
X64450000Y-177250000I500000J0D01*
G01*
X65450000Y-177250000D01*
G75*
G02*
X65950000Y-177750000I0J-500000D01*
G01*
X65950000Y-179750000D01*
G75*
G02*
X65450000Y-180250000I-500000J0D01*
G01*
X64450000Y-180250000D01*
G75*
G02*
X63950000Y-179750000I0J500000D01*
G01*
G37*
%TD*%
%TO.C,J3*%
G36*
G01*
X58950000Y-179750000D02*
X58950000Y-177750000D01*
G75*
G02*
X59450000Y-177250000I500000J0D01*
G01*
X60450000Y-177250000D01*
G75*
G02*
X60950000Y-177750000I0J-500000D01*
G01*
X60950000Y-179750000D01*
G75*
G02*
X60450000Y-180250000I-500000J0D01*
G01*
X59450000Y-180250000D01*
G75*
G02*
X58950000Y-179750000I0J500000D01*
G01*
G37*
%TD*%
%TO.C,J2*%
G36*
G01*
X75650000Y-137900000D02*
X75650000Y-135900000D01*
G75*
G02*
X76150000Y-135400000I500000J0D01*
G01*
X77150000Y-135400000D01*
G75*
G02*
X77650000Y-135900000I0J-500000D01*
G01*
X77650000Y-137900000D01*
G75*
G02*
X77150000Y-138400000I-500000J0D01*
G01*
X76150000Y-138400000D01*
G75*
G02*
X75650000Y-137900000I0J500000D01*
G01*
G37*
%TD*%
%TO.C,J1*%
G36*
G01*
X53950000Y-179750000D02*
X53950000Y-177750000D01*
G75*
G02*
X54450000Y-177250000I500000J0D01*
G01*
X55450000Y-177250000D01*
G75*
G02*
X55950000Y-177750000I0J-500000D01*
G01*
X55950000Y-179750000D01*
G75*
G02*
X55450000Y-180250000I-500000J0D01*
G01*
X54450000Y-180250000D01*
G75*
G02*
X53950000Y-179750000I0J500000D01*
G01*
G37*
%TD*%
M02*
