%TF.GenerationSoftware,KiCad,Pcbnew,(5.1.6)-1*%
%TF.CreationDate,2021-04-02T17:33:40+02:00*%
%TF.ProjectId,48-24,34382d32-342e-46b6-9963-61645f706362,rev?*%
%TF.SameCoordinates,Original*%
%TF.FileFunction,Soldermask,Bot*%
%TF.FilePolarity,Negative*%
%FSLAX46Y46*%
G04 Gerber Fmt 4.6, Leading zero omitted, Abs format (unit mm)*
G04 Created by KiCad (PCBNEW (5.1.6)-1) date 2021-04-02 17:33:40*
%MOMM*%
%LPD*%
G01*
G04 APERTURE LIST*
%ADD10C,3.900000*%
G04 APERTURE END LIST*
D10*
%TO.C,H2*%
X46850000Y-160150000D03*
%TD*%
%TO.C,H1*%
X46850000Y-141750000D03*
%TD*%
%TO.C,J8*%
G36*
G01*
X93050000Y-138025000D02*
X93050000Y-135975000D01*
G75*
G02*
X93575000Y-135450000I525000J0D01*
G01*
X94625000Y-135450000D01*
G75*
G02*
X95150000Y-135975000I0J-525000D01*
G01*
X95150000Y-138025000D01*
G75*
G02*
X94625000Y-138550000I-525000J0D01*
G01*
X93575000Y-138550000D01*
G75*
G02*
X93050000Y-138025000I0J525000D01*
G01*
G37*
%TD*%
%TO.C,J7*%
G36*
G01*
X87050000Y-137925000D02*
X87050000Y-135875000D01*
G75*
G02*
X87575000Y-135350000I525000J0D01*
G01*
X88625000Y-135350000D01*
G75*
G02*
X89150000Y-135875000I0J-525000D01*
G01*
X89150000Y-137925000D01*
G75*
G02*
X88625000Y-138450000I-525000J0D01*
G01*
X87575000Y-138450000D01*
G75*
G02*
X87050000Y-137925000I0J525000D01*
G01*
G37*
%TD*%
%TO.C,J6*%
G36*
G01*
X81150000Y-137925000D02*
X81150000Y-135875000D01*
G75*
G02*
X81675000Y-135350000I525000J0D01*
G01*
X82725000Y-135350000D01*
G75*
G02*
X83250000Y-135875000I0J-525000D01*
G01*
X83250000Y-137925000D01*
G75*
G02*
X82725000Y-138450000I-525000J0D01*
G01*
X81675000Y-138450000D01*
G75*
G02*
X81150000Y-137925000I0J525000D01*
G01*
G37*
%TD*%
%TO.C,J5*%
G36*
G01*
X69100000Y-179775000D02*
X69100000Y-177725000D01*
G75*
G02*
X69625000Y-177200000I525000J0D01*
G01*
X70675000Y-177200000D01*
G75*
G02*
X71200000Y-177725000I0J-525000D01*
G01*
X71200000Y-179775000D01*
G75*
G02*
X70675000Y-180300000I-525000J0D01*
G01*
X69625000Y-180300000D01*
G75*
G02*
X69100000Y-179775000I0J525000D01*
G01*
G37*
%TD*%
%TO.C,J4*%
G36*
G01*
X63900000Y-179775000D02*
X63900000Y-177725000D01*
G75*
G02*
X64425000Y-177200000I525000J0D01*
G01*
X65475000Y-177200000D01*
G75*
G02*
X66000000Y-177725000I0J-525000D01*
G01*
X66000000Y-179775000D01*
G75*
G02*
X65475000Y-180300000I-525000J0D01*
G01*
X64425000Y-180300000D01*
G75*
G02*
X63900000Y-179775000I0J525000D01*
G01*
G37*
%TD*%
%TO.C,J3*%
G36*
G01*
X58900000Y-179775000D02*
X58900000Y-177725000D01*
G75*
G02*
X59425000Y-177200000I525000J0D01*
G01*
X60475000Y-177200000D01*
G75*
G02*
X61000000Y-177725000I0J-525000D01*
G01*
X61000000Y-179775000D01*
G75*
G02*
X60475000Y-180300000I-525000J0D01*
G01*
X59425000Y-180300000D01*
G75*
G02*
X58900000Y-179775000I0J525000D01*
G01*
G37*
%TD*%
%TO.C,J2*%
G36*
G01*
X75600000Y-137925000D02*
X75600000Y-135875000D01*
G75*
G02*
X76125000Y-135350000I525000J0D01*
G01*
X77175000Y-135350000D01*
G75*
G02*
X77700000Y-135875000I0J-525000D01*
G01*
X77700000Y-137925000D01*
G75*
G02*
X77175000Y-138450000I-525000J0D01*
G01*
X76125000Y-138450000D01*
G75*
G02*
X75600000Y-137925000I0J525000D01*
G01*
G37*
%TD*%
%TO.C,J1*%
G36*
G01*
X53900000Y-179775000D02*
X53900000Y-177725000D01*
G75*
G02*
X54425000Y-177200000I525000J0D01*
G01*
X55475000Y-177200000D01*
G75*
G02*
X56000000Y-177725000I0J-525000D01*
G01*
X56000000Y-179775000D01*
G75*
G02*
X55475000Y-180300000I-525000J0D01*
G01*
X54425000Y-180300000D01*
G75*
G02*
X53900000Y-179775000I0J525000D01*
G01*
G37*
%TD*%
M02*
