%TF.GenerationSoftware,KiCad,Pcbnew,(5.1.6)-1*%
%TF.CreationDate,2021-04-02T17:33:40+02:00*%
%TF.ProjectId,48-24,34382d32-342e-46b6-9963-61645f706362,rev?*%
%TF.SameCoordinates,Original*%
%TF.FileFunction,Copper,L2,Bot*%
%TF.FilePolarity,Positive*%
%FSLAX46Y46*%
G04 Gerber Fmt 4.6, Leading zero omitted, Abs format (unit mm)*
G04 Created by KiCad (PCBNEW (5.1.6)-1) date 2021-04-02 17:33:40*
%MOMM*%
%LPD*%
G01*
G04 APERTURE LIST*
%TA.AperFunction,ComponentPad*%
%ADD10C,3.800000*%
%TD*%
%TA.AperFunction,ViaPad*%
%ADD11C,0.600000*%
%TD*%
%TA.AperFunction,Conductor*%
%ADD12R,2.950000X4.500000*%
%TD*%
%TA.AperFunction,ViaPad*%
%ADD13C,0.800000*%
%TD*%
%TA.AperFunction,Conductor*%
%ADD14C,0.254000*%
%TD*%
G04 APERTURE END LIST*
D10*
%TO.P,H2,1*%
%TO.N,GND*%
X46850000Y-160150000D03*
%TD*%
%TO.P,H1,1*%
%TO.N,+48V*%
X46850000Y-141750000D03*
%TD*%
%TO.P,J8,1*%
%TO.N,GND*%
%TA.AperFunction,SMDPad,CuDef*%
G36*
G01*
X93100000Y-138000000D02*
X93100000Y-136000000D01*
G75*
G02*
X93600000Y-135500000I500000J0D01*
G01*
X94600000Y-135500000D01*
G75*
G02*
X95100000Y-136000000I0J-500000D01*
G01*
X95100000Y-138000000D01*
G75*
G02*
X94600000Y-138500000I-500000J0D01*
G01*
X93600000Y-138500000D01*
G75*
G02*
X93100000Y-138000000I0J500000D01*
G01*
G37*
%TD.AperFunction*%
%TD*%
%TO.P,J7,1*%
%TO.N,GND*%
%TA.AperFunction,SMDPad,CuDef*%
G36*
G01*
X87100000Y-137900000D02*
X87100000Y-135900000D01*
G75*
G02*
X87600000Y-135400000I500000J0D01*
G01*
X88600000Y-135400000D01*
G75*
G02*
X89100000Y-135900000I0J-500000D01*
G01*
X89100000Y-137900000D01*
G75*
G02*
X88600000Y-138400000I-500000J0D01*
G01*
X87600000Y-138400000D01*
G75*
G02*
X87100000Y-137900000I0J500000D01*
G01*
G37*
%TD.AperFunction*%
%TD*%
%TO.P,J6,1*%
%TO.N,GND*%
%TA.AperFunction,SMDPad,CuDef*%
G36*
G01*
X81200000Y-137900000D02*
X81200000Y-135900000D01*
G75*
G02*
X81700000Y-135400000I500000J0D01*
G01*
X82700000Y-135400000D01*
G75*
G02*
X83200000Y-135900000I0J-500000D01*
G01*
X83200000Y-137900000D01*
G75*
G02*
X82700000Y-138400000I-500000J0D01*
G01*
X81700000Y-138400000D01*
G75*
G02*
X81200000Y-137900000I0J500000D01*
G01*
G37*
%TD.AperFunction*%
%TD*%
%TO.P,J5,1*%
%TO.N,GND*%
%TA.AperFunction,SMDPad,CuDef*%
G36*
G01*
X69150000Y-179750000D02*
X69150000Y-177750000D01*
G75*
G02*
X69650000Y-177250000I500000J0D01*
G01*
X70650000Y-177250000D01*
G75*
G02*
X71150000Y-177750000I0J-500000D01*
G01*
X71150000Y-179750000D01*
G75*
G02*
X70650000Y-180250000I-500000J0D01*
G01*
X69650000Y-180250000D01*
G75*
G02*
X69150000Y-179750000I0J500000D01*
G01*
G37*
%TD.AperFunction*%
%TD*%
%TO.P,J4,1*%
%TO.N,GND*%
%TA.AperFunction,SMDPad,CuDef*%
G36*
G01*
X63950000Y-179750000D02*
X63950000Y-177750000D01*
G75*
G02*
X64450000Y-177250000I500000J0D01*
G01*
X65450000Y-177250000D01*
G75*
G02*
X65950000Y-177750000I0J-500000D01*
G01*
X65950000Y-179750000D01*
G75*
G02*
X65450000Y-180250000I-500000J0D01*
G01*
X64450000Y-180250000D01*
G75*
G02*
X63950000Y-179750000I0J500000D01*
G01*
G37*
%TD.AperFunction*%
%TD*%
%TO.P,J3,1*%
%TO.N,GND*%
%TA.AperFunction,SMDPad,CuDef*%
G36*
G01*
X58950000Y-179750000D02*
X58950000Y-177750000D01*
G75*
G02*
X59450000Y-177250000I500000J0D01*
G01*
X60450000Y-177250000D01*
G75*
G02*
X60950000Y-177750000I0J-500000D01*
G01*
X60950000Y-179750000D01*
G75*
G02*
X60450000Y-180250000I-500000J0D01*
G01*
X59450000Y-180250000D01*
G75*
G02*
X58950000Y-179750000I0J500000D01*
G01*
G37*
%TD.AperFunction*%
%TD*%
%TO.P,J2,1*%
%TO.N,GND*%
%TA.AperFunction,SMDPad,CuDef*%
G36*
G01*
X75650000Y-137900000D02*
X75650000Y-135900000D01*
G75*
G02*
X76150000Y-135400000I500000J0D01*
G01*
X77150000Y-135400000D01*
G75*
G02*
X77650000Y-135900000I0J-500000D01*
G01*
X77650000Y-137900000D01*
G75*
G02*
X77150000Y-138400000I-500000J0D01*
G01*
X76150000Y-138400000D01*
G75*
G02*
X75650000Y-137900000I0J500000D01*
G01*
G37*
%TD.AperFunction*%
%TD*%
%TO.P,J1,1*%
%TO.N,GND*%
%TA.AperFunction,SMDPad,CuDef*%
G36*
G01*
X53950000Y-179750000D02*
X53950000Y-177750000D01*
G75*
G02*
X54450000Y-177250000I500000J0D01*
G01*
X55450000Y-177250000D01*
G75*
G02*
X55950000Y-177750000I0J-500000D01*
G01*
X55950000Y-179750000D01*
G75*
G02*
X55450000Y-180250000I-500000J0D01*
G01*
X54450000Y-180250000D01*
G75*
G02*
X53950000Y-179750000I0J500000D01*
G01*
G37*
%TD.AperFunction*%
%TD*%
D11*
%TO.N,GND*%
%TO.C,U2*%
X62739000Y-154609000D03*
X62739000Y-153509000D03*
X61539000Y-153509000D03*
X61539000Y-154609000D03*
X62739000Y-151009000D03*
X62739000Y-152209000D03*
X61539000Y-152209000D03*
X61539000Y-151009000D03*
D12*
X62139000Y-152809000D03*
%TD*%
%TO.N,GND*%
%TO.C,U3*%
X80504000Y-171927000D03*
D11*
X79904000Y-170127000D03*
X79904000Y-171327000D03*
X81104000Y-171327000D03*
X81104000Y-170127000D03*
X79904000Y-173727000D03*
X79904000Y-172627000D03*
X81104000Y-172627000D03*
X81104000Y-173727000D03*
%TD*%
D13*
%TO.N,GND*%
X55950000Y-155300000D03*
X57250000Y-155450000D03*
X89500000Y-161500000D03*
X89500000Y-162900000D03*
X89500000Y-164300000D03*
X89450000Y-165700000D03*
X88050000Y-165700000D03*
X88050000Y-164350000D03*
X88050000Y-162900000D03*
X88000000Y-161500000D03*
X62400000Y-160350000D03*
X60200000Y-139200000D03*
X60200000Y-140700000D03*
X60200000Y-142200000D03*
X66800000Y-142200000D03*
X66800000Y-140700000D03*
X66750000Y-139200000D03*
X72200000Y-139150000D03*
X72200000Y-140700000D03*
X72150000Y-142200000D03*
X60200000Y-163300000D03*
X60200000Y-164700000D03*
X60200000Y-166100000D03*
X54150000Y-166100000D03*
X54150000Y-164700000D03*
X54150000Y-163300000D03*
X80200000Y-177650000D03*
X81700000Y-177650000D03*
X79950000Y-178700000D03*
X81400000Y-178700000D03*
X80700000Y-179750000D03*
X79200000Y-179750000D03*
X82050000Y-179750000D03*
X83550000Y-179750000D03*
X92550000Y-144350000D03*
X93950000Y-144350000D03*
X95350000Y-144350000D03*
X95350000Y-145800000D03*
X95350000Y-148650000D03*
X95350000Y-147200000D03*
X95350000Y-151500000D03*
X95350000Y-150050000D03*
X93950000Y-151500000D03*
X92500000Y-151500000D03*
X91100000Y-151500000D03*
X70900000Y-152300000D03*
X70900000Y-153700000D03*
X70900000Y-155100000D03*
X70900000Y-156500000D03*
X45500000Y-153700000D03*
X45500000Y-154850000D03*
X45500000Y-155950000D03*
X45500000Y-157200000D03*
X52850000Y-163300000D03*
X51500000Y-163250000D03*
X50100000Y-163200000D03*
X48700000Y-163250000D03*
X46900000Y-163300000D03*
X46900000Y-165250000D03*
X52900000Y-164700000D03*
%TD*%
D14*
%TO.N,GND*%
G36*
X100107086Y-134963328D02*
G01*
X100109429Y-134964035D01*
X100339792Y-135086522D01*
X100541980Y-135251422D01*
X100708286Y-135452450D01*
X100832378Y-135681954D01*
X100875041Y-135819774D01*
X100940001Y-167081982D01*
X100940001Y-181567711D01*
X100911375Y-181859660D01*
X100835965Y-182109429D01*
X100713477Y-182339794D01*
X100548579Y-182541979D01*
X100347546Y-182708288D01*
X100118046Y-182832378D01*
X100109363Y-182835066D01*
X44843372Y-182810869D01*
X44660206Y-182713477D01*
X44458021Y-182548579D01*
X44291712Y-182347546D01*
X44167622Y-182118046D01*
X44125014Y-181980401D01*
X44060000Y-150659836D01*
X44060000Y-141500324D01*
X44315000Y-141500324D01*
X44315000Y-141999676D01*
X44412418Y-142489432D01*
X44603512Y-142950773D01*
X44880937Y-143365968D01*
X45234032Y-143719063D01*
X45649227Y-143996488D01*
X46110568Y-144187582D01*
X46600324Y-144285000D01*
X47099676Y-144285000D01*
X47589432Y-144187582D01*
X48050773Y-143996488D01*
X48465968Y-143719063D01*
X48819063Y-143365968D01*
X49096488Y-142950773D01*
X49287582Y-142489432D01*
X49385000Y-141999676D01*
X49385000Y-141500324D01*
X49287582Y-141010568D01*
X49096488Y-140549227D01*
X48819063Y-140134032D01*
X48465968Y-139780937D01*
X48050773Y-139503512D01*
X47589432Y-139312418D01*
X47099676Y-139215000D01*
X46600324Y-139215000D01*
X46110568Y-139312418D01*
X45649227Y-139503512D01*
X45234032Y-139780937D01*
X44880937Y-140134032D01*
X44603512Y-140549227D01*
X44412418Y-141010568D01*
X44315000Y-141500324D01*
X44060000Y-141500324D01*
X44060000Y-136232279D01*
X44088625Y-135940341D01*
X44164035Y-135690571D01*
X44286522Y-135460208D01*
X44451422Y-135258020D01*
X44652450Y-135091714D01*
X44881954Y-134967622D01*
X45129110Y-134891114D01*
X100107086Y-134963328D01*
G37*
X100107086Y-134963328D02*
X100109429Y-134964035D01*
X100339792Y-135086522D01*
X100541980Y-135251422D01*
X100708286Y-135452450D01*
X100832378Y-135681954D01*
X100875041Y-135819774D01*
X100940001Y-167081982D01*
X100940001Y-181567711D01*
X100911375Y-181859660D01*
X100835965Y-182109429D01*
X100713477Y-182339794D01*
X100548579Y-182541979D01*
X100347546Y-182708288D01*
X100118046Y-182832378D01*
X100109363Y-182835066D01*
X44843372Y-182810869D01*
X44660206Y-182713477D01*
X44458021Y-182548579D01*
X44291712Y-182347546D01*
X44167622Y-182118046D01*
X44125014Y-181980401D01*
X44060000Y-150659836D01*
X44060000Y-141500324D01*
X44315000Y-141500324D01*
X44315000Y-141999676D01*
X44412418Y-142489432D01*
X44603512Y-142950773D01*
X44880937Y-143365968D01*
X45234032Y-143719063D01*
X45649227Y-143996488D01*
X46110568Y-144187582D01*
X46600324Y-144285000D01*
X47099676Y-144285000D01*
X47589432Y-144187582D01*
X48050773Y-143996488D01*
X48465968Y-143719063D01*
X48819063Y-143365968D01*
X49096488Y-142950773D01*
X49287582Y-142489432D01*
X49385000Y-141999676D01*
X49385000Y-141500324D01*
X49287582Y-141010568D01*
X49096488Y-140549227D01*
X48819063Y-140134032D01*
X48465968Y-139780937D01*
X48050773Y-139503512D01*
X47589432Y-139312418D01*
X47099676Y-139215000D01*
X46600324Y-139215000D01*
X46110568Y-139312418D01*
X45649227Y-139503512D01*
X45234032Y-139780937D01*
X44880937Y-140134032D01*
X44603512Y-140549227D01*
X44412418Y-141010568D01*
X44315000Y-141500324D01*
X44060000Y-141500324D01*
X44060000Y-136232279D01*
X44088625Y-135940341D01*
X44164035Y-135690571D01*
X44286522Y-135460208D01*
X44451422Y-135258020D01*
X44652450Y-135091714D01*
X44881954Y-134967622D01*
X45129110Y-134891114D01*
X100107086Y-134963328D01*
%TD*%
M02*
